{"glyphs":{"0":{"ha":831,"x_min":69,"x_max":764,"o":"m 696 248 q 694 231 696 236 q 688 222 693 225 q 676 199 677 208 q 669 189 675 190 q 667 178 667 180 q 662 174 666 176 q 654 156 656 160 q 648 148 651 152 q 640 136 639 136 q 639 134 640 136 q 627 113 629 115 q 617 101 618 102 q 617 98 616 100 q 609 89 612 95 q 600 81 606 83 q 587 64 590 68 q 581 58 585 61 q 567 45 570 49 q 560 39 564 42 q 545 31 553 35 q 532 19 536 27 q 517 9 521 19 q 503 4 505 3 q 500 4 502 5 q 486 -5 486 -3 q 471 -8 472 -7 q 467 -11 469 -9 q 444 -16 450 -16 q 429 -19 437 -16 q 420 -21 425 -20 q 411 -23 415 -22 q 396 -35 399 -33 q 387 -41 393 -38 q 367 -45 376 -46 q 347 -41 358 -43 q 339 -35 343 -39 q 330 -27 335 -31 q 321 -23 326 -24 q 312 -19 316 -22 q 289 -5 301 -14 q 279 2 281 3 q 274 4 277 1 q 254 16 258 12 q 244 23 250 19 q 236 32 240 28 q 228 39 232 35 q 219 45 224 42 q 213 54 214 47 q 197 61 199 58 q 194 68 194 64 q 178 84 182 73 q 168 93 171 87 q 159 102 165 99 q 155 111 159 107 q 148 118 151 114 q 141 133 145 127 q 131 151 133 148 q 127 157 129 155 q 123 174 125 171 q 119 180 122 178 q 117 194 118 194 q 115 195 117 194 l 111 214 q 102 247 104 233 q 95 267 95 263 q 94 275 95 271 q 92 287 91 285 q 91 292 92 289 q 81 324 83 312 q 76 351 79 338 q 73 378 73 363 q 75 395 76 392 q 73 400 73 397 q 72 425 73 419 q 75 438 71 431 q 71 453 69 452 q 72 457 72 454 q 71 478 71 475 q 69 486 72 481 q 71 507 73 500 q 71 517 71 511 q 72 526 72 522 q 72 549 72 537 q 76 571 72 560 q 76 591 76 583 q 77 605 76 598 q 81 621 79 614 q 83 635 84 628 q 88 658 85 651 q 94 674 91 665 q 98 686 96 681 q 103 701 100 692 q 106 711 107 709 q 107 716 106 713 q 111 726 111 722 q 114 732 111 730 q 118 747 118 746 q 123 761 123 760 q 123 765 122 762 q 129 775 126 770 q 134 787 132 780 q 138 797 137 792 q 142 804 138 802 q 149 818 146 817 q 153 822 151 819 q 157 838 157 831 q 168 854 165 850 q 174 865 171 859 q 182 872 179 868 q 187 882 184 876 q 199 901 194 895 q 209 913 205 906 q 224 930 216 921 q 240 945 232 939 q 264 966 252 956 q 288 986 277 975 q 312 1002 311 997 q 326 1006 321 1002 q 336 1012 331 1009 q 358 1024 350 1016 q 366 1025 361 1025 q 373 1027 370 1025 q 380 1030 377 1029 q 389 1032 384 1031 q 399 1035 395 1034 q 411 1036 404 1036 q 425 1034 418 1036 q 439 1031 431 1031 q 458 1031 456 1032 q 465 1029 461 1029 q 481 1026 480 1028 q 487 1025 483 1024 q 522 1004 498 1010 q 538 991 536 993 q 544 986 541 989 q 557 978 551 982 q 566 967 563 974 q 576 963 574 964 q 581 959 578 962 q 589 949 585 955 q 600 941 593 944 q 613 926 613 930 q 633 913 624 916 q 642 901 636 905 q 651 891 647 898 q 656 880 652 884 q 662 869 661 876 q 676 854 674 859 q 681 844 678 849 q 694 824 690 831 q 696 804 697 817 q 700 795 700 799 q 704 791 700 792 q 707 778 703 781 q 709 768 711 774 q 715 755 712 762 q 718 742 719 747 q 728 722 726 728 q 728 704 731 715 q 735 678 735 686 q 742 663 735 670 q 740 654 739 658 q 742 643 741 650 q 747 629 747 631 q 746 627 746 628 q 750 612 747 618 q 753 601 753 605 q 752 593 753 598 q 755 585 751 589 q 757 566 753 578 q 758 547 761 555 q 762 519 760 529 q 761 498 764 509 q 753 469 754 480 q 747 452 751 458 q 748 444 750 448 q 746 435 746 439 q 745 424 743 425 q 746 420 746 423 q 743 410 742 414 q 743 403 745 407 q 738 375 738 382 q 732 363 738 368 q 730 345 735 355 q 728 328 726 335 q 721 317 722 324 q 716 305 720 309 q 715 289 716 292 q 712 282 713 286 q 711 273 711 278 q 709 263 712 269 q 696 248 708 252 m 397 978 q 385 969 395 967 q 366 968 374 971 q 359 964 363 967 q 354 959 355 960 q 347 949 349 949 q 345 947 345 948 q 333 935 335 935 q 328 935 331 936 q 317 911 319 918 q 308 905 315 905 q 307 896 309 898 q 305 887 304 894 q 291 868 294 873 q 285 856 288 863 q 275 838 277 841 q 270 833 274 834 q 267 821 270 825 q 266 808 264 817 q 260 802 260 806 q 258 792 260 798 q 254 783 255 788 q 251 774 252 777 q 250 755 248 758 q 241 731 241 741 q 240 718 240 724 q 239 705 240 712 q 235 684 237 690 q 233 673 233 677 q 231 652 233 658 q 232 640 229 647 q 229 623 231 627 q 228 614 228 618 q 229 603 227 608 q 229 593 231 598 q 228 583 229 587 q 227 572 227 578 q 228 562 227 567 q 229 552 229 557 q 225 541 224 544 q 227 536 227 538 q 227 518 225 522 q 228 510 228 514 q 224 488 225 494 q 224 480 224 483 q 223 460 222 471 q 220 446 224 450 q 224 395 218 416 q 221 381 220 388 q 220 365 222 374 q 221 350 221 355 q 221 339 221 345 q 225 324 225 324 q 227 311 228 317 q 229 302 227 305 q 229 288 229 289 q 229 276 228 279 q 232 269 231 273 q 234 253 233 254 q 235 251 235 252 q 235 237 233 241 q 237 229 236 233 q 236 217 235 218 q 237 213 237 216 q 241 187 239 194 q 243 172 244 180 q 251 150 250 153 q 250 141 252 146 q 260 128 258 132 q 264 122 262 125 q 271 106 270 109 q 271 100 273 103 q 281 89 277 96 q 288 76 285 81 q 293 64 292 64 q 296 62 294 64 q 307 43 298 50 q 321 26 315 37 q 335 22 328 23 q 349 19 342 22 q 389 11 372 8 q 402 10 397 11 q 406 12 407 9 q 418 18 419 15 q 420 22 418 20 q 428 27 426 23 q 435 34 430 31 q 449 36 444 34 q 461 41 454 38 q 473 47 472 46 q 476 52 473 49 q 491 58 483 56 q 506 65 499 61 q 521 76 518 76 q 526 79 524 76 q 532 87 530 83 q 540 94 533 92 q 552 109 544 103 q 564 132 560 126 q 570 144 567 137 q 578 161 576 159 q 581 167 581 164 q 582 179 583 172 q 587 190 581 186 q 591 222 586 208 q 597 252 595 237 q 597 273 598 263 q 601 292 597 282 q 599 315 598 302 q 601 339 600 328 q 602 353 604 353 q 601 355 601 354 q 604 373 605 366 q 604 387 602 380 q 604 395 604 391 q 605 404 605 399 q 603 417 605 411 q 601 430 601 423 q 603 444 602 437 q 604 457 604 450 q 600 484 600 476 q 601 499 601 491 q 599 509 600 505 q 598 521 598 514 q 599 536 598 528 q 598 552 600 544 q 596 567 598 560 q 600 581 594 574 q 596 591 594 585 q 595 600 598 597 q 594 608 593 604 q 595 618 595 613 q 594 633 594 631 q 593 636 594 635 q 589 653 591 644 q 587 673 587 662 q 587 686 586 680 q 585 699 587 693 q 586 705 587 701 q 585 715 585 709 q 585 736 587 731 q 585 747 582 741 q 578 779 582 768 q 578 803 574 789 q 574 813 575 807 q 571 825 574 819 q 564 848 566 840 q 555 863 562 856 q 551 878 553 875 q 545 883 548 880 q 538 899 541 890 q 530 914 534 907 q 519 929 521 926 q 517 935 518 932 q 510 941 511 940 q 506 945 509 943 q 498 958 498 956 q 496 960 498 959 q 473 970 483 971 q 454 970 464 968 q 437 977 448 975 q 419 982 426 978 q 408 980 412 982 q 397 978 404 978 z "},"1":{"ha":585,"x_min":7,"x_max":576,"o":"m 553 52 q 564 48 560 52 q 574 45 567 45 q 576 30 576 34 q 570 10 575 11 q 563 5 566 9 q 545 4 553 8 q 526 -1 536 0 l 511 0 q 500 1 507 0 q 487 3 494 3 q 473 -1 473 0 q 471 -3 473 -3 q 463 -2 468 -3 q 454 -1 458 -1 q 442 1 448 0 q 430 3 437 1 q 415 5 416 5 q 411 5 414 4 q 396 9 397 9 q 393 8 395 8 q 384 9 387 9 q 378 8 381 8 q 360 12 368 9 q 343 14 353 14 q 330 13 332 12 q 326 14 328 14 q 309 14 311 12 q 305 16 308 15 q 290 13 290 14 q 289 12 290 12 q 263 12 270 11 q 250 12 256 14 q 224 12 236 12 q 210 12 213 11 q 205 12 208 12 q 191 9 193 8 q 187 11 190 11 q 178 9 184 11 q 167 8 172 7 q 151 1 152 0 q 144 3 149 3 q 103 -1 119 -3 q 71 -1 87 0 q 56 -4 64 -3 q 39 -5 49 -5 q 26 -8 34 -7 q 16 -7 19 -9 q 7 11 7 5 q 11 22 7 18 q 18 33 15 26 q 27 34 22 34 q 35 38 33 34 q 58 37 45 34 q 71 39 69 41 q 75 38 72 38 q 82 40 79 38 q 91 42 85 42 q 106 41 106 41 q 110 42 107 42 q 120 43 115 43 q 130 46 125 43 q 146 45 141 46 q 153 47 151 45 q 171 47 159 45 q 182 51 176 49 q 190 60 189 53 q 203 64 201 64 q 209 65 206 64 q 214 71 212 68 q 218 77 216 75 q 225 94 221 88 q 227 108 227 107 q 228 110 228 109 q 229 123 228 119 q 228 134 231 127 q 232 151 231 146 q 233 159 233 155 q 233 179 232 175 q 232 189 235 183 q 235 196 236 191 q 237 205 233 201 q 235 218 235 213 q 239 227 236 224 q 237 245 236 233 q 237 271 237 258 q 237 282 237 277 q 239 292 237 288 q 236 309 239 307 q 236 328 233 320 q 239 345 239 336 q 237 356 239 357 q 237 363 235 355 q 239 375 239 368 q 239 385 239 382 q 236 397 239 397 q 239 407 233 396 q 239 426 237 423 l 236 442 q 237 456 236 452 q 236 464 237 461 q 235 479 235 477 q 236 484 236 481 l 236 500 q 235 512 236 510 q 233 517 233 514 q 236 533 236 522 q 236 567 237 549 q 235 590 233 585 q 232 601 236 595 q 233 625 232 616 q 231 644 233 633 q 231 665 232 655 q 233 682 229 674 q 231 703 232 699 q 229 715 229 708 q 228 736 231 728 q 229 747 231 742 q 227 754 228 751 q 227 768 227 761 q 225 783 227 776 q 216 808 217 803 q 214 818 216 814 q 209 825 212 822 q 206 831 206 827 q 189 848 194 844 q 178 857 184 852 l 163 863 q 147 865 149 864 q 142 865 145 865 q 115 861 119 863 q 100 858 102 857 q 96 857 99 859 q 90 857 92 857 q 81 856 88 857 q 71 856 75 856 q 62 859 68 856 q 51 862 54 861 q 46 865 47 863 q 26 876 28 873 q 21 894 19 887 q 26 903 23 901 q 44 910 39 909 q 53 910 49 911 q 63 907 58 909 q 73 903 68 905 q 85 902 85 901 q 95 905 84 903 q 103 905 102 906 q 110 906 104 905 q 117 909 114 907 q 125 910 121 910 q 148 914 141 910 q 164 915 163 916 q 168 916 165 914 q 184 922 179 920 q 191 924 187 924 q 199 925 195 924 q 218 932 210 929 q 228 934 222 933 q 239 937 233 935 q 249 941 244 939 q 258 945 254 943 q 271 951 269 951 q 275 952 273 951 l 286 963 q 298 971 297 971 q 302 972 300 971 q 312 983 312 982 q 313 986 312 985 q 323 997 321 993 q 328 1002 324 1001 q 340 1023 336 1019 q 347 1032 343 1028 q 359 1034 354 1031 q 370 1034 365 1038 q 382 1021 381 1023 q 385 1003 385 1008 q 382 993 384 998 q 378 977 374 978 q 380 972 381 977 q 380 963 378 967 q 380 956 381 959 q 379 943 378 951 q 381 928 380 935 q 379 914 381 921 q 374 901 377 907 q 374 890 373 895 q 370 884 376 886 q 375 878 373 882 q 377 867 377 873 q 377 850 374 852 q 378 846 380 849 q 375 829 377 834 q 374 821 373 823 q 376 803 377 808 q 374 792 374 798 q 376 772 377 783 q 373 750 374 761 q 372 736 373 743 q 369 722 372 728 q 371 712 370 715 q 372 707 372 709 q 371 694 372 704 q 372 681 370 684 q 372 665 374 673 q 372 656 372 659 q 372 647 373 652 q 373 633 372 643 q 374 620 374 623 q 372 602 372 608 q 374 589 372 600 q 377 576 377 579 q 377 559 374 564 q 377 548 380 553 q 372 530 373 532 q 370 526 372 528 q 376 505 373 515 q 378 483 380 494 q 374 470 373 471 q 374 467 374 469 q 377 452 377 464 q 374 435 377 441 q 373 406 372 415 q 374 391 374 397 q 374 386 374 384 q 373 390 373 388 q 372 389 373 392 q 372 370 372 387 q 372 357 372 363 q 373 345 372 351 q 373 333 374 335 q 372 330 372 331 q 373 320 372 326 q 374 311 374 315 q 373 302 374 307 q 372 293 372 297 q 373 275 372 290 q 374 256 374 260 q 374 246 374 251 q 373 237 373 241 q 372 213 374 224 q 371 198 372 206 q 374 184 370 190 q 371 162 372 167 q 372 152 370 157 q 373 144 372 148 q 374 136 374 140 q 379 119 380 121 q 380 114 378 117 q 385 101 384 106 q 388 94 385 96 q 392 85 393 90 q 395 79 391 81 q 427 52 415 58 q 463 38 439 45 q 477 39 469 41 q 495 38 486 38 q 515 42 506 39 q 530 46 524 45 q 547 48 545 45 q 553 52 548 52 z "},"2":{"ha":762,"x_min":83,"x_max":680,"o":"m 183 179 q 195 186 191 180 q 209 190 198 191 q 221 199 214 198 q 241 199 228 203 q 263 193 254 195 q 283 191 277 191 q 290 184 289 191 q 305 176 302 179 q 307 167 308 174 q 327 165 317 165 q 345 165 336 165 q 359 160 355 161 q 374 155 366 157 q 387 146 382 152 q 396 144 393 148 q 406 142 399 141 q 426 134 411 134 q 452 127 444 127 q 464 121 460 126 q 473 121 468 123 q 483 117 479 118 q 518 119 500 117 q 534 123 532 123 q 540 122 537 122 q 553 125 547 123 q 566 130 559 127 q 585 138 582 138 q 590 141 587 138 q 595 147 593 144 q 601 152 598 151 q 605 163 604 161 q 609 171 606 165 q 612 182 610 175 q 609 191 613 189 q 617 206 614 201 q 623 224 621 222 q 625 228 624 225 q 631 243 629 243 q 632 245 632 244 q 633 265 632 262 q 635 273 635 269 q 642 281 639 277 q 650 289 646 286 q 670 285 665 292 q 680 270 675 278 q 677 258 677 264 q 677 244 678 251 q 675 231 674 233 q 675 227 677 229 q 673 213 673 214 q 673 209 674 212 q 671 187 670 191 q 667 180 671 183 q 668 170 669 172 q 665 164 667 167 l 659 149 q 659 134 658 141 q 656 119 659 126 q 648 104 648 107 q 644 100 647 102 q 643 87 646 87 q 639 84 640 87 q 635 66 635 71 q 632 60 635 62 q 620 47 623 52 q 613 41 617 43 q 595 18 600 28 q 582 14 586 18 q 574 7 578 11 q 564 5 567 7 q 555 3 560 3 q 539 -7 548 -3 q 522 -9 530 -12 q 488 -18 502 -14 q 479 -16 484 -16 q 469 -14 473 -16 q 449 -11 453 -14 q 437 -9 445 -8 q 425 -5 430 -7 q 416 1 419 -3 q 401 4 406 1 q 393 12 396 7 q 382 15 389 16 q 378 22 382 20 q 377 31 374 24 q 363 40 366 38 q 359 49 359 42 q 348 58 350 56 q 345 64 346 60 q 336 71 339 66 q 331 81 334 76 q 312 102 321 87 q 298 119 302 117 q 292 126 294 122 q 277 130 281 129 q 271 134 274 132 q 267 145 271 141 q 259 153 263 149 q 249 153 254 152 q 237 157 244 155 q 223 159 224 157 q 220 159 222 160 q 210 153 213 157 q 198 146 206 149 q 189 136 193 141 q 179 129 186 132 q 173 115 171 118 q 170 113 175 113 q 153 80 163 94 q 149 60 153 69 q 142 50 141 50 q 142 46 142 49 q 138 23 137 34 q 132 7 138 12 q 121 -5 125 -3 q 114 -5 117 -7 q 106 -1 109 -1 q 99 0 103 0 q 96 9 98 5 q 92 18 94 12 q 98 50 92 41 q 98 69 103 60 q 107 85 103 85 q 106 98 104 92 q 111 111 109 104 q 118 129 117 126 q 121 134 119 132 l 125 157 q 134 175 132 164 q 146 191 137 186 q 155 210 152 208 q 160 217 157 213 q 170 232 167 228 q 175 243 174 236 q 182 248 179 245 q 189 251 184 250 q 206 275 201 267 q 221 290 212 283 q 235 304 233 301 q 240 311 237 308 q 250 323 248 321 q 262 332 262 330 q 282 345 270 338 q 298 351 293 351 q 313 362 312 361 q 342 374 328 370 q 367 387 361 385 q 377 396 373 389 q 392 407 389 399 q 404 419 403 412 q 421 433 415 425 q 438 449 427 442 q 446 461 445 460 q 450 463 448 463 q 459 477 458 473 q 465 483 460 481 q 467 492 465 488 q 472 498 469 495 q 486 531 481 517 q 500 557 491 545 q 499 570 498 564 q 503 581 500 575 q 505 589 505 583 q 507 600 505 595 q 508 606 509 602 q 509 617 507 609 q 513 648 511 642 q 513 660 514 655 q 515 670 513 665 q 513 680 513 675 q 511 690 513 684 q 509 703 509 701 q 510 705 510 704 q 508 714 510 708 q 507 726 506 720 q 506 760 509 743 q 504 773 503 773 q 505 776 505 773 q 502 785 503 781 q 499 792 500 789 q 498 808 499 806 q 496 814 496 811 q 498 821 496 817 q 498 829 499 826 l 490 842 q 487 855 486 853 q 487 860 488 857 q 481 866 484 864 q 476 872 479 868 q 461 895 467 890 q 453 907 456 901 q 438 918 441 917 q 437 922 435 918 q 407 939 419 928 q 393 945 399 943 q 382 951 387 947 q 373 950 376 948 q 366 954 370 952 q 344 960 349 958 q 334 962 339 962 q 315 962 317 960 q 311 963 313 963 q 294 961 298 960 q 288 960 290 962 q 279 956 283 959 q 270 949 275 952 q 260 946 267 947 q 248 943 254 945 q 239 937 243 940 q 232 935 236 933 q 217 920 225 926 q 201 905 209 913 q 191 891 195 898 q 178 880 186 884 q 170 864 174 868 q 163 850 165 852 q 164 845 161 848 q 159 840 160 844 q 155 833 157 836 l 151 812 q 143 791 145 799 q 137 776 141 784 q 130 762 133 765 q 127 755 127 758 q 122 720 129 736 q 125 707 126 716 q 125 689 123 697 q 126 678 127 681 q 125 674 125 675 q 128 661 129 666 q 133 656 127 655 q 130 650 129 655 q 133 642 132 644 q 132 631 133 632 q 133 627 132 629 q 139 618 140 620 q 140 613 138 616 q 152 600 145 605 q 163 587 159 594 q 179 579 172 585 q 194 574 189 579 q 216 572 206 572 q 236 576 227 572 q 258 581 251 578 q 273 589 266 583 q 294 609 289 600 q 304 622 301 621 q 304 625 307 623 q 311 631 309 627 q 315 643 312 636 q 321 657 319 650 q 321 671 324 665 q 322 690 323 686 q 316 697 321 694 q 316 710 317 709 q 315 712 315 711 q 308 724 311 720 q 305 731 305 727 q 293 745 294 742 q 275 743 278 746 q 265 740 270 741 q 254 736 260 739 q 250 730 251 734 q 243 726 248 727 q 243 716 245 719 q 240 711 241 713 q 242 699 240 707 q 245 686 244 690 q 248 668 250 670 q 243 662 245 666 q 222 655 227 654 q 212 656 217 656 q 200 675 202 665 q 201 696 198 685 q 201 709 201 703 q 208 720 202 715 q 207 730 208 726 q 208 739 206 735 q 214 748 209 745 q 218 758 218 751 q 247 780 243 770 q 259 782 254 777 q 270 789 264 787 q 283 788 282 787 q 285 789 283 789 q 308 776 300 780 q 313 771 311 773 q 323 769 316 769 q 333 754 330 755 q 339 750 336 753 q 347 736 340 743 q 349 722 347 727 q 355 705 353 708 q 358 700 357 703 q 361 674 362 682 q 357 659 359 666 q 351 632 355 640 q 343 618 347 624 q 336 600 339 606 q 324 583 323 585 q 309 571 312 579 q 296 564 298 571 q 282 556 293 556 q 263 544 270 544 q 252 540 256 544 q 245 537 250 537 q 237 533 240 537 q 227 534 232 536 q 217 530 222 532 q 187 533 199 529 q 176 538 180 537 q 170 541 172 538 q 158 543 159 543 q 155 543 157 544 q 133 555 146 549 q 123 568 125 566 q 118 572 121 570 q 106 585 106 585 q 102 594 103 590 q 99 606 102 598 q 94 620 95 618 q 91 624 92 621 q 90 633 90 628 q 90 642 91 637 l 85 665 q 83 684 85 678 l 84 699 q 84 712 83 711 q 85 716 85 713 q 87 730 88 723 q 88 743 85 738 l 94 765 q 115 825 102 806 q 120 841 119 838 q 123 844 121 844 q 125 856 123 850 q 130 867 127 861 q 135 876 133 872 q 138 887 137 880 q 151 900 148 891 q 163 911 155 909 q 170 924 165 918 q 180 933 174 930 q 185 942 182 939 q 193 949 189 945 q 197 954 195 952 q 205 959 199 955 q 218 967 217 966 q 224 970 220 968 l 245 978 q 262 985 262 983 q 277 991 274 989 q 296 996 293 997 q 302 996 300 996 q 336 998 321 996 q 361 1002 354 1001 q 374 1006 368 1004 q 383 1004 378 1004 q 395 1004 388 1005 q 415 1000 411 1000 q 423 1000 419 1001 q 439 994 433 998 q 453 987 446 989 q 469 974 468 977 q 472 968 469 971 q 479 968 477 971 q 487 967 480 964 q 495 962 490 963 q 507 959 500 960 q 522 951 515 955 q 536 945 528 948 q 545 939 543 941 q 553 937 548 937 q 570 921 564 926 q 582 910 575 916 q 592 897 589 902 q 602 888 595 891 q 616 875 610 880 q 635 846 628 852 q 640 830 635 834 q 646 814 640 822 q 655 802 648 803 q 661 781 661 787 q 665 772 662 776 q 667 764 667 769 q 670 754 667 760 q 673 732 670 738 q 677 720 675 727 q 676 705 675 709 q 677 699 677 701 q 675 684 677 692 q 677 671 674 677 q 673 661 673 663 q 673 656 674 659 q 671 648 670 650 q 670 640 671 646 q 667 626 665 628 q 667 620 669 624 q 662 607 663 614 q 656 595 661 600 q 648 570 654 581 q 639 543 642 559 q 623 514 628 524 q 606 502 618 505 q 603 494 604 499 q 597 487 602 488 q 589 473 593 473 q 589 467 586 472 q 578 463 582 467 q 572 456 575 460 q 559 447 560 448 q 556 444 557 446 q 536 428 540 433 q 524 422 532 423 q 517 417 519 420 q 510 412 515 414 q 504 406 507 410 q 496 400 500 403 q 488 397 492 397 q 479 396 483 397 q 458 388 461 389 q 452 385 454 387 q 437 381 445 382 q 425 373 429 380 q 412 370 415 374 q 399 366 408 366 q 388 357 389 361 q 380 355 387 354 q 355 342 362 346 q 342 335 349 339 q 333 331 338 332 q 326 326 328 330 q 314 323 317 328 q 307 315 311 319 l 288 307 q 277 298 277 301 q 277 294 278 296 q 269 285 269 286 q 267 281 269 283 q 245 258 250 269 q 233 248 233 252 q 225 243 232 243 q 219 231 221 232 q 214 228 217 231 q 208 217 212 221 q 198 208 203 213 q 183 179 187 194 z "},"3":{"ha":757,"x_min":42,"x_max":681,"o":"m 456 568 q 467 557 465 559 q 472 553 469 556 q 495 540 486 549 q 510 536 505 540 q 524 530 515 533 q 549 512 540 521 q 574 500 559 503 q 583 491 581 494 q 589 486 586 488 q 603 475 602 476 q 605 472 604 473 q 616 464 614 465 q 621 460 618 463 q 629 444 628 445 q 636 432 636 434 q 637 427 636 430 q 645 414 643 418 q 650 406 647 411 q 656 395 654 399 q 658 385 659 392 q 664 377 663 382 q 667 368 665 372 q 672 354 673 354 q 671 351 671 354 q 673 335 674 335 q 675 326 671 332 q 680 312 678 319 q 679 304 681 308 q 681 297 677 300 q 677 276 675 290 q 670 255 678 262 q 669 241 673 248 q 669 227 665 235 q 662 207 663 213 q 658 194 661 201 q 650 179 652 184 q 637 159 642 170 q 631 146 632 148 q 628 141 629 144 q 618 127 618 127 q 612 115 613 118 q 609 110 610 111 q 598 102 601 104 q 593 99 595 99 q 585 86 589 91 q 579 79 582 81 q 573 72 576 75 q 567 65 570 69 q 553 53 559 60 q 540 42 548 46 q 523 34 525 38 q 518 26 521 30 q 502 15 506 24 q 492 13 496 16 q 486 7 488 9 q 475 4 480 4 q 468 0 471 4 q 442 -11 450 -3 q 426 -16 427 -14 q 422 -20 425 -18 q 405 -22 406 -22 q 401 -23 404 -23 q 392 -19 396 -19 q 385 -16 388 -19 q 361 -25 370 -20 q 346 -23 351 -30 q 330 -24 339 -26 q 315 -24 321 -22 q 298 -20 301 -20 q 290 -20 294 -19 q 277 -13 278 -14 q 271 -14 275 -12 q 263 -12 267 -12 q 256 -8 259 -11 q 234 -3 241 -9 q 213 3 227 3 q 195 13 198 11 q 186 18 191 15 q 167 33 175 23 q 151 40 160 38 q 134 49 141 42 q 119 52 119 53 q 115 53 118 52 q 102 61 104 58 q 98 66 100 64 q 79 83 81 77 q 69 90 76 88 q 66 102 69 98 q 58 111 62 107 q 54 123 58 119 q 47 132 50 127 q 47 140 50 137 q 43 149 43 142 q 43 157 42 152 q 43 167 43 161 q 43 174 43 170 q 42 182 42 179 q 46 203 46 198 q 47 210 46 208 q 50 219 47 214 q 50 227 53 224 q 57 243 56 240 q 58 250 58 245 q 66 262 61 256 q 71 279 71 269 q 77 288 76 282 q 85 296 79 293 q 103 317 94 308 q 113 329 106 324 q 122 340 119 334 q 139 351 137 349 q 144 357 141 354 q 164 363 159 362 q 174 366 168 365 q 186 368 179 368 q 201 367 193 369 q 217 363 209 365 q 238 357 233 359 q 252 353 243 354 q 287 338 278 346 q 304 323 296 331 q 307 311 304 315 q 313 302 311 307 q 315 290 311 294 q 323 281 320 286 q 327 263 328 266 q 326 256 326 260 q 320 231 324 236 q 317 220 316 227 q 310 210 312 212 q 309 205 308 209 q 300 198 304 201 q 296 190 297 195 q 284 183 289 187 q 275 174 279 179 q 253 169 264 171 q 232 164 241 167 q 220 167 225 167 q 210 163 214 167 q 203 163 208 164 q 195 165 198 163 q 181 180 184 176 q 175 186 178 183 q 170 194 171 191 q 165 199 168 197 q 172 222 168 212 q 180 240 175 232 q 187 238 184 240 q 197 237 190 236 q 203 221 201 222 q 208 218 206 220 q 216 208 216 209 q 220 205 217 206 q 239 207 231 203 q 256 214 247 210 q 277 229 274 221 q 283 243 283 244 q 282 254 282 248 q 281 267 282 260 q 275 279 275 278 q 274 283 275 281 q 258 300 260 296 q 252 307 256 304 q 244 310 250 309 q 233 312 239 311 q 228 316 229 315 q 220 320 227 317 q 195 326 203 324 q 175 323 187 327 q 161 317 163 320 q 152 315 159 313 q 145 306 149 309 q 137 298 141 302 q 121 283 122 288 q 114 279 119 279 q 100 254 110 260 q 98 243 98 250 q 92 235 99 237 q 91 226 94 229 q 85 220 88 222 q 83 206 83 213 q 79 194 83 199 q 81 180 84 187 q 80 165 79 172 q 83 149 83 149 q 93 133 87 138 q 96 121 99 127 q 109 110 104 117 q 119 98 113 103 q 130 93 126 96 q 140 85 134 90 q 157 78 155 79 q 160 73 160 77 q 178 66 175 69 q 186 61 180 64 q 201 56 193 58 q 214 47 209 53 q 230 43 228 43 q 235 39 232 42 q 246 38 241 42 q 256 31 251 34 q 273 30 267 31 q 290 21 288 20 q 294 22 292 22 q 309 18 298 19 q 330 15 319 16 q 345 16 342 15 q 351 18 349 18 q 368 17 365 16 q 373 18 370 18 q 399 20 392 16 q 412 26 406 23 q 438 34 427 30 q 448 43 445 37 q 458 50 452 49 q 463 58 460 56 q 467 65 465 60 q 484 88 477 80 q 496 104 490 96 q 503 123 502 117 q 507 136 505 130 q 511 153 509 148 q 514 163 513 157 q 515 177 514 174 q 517 183 517 180 q 519 197 521 195 q 519 201 518 199 q 525 216 525 216 q 526 231 524 231 q 529 235 528 232 q 527 259 521 251 q 530 274 533 267 q 523 303 528 294 q 521 317 518 312 q 519 329 522 323 q 513 339 515 335 q 507 372 507 354 q 502 392 502 382 q 496 400 499 396 q 490 408 494 404 q 481 427 487 414 q 471 444 473 435 q 457 452 463 449 q 445 475 452 469 q 433 488 438 480 q 415 504 422 495 q 395 515 408 513 q 363 533 376 528 q 336 534 351 538 q 320 545 332 541 q 300 543 305 543 q 293 545 296 543 q 288 563 286 559 q 290 572 290 567 q 304 583 302 581 q 309 583 305 585 q 326 599 319 595 q 342 604 334 602 q 357 599 351 601 q 370 597 363 597 q 380 600 377 597 q 385 600 382 602 q 406 613 399 609 q 422 623 420 621 q 437 633 430 625 q 454 646 445 642 q 463 666 460 659 q 471 677 465 673 q 479 693 472 684 q 481 709 480 704 q 488 720 481 713 q 491 747 492 736 q 495 765 490 758 q 492 782 491 780 q 495 787 494 784 q 496 801 495 799 q 496 804 496 803 q 494 816 494 814 q 495 821 495 818 q 494 832 495 826 q 495 845 492 838 q 490 861 490 857 q 490 869 491 865 q 485 882 484 882 q 484 886 486 883 q 477 898 481 891 q 471 911 473 905 q 460 930 465 921 q 449 947 456 939 q 433 956 439 955 q 427 963 427 956 q 406 968 411 966 q 396 972 401 971 q 380 975 382 974 q 377 977 378 977 q 370 977 373 978 q 362 977 368 975 q 344 983 349 981 q 330 982 339 985 q 308 976 312 975 q 301 974 304 977 q 283 966 286 968 q 277 962 279 963 q 262 958 266 959 q 245 949 251 951 q 233 944 240 947 q 216 928 221 935 q 199 917 210 921 q 193 908 197 911 q 186 901 189 905 q 178 891 182 895 q 170 884 175 887 q 164 870 164 873 q 159 867 164 867 q 148 849 156 856 q 140 827 140 842 q 132 819 133 825 q 127 810 132 812 q 127 796 129 799 q 129 791 126 793 q 124 783 126 788 q 122 774 122 777 q 134 752 129 755 q 138 742 138 749 q 148 737 145 741 q 157 734 151 734 q 172 725 170 726 q 176 722 175 724 q 187 722 183 724 q 198 720 191 720 q 212 722 205 720 q 227 722 218 724 q 237 732 237 731 q 254 736 245 732 q 270 747 264 742 q 279 754 275 751 q 289 764 283 757 q 298 781 296 772 q 298 807 300 791 q 292 827 293 825 q 275 829 282 831 q 256 825 267 826 q 240 821 254 821 q 232 833 233 826 q 233 848 231 841 q 242 859 236 854 q 259 860 248 863 q 311 864 293 869 q 334 842 330 849 q 338 828 338 834 q 338 817 338 822 q 338 803 338 810 q 339 789 339 796 q 336 781 338 785 q 340 774 335 777 q 336 768 335 772 q 334 760 336 764 q 321 740 324 746 q 312 730 319 734 q 300 724 300 727 q 297 719 300 720 q 283 708 288 718 q 275 705 277 709 q 270 699 273 701 q 247 692 252 694 q 236 686 241 689 q 229 686 233 688 q 221 688 224 685 q 201 684 208 686 q 189 682 194 682 q 174 684 175 686 q 170 682 172 682 q 143 696 149 690 q 126 700 137 701 q 121 711 123 707 q 115 722 119 716 q 109 729 111 727 q 106 735 107 731 q 96 745 98 742 q 91 750 94 747 q 86 767 88 764 q 84 776 84 770 q 90 795 85 787 q 91 810 95 803 q 95 825 96 818 q 107 848 102 844 q 113 863 113 853 q 127 889 122 879 q 144 905 133 899 q 151 916 146 911 q 159 926 156 920 q 168 934 167 932 q 172 939 170 936 q 182 950 180 949 q 186 954 183 951 q 192 958 189 956 q 197 964 195 960 q 206 967 203 964 q 212 972 209 970 q 227 980 222 978 q 237 982 231 982 q 245 985 243 982 q 251 991 247 989 q 264 997 260 996 q 274 998 269 998 q 315 1012 292 1012 q 331 1019 330 1020 q 335 1017 332 1017 q 361 1025 346 1024 q 378 1025 370 1025 q 391 1023 387 1025 q 412 1020 407 1023 q 423 1016 416 1017 q 435 1015 429 1015 q 446 1012 441 1015 q 475 996 471 1001 q 491 989 486 994 q 506 985 496 985 q 515 979 513 981 q 524 977 518 977 q 537 967 533 967 q 551 947 545 952 q 556 941 553 944 q 562 935 559 937 q 579 914 568 925 q 589 901 587 902 q 593 898 591 901 q 596 886 593 888 q 598 879 600 883 q 609 864 606 867 q 613 859 612 861 q 617 844 616 852 q 621 829 618 836 q 623 814 624 821 q 627 795 625 800 q 629 784 628 791 q 628 764 627 769 q 625 757 629 760 q 628 748 629 750 q 627 741 627 746 q 625 728 624 730 q 625 724 625 727 q 621 710 618 712 q 620 708 623 708 q 616 700 618 703 q 614 690 614 697 q 593 663 601 669 q 582 646 586 656 q 574 641 578 644 q 568 635 571 637 q 562 630 566 632 q 556 623 557 628 q 541 616 543 618 q 536 610 538 613 q 526 602 526 604 q 524 600 526 601 q 509 591 510 591 q 505 590 507 591 q 493 585 498 585 q 488 581 488 585 q 471 574 477 581 q 456 568 465 568 z "},"4":{"ha":703,"x_min":42,"x_max":654,"o":"m 511 336 q 518 332 514 332 q 529 328 522 331 l 553 327 q 580 326 567 327 q 606 326 593 324 q 627 330 621 331 q 635 326 632 330 q 648 313 646 316 q 647 304 650 311 q 638 292 637 293 q 637 290 639 290 q 614 288 620 285 q 601 293 608 290 q 571 292 586 292 q 544 296 556 293 q 528 292 534 292 q 517 294 522 292 q 507 229 506 260 q 507 175 507 198 q 505 161 506 168 q 507 148 505 155 q 509 119 502 130 q 509 94 505 106 q 510 73 513 83 q 517 66 514 71 q 522 57 519 61 q 536 56 529 54 q 551 53 544 57 q 564 56 555 57 q 579 57 572 54 q 585 54 582 56 q 593 50 587 52 q 607 50 600 49 q 621 50 614 50 q 633 47 628 49 q 642 47 637 45 q 654 24 654 30 q 650 11 654 18 q 640 12 644 14 q 631 11 635 9 q 612 13 614 14 q 606 12 610 12 q 589 12 594 14 q 579 12 585 11 q 551 11 559 15 q 543 14 545 12 q 536 19 540 16 q 519 20 528 16 q 500 23 510 23 q 482 21 484 20 q 477 22 480 22 q 460 18 463 19 q 454 16 457 16 q 414 17 430 18 q 384 16 399 16 q 364 18 368 19 q 358 18 361 16 q 347 18 353 18 q 338 15 342 19 q 317 13 321 15 q 308 9 312 11 q 300 9 304 8 q 292 8 296 9 q 270 1 275 1 q 258 -3 264 0 q 239 -7 250 -5 q 218 -7 229 -9 q 194 -10 202 -11 q 178 -9 186 -9 q 165 -14 171 -11 q 153 -12 160 -16 q 146 -1 149 -3 q 140 3 142 0 q 142 9 141 7 q 142 18 142 12 q 151 23 149 18 q 157 33 153 28 q 171 33 168 34 q 176 30 174 31 q 195 33 193 33 q 225 37 214 31 q 236 36 231 34 q 248 39 241 38 q 266 41 264 39 q 270 43 267 42 q 297 50 286 45 q 317 56 307 53 q 328 62 324 58 q 338 68 331 66 q 347 94 343 84 q 350 113 350 104 q 350 120 351 115 q 347 129 349 125 q 349 150 349 141 q 346 164 350 159 q 345 194 349 183 q 349 201 349 195 q 351 210 349 208 q 350 219 349 216 q 353 229 351 222 q 351 239 350 233 q 353 251 351 244 q 353 269 353 259 q 358 285 353 278 q 347 298 355 294 q 329 303 339 302 q 307 304 319 304 q 288 307 296 304 q 261 302 274 304 q 244 304 248 300 q 233 302 239 301 q 222 304 228 304 q 205 301 212 301 q 193 300 198 300 q 183 300 189 300 q 161 298 167 297 q 148 298 155 300 q 121 298 130 297 q 106 297 113 298 q 81 292 88 293 q 69 288 75 292 q 55 294 58 292 q 45 297 52 296 q 43 311 42 308 q 42 320 45 313 q 54 334 49 327 q 68 346 58 342 q 75 360 71 355 q 85 370 80 365 q 94 388 94 382 l 102 403 l 113 415 q 115 423 115 419 q 117 431 114 427 q 123 446 123 444 q 130 458 126 452 q 138 469 133 465 q 144 482 140 477 q 151 496 148 487 q 155 503 153 499 q 159 511 156 507 q 173 534 170 529 q 179 544 176 538 q 184 555 182 549 q 191 563 187 560 q 205 585 201 576 q 217 601 209 594 q 218 610 216 608 q 220 617 221 612 q 235 640 229 635 q 241 656 240 646 q 252 667 248 659 q 263 677 256 674 l 270 690 l 277 707 q 279 713 278 709 q 282 724 279 718 q 291 728 286 727 q 298 732 296 730 q 307 750 300 745 q 320 762 313 755 q 321 770 321 768 q 320 777 320 772 q 351 806 343 793 q 369 829 358 819 q 376 846 373 844 q 378 853 378 848 q 387 861 385 854 q 396 867 389 867 q 401 886 401 880 q 404 895 401 891 q 410 905 410 903 q 411 909 410 907 q 421 928 418 920 q 431 940 425 936 q 435 956 430 945 q 441 969 438 963 q 446 982 444 975 q 453 998 450 996 q 461 1010 458 1009 q 464 1016 464 1012 q 486 1009 479 1016 q 490 1003 490 1008 q 498 998 491 998 q 496 975 492 991 q 496 947 499 959 q 500 932 499 936 q 503 926 502 929 q 501 909 499 910 q 503 907 503 909 q 500 880 500 894 q 500 852 500 867 q 504 825 502 837 q 505 800 506 812 q 503 748 502 769 q 499 709 505 727 q 503 694 502 696 q 505 690 505 693 q 501 673 500 677 q 502 667 502 670 q 501 656 502 661 q 502 644 500 651 q 503 627 502 629 q 505 623 505 625 q 504 593 502 601 q 500 578 506 585 q 502 536 505 556 q 510 498 510 517 q 509 481 510 488 q 513 467 509 473 q 511 449 510 453 q 513 442 511 445 q 511 414 510 427 q 514 387 513 400 q 512 359 514 372 q 511 336 510 347 m 334 709 q 324 701 327 707 q 313 693 321 696 q 311 685 313 688 q 305 680 308 682 q 296 663 298 666 q 293 659 294 661 q 286 648 289 654 q 279 639 282 643 q 269 621 271 629 q 262 613 262 614 q 259 609 262 612 q 248 587 252 597 q 235 570 243 576 q 224 547 227 551 q 212 529 213 533 q 201 515 202 518 q 198 513 201 513 q 195 503 198 506 q 193 494 193 500 q 185 483 187 488 q 180 471 183 477 q 175 458 178 464 q 171 446 172 453 q 159 429 163 431 q 157 419 156 426 q 147 404 151 408 q 141 393 144 400 q 134 380 137 384 q 132 370 132 377 q 125 366 129 368 q 122 357 122 363 q 112 349 115 354 q 111 336 109 343 q 120 335 115 334 q 127 336 125 336 q 143 338 138 336 q 153 339 148 339 q 167 340 163 338 q 174 342 171 342 q 182 341 178 342 q 189 340 186 340 q 205 338 199 338 q 229 341 224 342 q 241 340 235 340 q 254 340 248 340 q 267 339 260 339 q 296 342 288 345 q 315 345 307 345 q 332 349 324 346 q 351 340 340 340 q 352 372 354 355 q 353 406 350 388 q 356 414 354 410 q 358 422 358 418 q 354 448 354 441 q 355 460 354 454 q 357 472 357 465 q 353 498 355 491 q 351 511 351 506 q 352 522 351 517 q 353 532 353 526 q 349 547 353 540 q 347 587 351 567 q 347 625 342 606 q 345 639 345 631 q 347 652 345 647 q 347 669 347 663 q 347 681 347 674 q 346 703 347 692 q 342 722 345 713 l 334 709 z "},"5":{"ha":722,"x_min":68,"x_max":652,"o":"m 614 1010 q 617 1001 613 1004 q 621 991 621 998 q 618 982 621 986 q 614 971 616 978 l 595 951 q 581 930 585 935 q 578 922 581 924 q 575 916 575 921 q 562 900 564 902 q 559 892 559 898 q 544 873 551 876 q 534 861 537 871 q 526 857 529 860 q 518 853 524 854 q 505 834 509 840 q 495 825 502 829 l 481 818 q 461 804 468 808 q 448 795 454 799 q 432 790 437 789 q 423 789 427 791 q 405 787 407 785 q 400 788 403 788 q 387 786 389 785 q 381 787 384 787 q 371 785 376 787 q 363 785 366 784 q 350 789 351 789 q 346 791 349 788 q 333 791 340 789 q 321 796 326 793 q 308 798 312 796 q 296 799 304 799 q 280 810 290 807 q 267 825 270 814 q 260 827 263 825 q 254 831 256 829 q 240 844 247 837 q 225 854 233 850 q 219 862 222 859 q 213 868 216 865 q 204 871 206 868 q 197 875 202 873 q 184 886 187 884 q 174 888 180 888 q 176 800 184 842 q 182 772 179 781 q 179 755 184 762 q 184 741 182 750 q 180 727 186 732 q 182 715 183 715 q 182 712 180 715 q 183 680 183 692 q 182 658 183 669 q 181 640 182 642 q 180 636 180 639 q 182 621 183 621 q 182 617 182 620 q 182 600 183 602 q 182 595 182 598 q 182 582 182 590 q 182 566 183 574 q 178 538 180 547 q 178 524 175 530 q 184 530 183 525 q 187 538 184 536 q 198 552 197 547 q 209 566 209 564 q 210 568 209 567 q 220 578 220 579 q 222 579 221 578 q 231 589 229 587 q 231 593 232 590 q 243 601 240 600 q 247 609 247 602 q 260 614 254 610 q 270 621 266 617 q 282 627 277 623 q 296 632 288 631 q 304 633 300 633 q 315 635 309 633 l 332 637 q 348 640 339 637 q 363 635 357 642 q 371 637 366 637 q 380 639 376 636 q 394 635 387 636 q 410 632 401 635 q 445 625 431 629 q 464 618 458 618 q 471 614 469 618 q 479 613 475 614 q 486 610 483 612 q 492 606 488 609 q 498 601 496 604 q 519 590 510 597 q 540 578 528 583 q 548 565 547 566 q 552 563 549 564 q 573 542 567 553 q 587 521 579 530 q 597 510 593 515 q 605 495 602 505 q 614 483 612 487 q 620 476 617 479 q 624 458 618 465 q 627 445 629 452 q 634 422 631 427 q 640 411 637 416 q 642 393 640 397 q 647 382 644 388 q 648 368 648 376 q 652 353 648 359 q 650 336 648 339 q 652 331 652 334 q 651 319 652 324 q 650 307 650 313 q 650 296 648 301 q 652 283 652 290 q 648 267 647 270 q 647 258 650 263 q 639 229 646 235 q 632 212 632 222 q 623 193 625 197 q 618 186 621 190 q 614 177 616 179 q 610 171 612 175 q 598 155 600 157 q 594 151 597 153 q 583 134 589 142 q 571 125 578 126 q 567 117 572 118 q 564 109 562 115 q 551 98 556 106 q 538 85 545 91 q 524 76 528 79 q 518 69 521 73 q 497 60 505 62 q 487 52 490 58 q 477 48 480 52 q 467 45 473 45 q 458 37 464 38 q 449 30 452 35 q 439 29 442 31 q 435 24 437 27 q 430 18 433 20 q 422 16 427 16 q 416 6 416 9 q 412 1 415 3 q 399 -1 406 0 q 389 1 393 -1 q 365 -4 378 1 q 348 -10 353 -11 q 338 -11 343 -9 q 316 -18 321 -19 q 304 -18 311 -16 q 286 -18 290 -20 q 277 -16 282 -16 q 262 -17 270 -16 q 247 -19 255 -18 q 234 -16 233 -12 q 231 -18 235 -19 q 214 -14 222 -14 q 199 -8 205 -15 q 182 -3 193 -8 q 166 3 167 1 q 163 4 165 4 q 153 5 157 5 q 141 8 148 5 q 128 23 130 22 q 126 30 126 24 q 118 35 121 31 q 111 39 115 38 q 104 50 109 46 q 96 58 99 53 q 89 68 92 62 q 84 80 85 73 q 79 88 81 83 q 72 96 76 94 q 71 137 68 113 q 71 155 72 149 q 73 164 69 161 q 73 176 71 171 q 77 189 76 182 q 79 199 76 195 q 76 206 81 203 q 82 214 81 210 q 84 225 83 218 q 93 233 91 228 q 98 241 95 237 q 105 248 100 244 q 115 254 110 251 q 127 266 122 260 q 140 273 132 271 q 149 272 145 274 q 156 271 152 270 q 163 273 160 271 q 172 274 167 275 q 199 280 184 278 q 222 274 213 282 q 238 272 232 275 q 252 267 244 269 q 269 256 256 259 q 275 246 275 248 q 277 243 275 244 q 295 223 292 232 q 305 208 298 214 q 304 189 305 193 q 305 184 302 186 q 302 170 302 171 q 301 168 301 170 q 300 149 300 155 q 289 139 296 142 q 282 127 282 136 q 271 124 271 126 q 267 121 270 122 q 248 111 254 117 q 235 104 241 106 q 217 105 220 106 q 212 104 214 104 q 201 109 206 106 q 191 110 197 111 q 184 115 189 113 q 176 121 180 118 q 167 128 171 125 q 163 134 163 132 q 163 144 161 137 q 167 155 165 152 q 176 163 175 161 q 180 165 178 165 q 189 164 187 167 q 197 161 191 161 q 201 155 199 159 q 208 148 202 151 q 221 146 214 148 q 233 148 228 145 q 252 160 248 159 q 258 164 255 161 q 260 176 262 176 q 259 179 259 176 q 257 196 256 194 q 258 199 258 198 q 251 212 255 206 q 244 224 247 217 q 229 229 233 229 q 225 233 224 229 q 202 235 214 233 q 178 235 190 237 q 166 232 168 233 q 161 229 164 231 q 153 229 156 228 q 146 228 151 231 q 129 216 134 222 q 122 203 123 210 q 114 191 121 195 q 114 182 117 186 q 110 175 111 179 q 108 157 109 160 q 107 152 107 155 q 109 137 109 137 q 110 121 111 123 q 111 115 109 119 q 116 109 114 113 q 121 102 118 104 q 127 85 121 91 q 136 71 133 79 q 152 56 144 64 q 171 43 160 49 q 200 34 191 37 q 216 24 209 31 q 224 24 221 27 q 232 22 228 22 q 242 21 237 20 q 252 20 247 22 q 267 19 266 19 q 279 20 278 19 q 283 20 281 20 q 292 20 288 22 q 300 19 296 19 q 317 25 313 26 q 324 26 321 24 q 350 33 345 31 q 363 39 357 35 q 378 42 369 43 q 396 50 392 46 q 416 70 412 64 q 426 79 419 76 q 431 95 426 84 q 438 105 438 103 q 439 110 438 107 q 446 123 445 123 q 448 125 448 123 l 452 146 q 457 162 457 153 q 460 180 457 171 q 467 195 464 193 q 464 206 463 203 q 465 212 465 209 q 469 236 469 229 q 471 255 472 245 q 473 274 471 264 q 475 289 476 288 q 475 293 475 290 q 477 311 477 309 q 476 315 476 312 q 478 338 476 326 q 476 358 480 350 q 479 376 479 372 q 480 384 480 380 q 476 419 475 406 q 471 444 477 433 q 471 467 472 453 q 464 487 469 480 q 459 503 463 496 q 453 517 456 510 q 448 529 448 528 q 448 533 449 530 q 441 543 444 543 q 435 545 438 543 q 420 565 429 556 q 406 585 412 574 q 399 587 401 583 q 392 591 396 590 q 382 593 388 593 q 373 597 377 593 q 355 598 362 594 q 324 597 340 594 q 297 589 308 600 q 284 585 285 587 q 281 582 283 583 q 272 577 274 579 q 266 575 270 575 q 261 568 263 572 q 252 563 259 563 q 248 556 251 559 q 243 551 245 553 q 235 536 237 541 q 224 524 227 525 q 224 518 222 522 q 212 507 214 509 q 212 499 210 506 q 199 483 205 487 q 195 471 194 479 q 189 463 191 468 q 183 453 186 458 q 179 427 178 438 q 167 410 170 414 q 161 404 164 407 q 147 407 153 404 q 134 412 141 410 q 132 439 127 433 q 133 456 132 454 q 133 460 134 458 q 134 468 132 464 q 136 477 136 472 q 136 492 134 491 q 137 495 137 494 q 136 522 134 514 q 140 537 138 529 q 137 554 140 545 q 141 568 134 563 q 139 578 138 572 q 140 589 140 583 q 142 599 141 594 q 140 606 142 604 q 143 628 146 616 q 140 651 140 640 l 141 696 q 142 706 144 704 q 141 712 140 708 q 145 720 146 716 q 144 727 144 723 q 142 746 142 742 q 146 755 142 750 q 146 773 142 772 q 142 782 141 777 q 144 792 144 787 q 143 810 142 806 q 144 817 144 814 q 142 831 141 829 q 142 836 142 833 q 139 870 138 859 q 137 891 140 882 q 136 904 134 903 q 137 907 137 905 q 132 926 132 922 q 133 932 133 929 q 115 947 122 944 q 122 972 115 966 q 137 981 137 979 q 140 983 137 983 q 152 982 146 982 q 161 979 157 982 q 173 964 168 967 q 184 960 178 962 q 201 958 198 959 q 206 956 203 956 q 216 952 212 954 q 222 948 220 951 q 239 945 239 944 q 241 945 239 945 q 264 941 255 943 q 282 939 274 939 q 299 938 290 937 q 317 939 308 939 q 347 937 332 937 q 377 935 361 937 l 392 932 q 414 933 406 933 q 429 933 425 932 q 435 935 433 935 q 451 935 446 933 q 460 932 456 936 q 487 940 471 939 q 511 951 503 941 q 537 962 526 954 q 563 972 548 970 q 566 981 563 979 q 570 990 570 983 q 582 1005 579 991 q 589 1009 586 1006 q 595 1012 591 1012 q 605 1013 600 1015 q 614 1010 610 1010 z "},"6":{"ha":779,"x_min":83,"x_max":696,"o":"m 587 741 q 556 741 572 742 q 525 742 540 739 q 512 745 513 746 q 510 745 511 745 q 499 752 503 747 q 487 755 495 757 q 465 773 477 769 q 450 808 452 796 q 445 831 448 819 q 450 840 448 836 q 450 852 452 845 q 461 868 461 865 q 463 873 461 871 q 476 880 473 878 q 486 890 483 888 q 494 895 490 892 q 504 895 499 895 q 511 899 509 895 q 531 891 526 894 q 543 886 536 888 q 545 878 541 879 q 553 873 549 876 q 550 853 555 857 q 541 844 545 849 q 534 845 537 844 q 525 845 530 846 q 519 850 521 848 q 513 854 517 853 q 501 850 505 854 q 491 844 498 845 q 488 823 487 829 q 491 812 488 818 q 499 802 496 804 q 503 796 502 800 q 519 789 514 792 q 525 784 522 787 q 530 779 528 781 q 547 777 544 776 q 552 777 549 777 q 564 774 563 776 q 568 774 566 773 q 581 781 575 776 q 595 787 586 787 q 608 800 602 798 q 613 811 613 803 q 622 819 620 817 q 627 825 624 822 q 632 841 632 838 q 633 845 632 844 q 636 863 635 861 q 635 869 637 865 q 629 880 632 875 q 624 892 627 886 q 616 910 621 906 q 615 920 617 917 q 610 926 613 924 q 600 932 604 929 q 595 944 595 936 q 585 949 589 947 q 579 960 581 952 q 560 968 568 962 q 545 971 548 971 q 540 972 543 971 q 532 976 536 975 q 522 979 529 977 q 510 982 514 982 q 500 983 506 982 q 489 987 496 985 q 473 989 481 989 q 455 987 460 986 q 446 987 450 987 q 433 988 439 989 q 415 986 426 987 q 399 985 400 985 q 377 979 381 979 q 370 978 373 979 q 360 972 365 975 q 350 966 355 968 q 333 954 335 958 q 327 947 331 949 q 321 942 326 944 q 317 935 317 940 q 305 920 307 921 q 301 918 304 920 q 290 891 301 905 q 286 873 288 878 q 285 863 285 869 q 278 850 279 853 q 275 845 277 848 q 269 827 269 830 q 266 818 269 823 q 262 800 262 802 q 260 774 262 781 q 256 758 259 766 q 254 739 252 743 q 255 728 256 734 q 251 710 250 713 q 252 704 252 707 q 254 682 254 685 q 251 661 251 674 q 250 621 248 635 q 245 594 252 606 q 256 594 252 590 q 263 601 259 598 l 263 616 q 280 620 277 618 q 285 625 283 621 q 300 631 298 631 q 302 632 301 631 q 322 642 313 642 q 335 647 331 643 q 345 651 338 651 q 353 656 351 651 q 371 662 366 661 q 391 665 376 663 q 403 666 396 663 q 415 669 410 669 q 434 668 429 667 q 445 669 439 669 q 473 662 460 667 q 499 652 486 656 q 517 647 510 648 q 532 635 532 642 q 545 630 538 633 q 557 624 551 627 q 569 615 567 618 q 575 614 571 612 q 591 600 587 605 q 602 595 594 595 q 620 578 614 585 q 633 566 625 571 q 646 541 637 551 q 656 515 655 532 q 668 494 665 499 q 673 484 671 490 q 677 470 675 471 q 678 467 678 469 q 682 445 682 448 q 683 438 684 442 q 682 430 682 434 q 685 422 684 426 q 688 414 686 418 q 689 401 688 401 q 690 399 690 400 q 688 383 688 388 q 690 374 689 378 q 692 366 690 370 q 696 358 694 362 q 693 336 693 343 q 692 321 693 328 q 692 310 692 315 q 693 300 693 305 q 690 271 693 285 q 684 244 686 258 q 678 230 677 232 q 680 224 680 228 q 667 193 673 209 q 652 165 662 176 q 646 148 647 152 q 640 142 644 144 q 632 123 640 127 q 621 107 624 118 q 610 100 614 104 q 600 94 606 96 q 598 81 601 85 q 591 72 595 76 q 581 63 586 68 q 575 53 576 58 q 559 45 559 47 q 542 39 545 41 q 540 30 538 37 q 528 18 529 19 q 518 10 521 15 q 510 7 515 5 q 492 -5 500 -4 q 480 -9 483 -5 q 471 -11 473 -11 q 463 -9 469 -11 q 456 -15 458 -11 q 450 -22 453 -19 q 437 -26 444 -24 q 426 -31 430 -27 q 414 -30 422 -28 q 404 -27 407 -31 q 395 -32 397 -31 q 385 -33 392 -33 q 376 -36 381 -35 q 366 -39 372 -37 q 359 -36 363 -41 q 353 -33 355 -31 q 338 -33 339 -30 q 296 -22 309 -33 q 269 -9 282 -12 q 256 2 258 4 q 251 1 255 0 q 238 14 244 8 q 224 24 232 19 q 195 60 205 46 q 174 85 186 73 q 167 102 170 100 q 161 106 164 103 q 154 119 153 117 q 152 119 155 121 q 143 142 151 134 q 134 165 136 151 q 125 182 127 172 q 118 203 123 193 q 111 221 111 218 q 109 246 111 240 q 110 256 107 252 q 104 271 104 262 q 99 286 103 279 q 100 293 98 289 q 100 301 103 297 q 97 315 99 312 q 94 321 95 317 q 93 334 92 327 q 92 347 94 340 q 92 363 91 363 q 92 366 92 363 q 88 395 88 385 q 83 411 88 404 q 86 417 84 414 q 91 425 88 420 q 87 435 85 429 q 91 446 90 441 q 85 471 84 460 q 85 486 85 481 l 85 513 q 85 521 85 515 q 88 529 84 526 q 87 549 83 538 q 92 570 91 559 q 93 589 90 585 q 96 601 96 594 q 96 608 96 604 q 96 617 95 612 q 96 630 95 628 q 96 633 96 632 q 103 651 99 652 q 102 678 99 671 q 102 694 104 685 q 107 713 109 712 q 117 745 115 728 q 121 764 118 754 q 127 783 127 777 q 129 792 127 788 q 134 802 134 800 q 136 806 134 804 q 153 834 149 823 q 159 845 155 841 q 163 853 163 849 q 174 867 171 865 q 178 871 176 869 q 188 887 186 886 q 191 891 190 888 q 203 908 199 906 q 209 916 208 910 q 219 922 216 918 q 227 930 222 926 q 235 938 235 936 q 239 943 236 940 q 251 954 244 949 q 264 960 258 958 q 275 972 270 967 q 288 981 279 978 q 313 997 307 991 q 334 1004 320 1002 q 354 1016 350 1012 q 361 1018 357 1017 q 370 1021 366 1019 q 377 1023 373 1023 q 387 1024 381 1023 q 401 1026 399 1027 q 406 1025 403 1025 q 422 1027 414 1025 q 438 1029 430 1029 q 466 1029 457 1028 q 481 1024 475 1031 q 516 1023 500 1028 q 551 1016 532 1017 q 562 1008 555 1009 q 571 1000 568 1006 q 578 997 576 1000 q 587 997 581 994 q 600 986 597 990 q 610 981 604 982 q 614 974 610 977 q 621 968 618 971 q 626 963 624 966 q 633 958 628 960 q 644 943 636 947 q 646 935 643 939 q 652 929 650 932 q 661 911 654 916 q 663 902 659 906 q 669 894 667 898 q 671 879 670 888 q 673 863 673 869 q 668 840 671 848 q 665 826 665 833 q 658 812 659 817 q 649 799 651 807 q 639 788 647 791 l 627 772 q 617 758 620 761 q 610 753 614 755 q 594 747 597 749 q 589 747 591 746 l 587 741 m 339 11 q 356 7 350 5 q 368 5 362 8 q 378 8 372 8 q 391 9 384 8 q 399 11 395 9 q 408 14 404 12 q 417 13 412 14 q 427 14 422 12 q 444 17 434 14 q 456 23 453 20 q 475 41 471 34 q 490 50 480 47 q 511 98 503 69 q 516 104 514 100 q 519 111 518 107 q 522 123 519 121 q 526 129 524 126 q 526 148 524 137 q 532 165 529 159 q 532 176 532 171 q 536 180 532 180 q 537 209 540 198 q 540 228 540 228 q 542 242 543 240 q 541 247 541 244 q 542 263 543 258 q 541 273 541 269 q 547 296 547 290 q 546 307 547 301 q 545 319 545 313 q 548 331 545 326 q 546 351 547 345 q 545 361 545 357 q 545 378 547 373 q 544 388 544 382 q 544 406 544 401 q 541 414 544 411 q 537 444 543 438 q 541 457 543 449 q 537 471 538 465 q 530 506 534 499 q 523 531 525 521 q 514 547 521 541 q 509 560 509 557 q 507 566 509 563 q 491 584 495 579 q 483 591 487 589 q 475 597 477 597 q 471 601 473 598 q 454 618 457 613 q 446 625 452 623 q 407 627 423 628 q 392 625 396 627 l 377 623 q 368 624 370 623 q 362 623 365 625 q 355 616 358 620 q 346 614 353 613 q 328 602 331 602 q 312 585 316 587 q 305 578 308 582 q 289 570 294 572 q 277 566 283 568 q 267 548 269 552 q 263 541 266 544 q 258 534 260 538 q 252 529 256 530 q 249 519 252 522 q 244 510 245 515 q 248 488 247 491 q 248 483 248 486 q 247 451 250 460 q 245 431 244 442 q 248 417 248 419 q 247 412 247 415 q 246 399 244 399 q 248 397 248 400 q 247 372 245 382 q 244 355 248 362 q 248 340 250 349 q 248 324 247 332 q 251 317 250 321 q 254 308 252 312 q 252 289 251 294 q 252 278 252 283 q 255 264 254 271 q 256 252 256 258 q 257 239 258 245 q 258 225 256 232 q 264 207 260 216 q 264 189 267 198 q 267 178 266 180 q 266 171 269 175 q 273 155 274 167 q 275 137 273 142 q 279 123 279 126 q 281 115 279 119 q 283 98 281 102 q 286 90 285 94 q 292 71 289 75 q 296 62 294 66 q 299 52 297 52 q 302 49 301 52 q 305 41 302 43 q 309 34 308 39 q 321 27 316 31 q 332 20 326 23 l 339 11 z "},"7":{"ha":616,"x_min":41,"x_max":616,"o":"m 613 1016 q 613 1004 612 1006 q 616 1000 614 1002 q 608 976 610 989 q 598 952 606 963 q 597 939 598 939 q 595 937 595 939 q 591 921 590 921 q 591 918 591 921 q 587 906 586 910 q 583 899 587 902 q 578 882 578 888 q 576 872 579 876 q 582 852 583 861 q 576 830 581 844 q 566 821 570 827 q 556 812 563 815 q 551 799 552 802 q 545 798 551 796 q 538 784 540 788 q 532 779 537 780 q 522 764 529 770 q 511 751 513 751 q 509 750 510 751 q 498 736 498 739 q 495 736 498 734 q 488 722 488 726 q 484 716 487 719 q 478 707 481 712 q 471 697 475 703 q 460 678 465 681 q 456 669 454 675 q 444 657 444 662 q 442 648 445 652 q 429 628 431 635 q 420 618 427 621 q 418 597 419 605 q 414 583 416 590 q 411 568 411 576 q 411 551 411 559 q 404 522 406 536 q 400 498 403 509 q 397 484 395 486 q 399 477 399 481 q 397 467 399 472 q 393 457 395 463 q 393 444 392 450 q 392 427 393 437 q 387 407 391 416 q 387 382 384 397 q 382 372 380 373 q 384 368 385 372 q 381 359 381 361 q 378 351 381 357 q 385 336 380 343 q 382 328 382 334 q 380 315 382 321 q 379 300 377 304 q 380 289 381 296 q 378 275 377 275 q 378 271 378 274 q 378 261 377 263 q 380 256 380 259 q 380 225 382 239 q 378 201 377 210 q 378 184 378 191 q 381 168 380 175 q 388 156 382 161 q 390 139 385 146 q 392 123 395 132 q 387 116 391 118 q 382 107 384 114 q 371 100 372 103 q 368 100 370 98 q 363 92 365 96 q 359 81 361 88 q 347 71 351 75 q 340 60 343 66 q 333 56 336 58 q 327 53 330 54 q 323 47 324 50 q 320 39 321 45 q 308 26 315 37 q 294 14 296 16 q 292 11 293 12 q 284 -1 285 1 q 281 -4 283 -3 q 281 -12 283 -11 q 278 -19 278 -14 q 270 -24 274 -22 q 262 -30 266 -26 q 247 -22 250 -24 q 234 -4 236 -12 q 240 7 232 4 q 246 20 245 16 q 250 23 247 23 q 243 50 243 43 q 239 60 244 56 q 238 72 240 66 q 233 84 236 77 q 230 92 231 88 q 225 99 229 96 q 226 109 228 103 q 224 121 224 114 q 223 140 225 136 q 225 146 221 144 q 222 155 222 151 q 222 163 222 159 q 224 180 222 178 q 225 184 225 182 q 225 201 224 199 q 227 205 227 202 q 226 228 228 217 q 231 251 224 239 q 229 262 228 255 q 233 273 231 270 l 233 289 q 235 302 236 301 q 235 307 235 304 q 235 317 236 315 q 235 323 235 320 q 236 332 235 327 q 239 342 237 336 q 240 351 240 346 q 240 359 240 355 q 245 387 245 381 q 248 399 245 393 q 252 410 251 408 q 254 415 254 412 q 256 427 256 422 q 262 437 255 433 q 262 448 256 444 q 264 463 267 453 q 271 473 269 471 q 274 479 273 476 q 278 496 274 492 q 282 513 282 509 q 287 526 285 519 q 293 540 289 533 q 304 559 301 548 q 316 579 312 571 q 326 593 324 591 q 327 597 327 594 q 336 609 331 598 q 346 621 345 617 q 354 636 351 636 q 359 645 355 640 q 368 654 363 650 q 381 669 377 666 q 387 678 385 673 q 399 691 397 690 q 403 694 400 692 q 412 706 411 704 q 416 712 414 708 q 426 723 422 719 q 435 728 430 727 q 444 743 442 742 q 449 746 446 743 q 471 770 467 762 q 484 787 484 783 q 497 800 494 791 q 509 812 500 808 q 511 821 509 818 q 511 830 513 823 q 496 823 503 825 q 486 817 488 822 q 463 814 473 817 q 442 817 453 811 q 420 819 429 818 q 407 826 412 821 q 397 827 399 825 q 392 830 395 829 q 384 832 385 829 q 377 833 382 836 q 370 841 374 837 q 362 850 365 845 q 346 857 351 852 q 334 868 340 863 q 315 882 324 879 q 302 895 305 886 q 296 902 298 898 q 290 909 293 906 q 284 915 288 913 q 281 922 281 917 q 267 935 274 926 q 250 950 254 945 q 239 960 245 955 q 230 970 229 968 q 229 974 231 972 q 212 979 218 977 q 198 981 205 981 q 186 980 191 982 q 175 981 182 978 q 161 977 168 978 q 149 972 155 975 q 138 960 141 967 q 129 954 129 956 q 126 948 129 951 q 117 934 118 935 q 114 932 115 933 q 109 926 111 929 q 103 920 107 922 q 100 901 102 905 q 96 891 99 898 q 91 878 94 884 q 84 864 88 871 q 81 850 81 852 q 79 845 81 848 q 81 827 80 827 q 79 806 80 817 q 80 787 77 796 q 83 777 81 781 q 85 768 84 772 q 94 750 92 757 q 106 743 103 742 q 111 743 109 743 q 123 743 118 743 q 137 745 129 742 q 146 746 141 746 q 153 747 151 746 q 168 755 165 754 q 171 757 170 755 q 181 768 180 765 q 184 769 182 770 q 186 795 187 783 q 182 817 186 807 q 174 828 178 822 q 170 841 170 834 q 184 861 179 857 q 193 868 189 865 q 208 862 203 867 q 217 852 212 857 q 218 838 217 840 q 221 833 220 836 q 226 819 227 821 q 225 814 225 817 q 231 787 232 793 q 227 770 229 780 l 221 755 q 216 748 218 750 q 212 742 214 746 q 192 724 195 730 q 179 719 189 719 q 167 711 176 712 q 151 705 157 711 q 134 705 136 708 q 127 703 133 703 q 88 704 104 700 q 78 711 81 707 q 68 718 75 715 q 58 738 61 734 q 53 745 56 742 q 48 762 50 760 q 43 768 46 765 q 44 775 46 772 q 42 784 42 779 q 42 810 43 802 q 43 829 41 819 q 45 844 43 838 q 43 852 46 850 q 48 860 46 856 q 54 867 50 864 q 56 884 53 882 q 58 894 57 888 q 64 901 60 899 q 71 920 62 914 q 79 940 79 926 q 96 968 88 962 q 107 987 104 974 q 117 994 114 987 q 126 1004 119 1000 q 148 1013 138 1010 q 164 1021 157 1015 q 194 1021 179 1020 q 222 1019 209 1021 q 235 1013 233 1012 q 240 1015 237 1015 q 246 1010 243 1012 q 254 1008 250 1008 q 264 996 255 1002 q 279 984 278 985 q 281 981 281 983 q 297 967 293 972 q 308 959 301 962 q 317 943 311 948 q 330 933 323 937 q 345 913 340 918 q 354 906 349 909 q 372 891 366 898 q 385 884 377 890 q 405 873 400 878 q 416 865 410 868 q 434 861 429 860 q 444 857 439 861 q 460 857 457 857 q 467 854 464 856 q 480 859 473 857 q 494 863 487 860 q 522 882 511 873 q 534 895 533 894 q 540 906 540 903 q 541 911 540 909 q 552 924 551 924 q 555 933 556 929 q 559 940 553 937 q 566 972 564 960 q 574 996 568 985 q 573 1008 571 1002 q 578 1020 575 1013 q 594 1027 593 1025 q 600 1028 595 1028 q 608 1023 605 1027 q 613 1016 610 1019 z "},"8":{"ha":779,"x_min":65,"x_max":709,"o":"m 578 568 q 562 561 564 564 q 556 555 559 557 q 544 543 544 551 q 547 528 547 529 q 553 526 548 526 q 568 513 566 515 q 575 509 570 510 q 587 498 587 499 q 587 494 586 496 q 617 476 605 481 q 627 460 627 464 q 652 437 646 448 q 665 416 658 427 q 671 410 669 414 q 675 401 673 406 q 686 387 686 389 q 686 381 685 384 q 697 368 693 366 q 697 357 694 361 q 701 350 700 354 q 704 340 704 345 q 705 328 704 336 q 707 317 708 319 q 707 312 707 315 q 708 300 709 302 q 707 294 707 297 q 707 278 708 279 q 707 274 707 277 q 703 259 705 263 q 700 250 701 255 q 701 241 700 245 q 700 235 701 237 q 693 210 693 218 q 686 195 693 202 q 685 188 686 191 q 682 180 684 184 q 673 157 675 163 q 665 149 671 151 q 656 132 662 137 q 644 118 650 126 q 633 109 633 110 q 632 104 633 107 q 620 98 620 100 q 618 95 620 96 q 597 77 602 79 q 585 63 587 68 q 576 56 583 58 q 568 45 571 49 q 559 39 564 42 q 542 36 544 39 q 536 31 540 33 q 522 25 524 28 q 515 19 519 22 q 500 11 502 14 q 488 1 488 1 q 480 -1 484 -3 q 475 -5 476 0 q 467 -6 471 -3 q 458 -11 463 -9 q 444 -12 452 -14 q 430 -14 437 -11 q 418 -18 425 -16 q 404 -22 411 -19 q 395 -23 400 -23 q 382 -24 389 -23 q 366 -30 374 -24 q 351 -33 354 -31 q 342 -34 347 -34 q 326 -35 331 -33 q 311 -34 315 -33 q 305 -35 308 -35 q 297 -34 301 -35 q 289 -35 293 -33 q 271 -28 275 -30 q 263 -26 267 -27 q 244 -19 247 -20 q 239 -18 241 -18 q 229 -8 236 -11 q 217 1 221 -5 q 199 8 203 7 q 190 12 194 9 q 175 22 184 20 l 156 31 q 150 38 157 38 q 144 45 142 38 q 137 48 138 45 q 130 52 136 52 q 123 62 127 58 q 111 69 118 65 q 102 85 103 84 q 99 90 100 87 q 94 117 92 107 q 83 129 95 126 q 80 141 80 134 q 76 151 80 148 q 75 159 77 157 q 69 164 72 161 q 68 180 66 179 q 68 184 69 182 q 66 198 65 194 q 66 205 66 202 q 65 224 65 221 q 68 229 65 227 q 66 249 68 240 q 66 267 65 258 q 71 288 68 281 q 76 300 75 294 q 81 317 81 311 q 92 342 85 335 q 95 355 98 349 q 102 369 100 366 q 106 374 103 372 q 111 393 106 385 q 113 400 113 395 q 114 408 113 406 q 125 419 123 418 q 126 425 126 420 q 139 438 137 437 q 140 445 141 439 q 158 456 157 453 q 161 463 159 460 q 170 469 167 465 q 176 477 174 473 q 190 494 187 486 q 203 500 199 499 q 209 503 206 500 l 221 515 q 209 524 212 524 q 203 526 206 524 q 183 544 191 536 q 168 559 175 552 q 155 576 160 570 q 144 586 151 582 q 133 600 134 598 q 134 604 132 601 q 125 614 129 613 q 119 617 121 614 q 115 629 117 627 q 110 635 113 632 q 108 648 110 650 q 103 650 106 647 q 102 657 106 654 q 102 667 99 661 q 94 684 99 678 q 91 696 90 689 q 83 720 84 705 q 88 745 81 734 q 88 762 83 754 q 94 777 92 777 q 98 793 98 787 q 100 806 98 800 q 107 819 109 817 q 107 823 106 821 q 122 847 118 831 q 137 869 126 863 q 149 889 140 883 q 160 909 157 895 q 176 921 170 918 q 185 937 180 932 q 194 944 190 941 q 205 958 203 956 q 209 962 208 959 q 217 966 214 963 q 225 971 220 970 q 237 981 235 978 q 247 987 244 986 q 251 991 250 987 q 277 1008 264 1004 q 300 1019 289 1012 q 316 1023 316 1021 q 332 1027 331 1028 q 335 1027 332 1027 q 351 1033 350 1034 q 355 1032 353 1032 q 368 1036 362 1034 q 382 1035 374 1039 q 400 1038 391 1040 q 418 1034 410 1035 q 444 1028 438 1031 q 455 1027 453 1029 q 460 1024 457 1025 q 474 1018 471 1021 q 483 1012 477 1015 q 496 1006 494 1008 q 502 1002 499 1004 q 515 994 514 996 q 526 986 524 987 q 533 983 529 985 q 547 972 544 977 q 559 967 551 967 l 572 956 q 593 938 586 947 q 614 926 600 929 q 629 907 621 916 q 633 901 632 905 q 639 895 635 898 q 642 884 639 888 q 648 875 646 880 q 656 859 656 861 q 656 853 655 856 q 663 839 663 841 q 662 836 662 837 q 665 827 662 830 q 669 818 667 825 q 669 804 670 811 q 669 789 667 798 q 669 771 667 773 q 670 766 670 769 q 669 759 670 764 q 669 749 669 754 q 665 725 665 732 q 662 713 665 718 q 659 690 662 701 q 656 679 655 681 q 655 674 656 677 q 652 666 652 671 q 648 659 651 661 q 642 643 647 646 q 639 633 636 640 q 630 623 633 629 q 620 613 627 616 q 614 602 614 604 q 612 600 613 601 q 598 587 598 589 q 597 583 598 586 q 588 580 590 583 q 579 576 586 576 l 578 568 m 423 996 q 396 998 412 996 q 366 997 380 1001 q 350 988 351 987 q 346 989 349 989 q 331 982 334 985 q 321 977 323 979 q 317 974 320 975 q 306 965 308 964 q 301 964 304 966 q 298 954 298 956 q 296 949 297 951 q 277 924 282 932 q 269 909 273 916 q 262 901 266 903 q 258 891 258 898 q 247 877 248 878 q 245 873 245 876 q 243 862 243 868 q 243 852 244 856 q 239 840 239 842 q 240 834 240 837 q 237 820 239 823 q 235 814 236 817 q 239 799 240 808 q 243 783 239 789 q 242 768 241 772 q 244 761 243 764 q 247 753 245 757 q 248 743 248 749 q 257 738 255 742 q 264 731 259 734 q 273 714 270 719 q 285 709 277 709 q 290 703 286 705 q 293 696 293 701 q 312 684 308 686 q 320 680 316 682 l 335 669 q 342 662 339 665 q 350 656 346 659 q 358 651 354 654 q 365 643 362 648 q 385 635 380 636 q 391 628 389 633 q 406 621 401 627 q 420 614 411 616 q 435 597 427 605 q 457 589 442 590 q 481 573 472 578 q 500 566 490 568 q 503 574 505 570 q 509 581 502 578 q 524 585 521 583 q 530 586 526 587 q 536 592 533 589 q 544 595 538 595 q 549 602 545 600 q 557 605 553 604 q 566 612 564 610 q 571 613 568 613 q 578 624 574 620 q 587 631 582 628 q 594 641 594 639 q 595 646 594 643 q 601 652 598 648 q 606 658 604 655 q 608 666 605 663 q 609 673 610 669 q 616 684 613 680 q 621 692 620 688 q 622 711 620 707 q 625 719 624 715 q 626 730 627 726 q 625 738 625 735 q 629 768 628 760 q 627 780 629 776 q 625 795 627 792 q 625 806 623 799 q 622 813 621 808 q 618 821 623 818 q 619 832 620 829 q 616 838 618 836 q 616 846 618 842 q 616 854 614 850 q 606 865 609 863 q 605 871 604 867 l 594 882 q 586 890 589 887 q 585 895 583 892 q 578 901 581 898 q 572 905 575 903 q 558 916 564 911 q 547 922 552 920 q 540 932 540 930 q 537 935 540 933 q 522 939 522 937 q 519 941 522 941 l 505 951 q 481 958 492 956 q 461 970 469 960 q 445 989 446 983 q 433 992 439 991 q 423 996 427 993 m 241 476 q 198 445 213 465 q 184 435 187 437 q 182 427 180 434 q 167 411 168 415 q 160 406 165 407 q 156 398 157 401 q 149 393 155 395 q 149 385 151 388 q 148 377 148 382 q 132 351 140 358 q 126 332 125 345 q 121 323 121 330 q 115 315 121 316 q 109 286 113 300 q 106 262 107 270 q 104 247 106 255 q 104 229 103 236 q 106 214 104 222 q 106 191 106 201 l 110 164 q 123 132 114 144 q 134 112 133 117 q 141 104 136 107 q 148 92 142 96 q 156 81 153 88 q 172 70 167 79 q 191 58 178 61 q 214 41 208 50 q 229 35 225 37 q 237 31 233 34 q 246 25 241 27 q 255 20 251 23 q 270 14 267 12 q 278 14 273 15 q 290 7 283 7 q 305 7 296 7 q 316 5 311 7 q 324 4 321 4 q 338 6 338 7 q 342 5 339 5 q 349 7 346 5 q 357 11 353 9 q 387 13 380 12 q 403 15 395 14 q 432 22 423 19 q 452 27 441 26 q 468 39 464 39 q 475 41 472 39 q 493 52 488 52 q 500 56 498 53 q 513 66 507 60 q 529 72 518 72 q 540 84 536 83 q 544 92 543 88 q 552 95 545 95 q 566 109 564 104 q 574 115 568 113 q 578 125 575 122 q 582 134 582 127 q 591 146 590 142 q 593 152 591 149 q 597 164 598 163 q 597 167 597 165 q 602 177 601 174 q 601 183 602 180 q 605 195 605 189 q 606 209 605 202 q 610 226 612 224 q 609 231 609 228 q 609 252 612 247 q 605 263 606 256 q 600 281 602 277 q 597 292 597 285 q 588 302 590 294 q 582 315 586 309 q 572 346 574 334 q 553 357 562 349 q 538 369 545 365 q 533 374 536 372 q 528 380 530 376 q 511 391 515 381 q 502 393 505 389 q 494 399 499 396 q 479 401 484 397 q 469 406 473 404 q 462 408 467 408 q 454 410 457 407 l 433 418 q 418 425 426 422 q 399 430 410 429 l 382 438 q 369 445 376 445 q 355 452 362 445 q 343 456 345 453 q 338 458 342 458 q 326 460 330 457 q 317 468 321 464 q 304 468 311 467 q 292 472 298 469 q 281 477 286 475 q 275 483 277 479 q 262 486 267 483 q 252 494 258 490 q 245 485 247 488 q 241 476 243 481 z "},"9":{"ha":791,"x_min":81,"x_max":707,"o":"m 662 806 q 675 796 671 796 q 678 789 675 791 q 684 783 681 787 q 687 759 686 772 q 693 738 688 746 q 695 720 694 727 q 699 709 696 713 q 697 694 696 697 q 701 682 701 684 q 703 677 700 680 q 705 655 705 663 q 703 642 704 647 q 705 617 707 625 q 704 601 704 609 q 705 582 704 591 q 705 559 705 572 q 705 530 707 540 q 701 509 703 521 q 701 500 701 505 q 700 491 700 495 q 701 476 700 484 q 700 461 701 468 q 699 453 700 457 q 697 446 697 449 q 696 429 696 441 q 691 416 690 416 q 692 412 692 415 q 694 406 692 410 q 697 397 697 401 q 695 391 696 395 q 690 384 694 387 q 692 366 693 377 q 689 353 690 361 q 685 338 688 345 q 683 325 682 326 q 684 323 684 324 l 681 307 q 678 281 678 294 q 673 269 677 274 q 671 256 670 264 q 667 245 671 250 q 665 233 663 241 q 663 228 662 232 q 661 218 663 224 q 656 203 656 209 q 655 191 656 197 q 642 169 646 176 q 635 155 637 161 q 616 134 621 140 q 605 121 612 127 q 597 110 598 111 q 595 106 595 109 q 583 92 589 99 q 574 76 578 85 q 562 70 566 71 q 560 64 559 69 q 549 56 553 61 q 536 52 544 52 q 530 45 532 49 q 525 37 528 41 q 509 27 510 30 q 507 22 509 24 q 488 11 494 19 q 469 6 472 8 q 463 1 467 4 q 455 -1 460 -1 q 449 -7 450 -1 q 439 -7 442 -5 q 431 -11 435 -8 q 422 -9 427 -8 q 414 -12 416 -11 q 390 -14 399 -12 q 370 -19 381 -16 l 351 -22 q 341 -24 343 -26 q 336 -23 339 -23 q 323 -24 327 -24 q 315 -26 320 -23 q 300 -24 311 -23 q 283 -22 290 -24 q 269 -16 271 -16 q 261 -14 266 -15 q 252 -11 256 -14 q 234 -7 237 -7 q 227 -5 231 -8 q 216 0 218 -3 q 209 4 214 3 q 196 12 197 9 q 193 15 195 14 q 176 20 178 18 q 172 23 175 22 q 164 27 165 22 q 157 33 163 33 q 134 57 142 53 q 126 72 133 65 q 119 82 121 79 q 114 90 117 85 q 113 98 117 95 q 110 107 110 102 q 111 132 111 122 q 111 149 110 141 q 114 172 114 165 q 114 186 114 179 q 121 200 118 193 q 132 213 125 208 q 134 222 132 218 q 137 231 137 225 q 146 239 144 233 q 153 248 149 245 q 174 263 170 258 q 194 272 189 269 q 206 281 199 275 q 233 277 227 278 q 243 277 237 277 q 251 275 248 277 q 260 271 255 274 q 269 271 264 269 q 289 261 285 263 q 296 258 293 259 q 310 239 305 247 q 321 225 315 232 q 320 216 319 218 q 324 208 321 213 q 326 190 324 194 q 330 183 327 186 q 323 157 330 164 q 315 140 316 151 q 306 133 305 134 q 304 127 307 132 q 287 116 289 119 q 282 115 285 113 q 255 106 266 109 q 233 107 244 104 q 227 112 229 109 q 218 115 224 115 q 214 124 218 122 q 206 130 209 126 q 208 146 210 138 q 206 160 205 153 q 217 174 214 168 q 227 179 220 179 q 234 170 232 171 q 235 164 236 170 q 244 157 240 161 q 252 149 248 153 q 267 153 260 151 q 274 163 273 156 q 281 187 281 175 q 277 212 282 199 q 271 219 274 216 q 266 227 269 222 q 251 229 256 227 q 240 235 245 232 q 221 236 225 235 q 213 239 217 237 q 199 233 206 235 q 190 224 193 231 q 176 216 180 221 q 164 208 171 210 q 163 197 167 201 q 159 190 160 194 q 155 174 155 178 q 153 165 156 170 q 146 149 146 152 q 147 132 144 142 q 153 114 151 121 q 156 99 156 104 q 165 78 157 83 q 179 68 172 73 q 187 53 187 60 q 208 45 202 49 q 218 45 213 42 q 228 38 224 42 q 240 35 232 34 q 249 28 241 28 q 263 24 256 27 q 277 20 273 20 q 286 19 282 20 q 307 14 304 14 q 315 16 311 15 q 333 16 324 15 q 346 18 342 16 q 360 21 358 20 q 365 23 362 22 q 387 22 377 19 q 408 24 396 24 q 417 31 414 27 q 427 34 420 34 q 427 48 433 49 q 423 53 422 47 q 436 58 433 50 q 450 64 439 65 q 460 75 461 73 q 461 77 460 76 q 468 92 468 88 q 483 113 476 107 q 494 134 491 132 q 501 148 500 142 q 506 156 502 153 q 508 168 506 163 q 511 179 510 172 q 518 196 517 194 q 519 201 519 198 q 522 224 519 220 q 522 235 525 229 q 526 249 525 245 q 524 255 528 252 q 529 271 529 269 q 526 274 529 273 q 528 283 529 278 q 526 294 526 289 q 529 304 530 300 q 529 311 528 308 q 530 323 529 315 q 532 338 530 331 q 532 345 532 340 q 533 353 533 350 q 531 363 533 358 q 530 378 529 369 q 529 395 528 395 q 530 397 530 395 q 530 406 530 401 q 529 414 529 410 q 520 410 522 414 q 515 401 518 406 q 494 387 496 392 q 474 373 477 377 q 465 366 471 369 q 449 357 454 357 q 434 346 442 353 q 415 342 426 339 q 386 334 396 335 q 362 330 376 334 q 339 335 354 336 q 315 340 324 334 q 306 340 308 338 q 298 339 304 343 q 285 345 292 342 q 270 350 278 347 q 254 362 264 357 q 240 374 241 372 q 236 380 239 377 q 216 396 224 392 q 207 407 210 403 q 198 414 203 411 q 187 429 191 426 q 180 435 183 431 q 168 448 170 446 q 168 452 167 449 q 153 467 155 461 q 146 477 152 473 q 140 492 142 490 q 137 498 138 495 q 130 508 132 502 q 126 517 129 514 q 124 526 126 525 q 119 530 122 528 q 117 538 119 536 q 115 548 115 541 q 111 554 115 552 q 106 560 107 556 q 103 572 104 566 q 98 582 102 579 q 95 597 98 595 q 90 602 92 600 q 86 637 91 617 q 83 675 81 658 q 85 695 83 688 q 91 705 88 703 q 88 715 85 711 q 91 727 91 720 q 90 741 90 736 q 91 747 91 745 q 96 767 95 762 q 99 777 98 772 q 106 795 104 789 q 109 807 109 800 q 113 819 111 818 q 115 823 115 821 q 125 844 122 840 q 130 854 127 848 l 136 875 q 143 884 142 876 q 151 895 144 892 q 167 918 161 907 q 172 924 170 921 q 175 932 175 926 q 202 951 194 944 q 217 967 210 959 q 226 970 222 967 q 233 977 229 974 q 254 984 248 982 q 263 991 259 986 q 279 995 275 994 q 285 997 282 996 q 301 1008 297 1005 q 308 1011 304 1010 q 315 1016 312 1012 q 327 1019 316 1017 q 342 1021 338 1021 q 355 1022 355 1023 q 358 1021 355 1021 q 366 1023 361 1021 q 377 1021 370 1024 q 405 1017 396 1019 q 420 1009 414 1016 q 433 1008 431 1010 q 438 1005 434 1006 q 446 1004 442 1008 q 457 1004 450 1001 q 469 1000 468 997 q 475 1001 469 1002 q 490 997 488 996 q 501 991 498 993 q 507 987 505 990 q 530 974 525 985 q 550 965 543 967 q 564 959 557 963 q 578 944 575 948 q 586 937 581 940 q 588 930 586 933 q 591 922 590 926 q 602 911 598 913 q 606 903 606 910 q 630 880 623 895 q 647 850 637 864 q 654 829 651 836 q 662 817 658 823 l 662 806 m 465 921 q 446 940 454 936 q 427 949 429 947 q 423 952 425 952 q 406 962 408 962 q 401 963 404 962 q 389 972 393 971 q 384 977 385 974 q 368 977 376 977 q 357 974 359 977 q 348 968 351 971 q 339 968 345 966 q 326 956 330 960 q 317 949 321 952 q 304 936 308 939 q 298 930 301 933 q 288 914 288 917 q 285 909 288 911 q 276 888 277 894 q 274 880 275 883 l 266 865 q 258 848 259 850 q 255 844 256 846 q 248 826 248 826 q 245 810 244 812 q 245 802 245 808 q 242 777 243 785 q 241 761 241 769 q 241 746 240 746 q 241 743 241 746 q 238 730 237 732 q 239 726 239 728 q 235 711 237 713 q 233 704 233 708 q 235 696 233 700 q 236 688 236 692 q 237 673 235 677 q 239 667 239 670 l 240 648 q 240 637 241 642 q 240 628 239 633 q 242 610 243 613 q 241 605 241 608 q 247 585 247 586 q 248 566 248 575 q 254 551 247 557 q 256 533 254 540 q 259 519 258 526 q 265 503 262 507 q 269 491 269 498 q 276 480 273 487 q 277 467 279 473 q 283 459 279 463 q 289 452 286 456 q 300 429 296 434 q 308 419 305 425 q 312 406 312 408 q 312 400 312 403 q 321 395 316 397 q 328 385 327 392 q 349 378 342 382 q 362 373 355 374 q 378 378 369 373 q 392 377 388 377 q 399 378 396 377 q 444 394 431 384 q 473 411 457 404 q 494 427 483 425 q 496 437 491 434 q 503 442 500 439 q 507 450 506 445 q 511 456 507 454 q 509 470 506 468 q 517 473 513 472 q 517 480 515 477 q 518 488 519 483 q 528 500 526 499 q 532 503 530 500 q 534 518 534 517 q 536 554 534 537 q 533 586 537 571 q 534 593 536 589 q 534 602 533 598 q 536 609 534 605 q 537 617 537 613 q 537 635 538 627 q 536 655 536 644 q 537 669 536 662 q 538 682 538 675 q 532 701 532 693 q 532 719 530 713 q 524 747 525 736 q 523 763 522 761 q 524 768 524 765 q 524 783 524 780 q 519 803 521 792 q 517 825 518 814 q 513 831 513 827 q 510 841 513 836 q 506 848 509 845 q 505 857 503 852 q 495 869 500 861 q 490 882 491 882 q 487 884 488 883 q 479 901 484 895 q 475 918 473 907 l 465 921 z "},"":{"ha":1119,"x_min":30,"x_max":1065,"o":"m 170 473 q 146 475 159 475 q 122 476 134 476 q 111 479 113 481 q 107 475 110 476 q 98 477 102 475 q 90 479 95 479 q 78 478 83 479 q 69 477 73 477 q 50 481 58 479 q 34 487 42 484 q 33 494 35 490 q 30 503 30 499 q 33 512 30 506 q 39 519 37 518 q 66 524 56 525 q 76 518 77 524 q 111 514 95 515 q 134 507 127 513 q 149 509 140 509 q 164 509 157 510 q 165 536 165 529 q 164 551 164 543 q 165 576 164 570 q 165 593 165 583 q 166 629 164 617 q 165 655 168 642 q 166 682 167 673 q 165 701 165 690 q 164 712 164 708 q 167 722 164 716 q 165 732 164 727 q 165 742 165 736 q 158 758 157 754 q 160 765 159 762 l 156 784 q 157 793 157 788 q 157 803 156 798 q 160 814 161 814 q 160 818 159 815 q 163 836 164 833 q 163 846 163 840 q 163 856 164 852 q 164 863 163 860 q 169 878 172 878 q 167 880 165 878 q 172 901 171 898 q 175 906 174 903 q 175 922 176 914 q 180 935 174 930 q 179 943 178 937 q 176 951 180 949 q 178 966 180 964 q 176 974 175 967 q 150 973 165 977 q 119 970 134 970 q 113 969 115 968 q 104 968 110 970 q 92 966 94 964 q 88 966 91 967 q 79 964 85 966 q 66 964 72 963 q 57 975 60 968 q 46 985 54 982 q 53 1001 42 998 q 62 1002 57 1002 q 69 1001 66 1001 q 84 1006 76 1002 q 102 1009 92 1009 q 123 1010 115 1010 q 137 1006 132 1009 q 146 1009 141 1009 q 157 1009 151 1009 q 172 1009 170 1009 q 178 1010 175 1009 q 189 1013 184 1012 q 197 1019 193 1013 q 211 1021 205 1020 q 227 1021 217 1021 l 243 1025 q 254 1026 251 1027 q 267 1028 258 1025 q 293 1034 286 1034 q 311 1033 308 1034 q 317 1032 315 1032 q 328 1035 326 1036 q 332 1034 330 1034 q 351 1035 340 1036 q 366 1035 365 1034 q 370 1038 368 1036 q 385 1038 377 1038 q 400 1039 393 1038 q 420 1038 415 1038 q 437 1034 425 1039 q 459 1036 453 1035 q 473 1035 465 1038 q 490 1032 488 1032 q 503 1033 505 1034 q 505 1031 502 1032 q 522 1030 510 1029 q 538 1028 533 1031 q 552 1025 543 1025 q 567 1024 562 1025 q 586 1021 583 1021 q 595 1024 589 1021 q 616 1017 609 1016 q 631 1016 624 1017 q 643 1013 637 1015 q 655 1009 648 1010 q 671 1004 667 1005 q 686 1001 675 1004 q 699 997 697 998 q 704 993 701 996 q 729 985 723 987 q 742 983 735 983 q 752 977 750 978 q 757 975 754 975 q 789 961 780 966 q 810 954 798 956 q 817 947 812 948 q 825 943 821 945 q 832 937 829 940 q 841 933 836 935 l 850 921 q 857 911 853 914 q 864 903 861 909 q 875 895 871 901 q 887 888 879 890 q 895 876 895 879 q 901 875 895 873 q 904 866 901 868 q 910 861 907 864 q 918 848 918 849 q 920 845 918 846 q 929 830 925 837 q 936 819 933 823 q 943 812 939 815 q 948 803 948 808 q 964 796 958 800 q 969 790 967 793 q 975 785 971 787 q 982 771 981 774 q 986 765 983 768 l 994 751 q 1004 727 1001 738 q 1023 694 1016 713 q 1033 682 1031 684 q 1032 680 1035 681 q 1037 673 1035 677 q 1042 667 1039 670 q 1041 656 1039 661 q 1044 646 1043 651 q 1045 630 1043 639 q 1053 621 1047 621 q 1051 611 1050 617 q 1050 601 1053 605 q 1058 583 1055 587 q 1061 572 1061 579 q 1061 562 1061 567 q 1063 551 1061 557 q 1061 536 1061 543 q 1061 519 1061 529 q 1061 508 1062 510 q 1059 503 1059 506 l 1059 472 q 1062 454 1059 458 q 1062 445 1065 450 q 1059 425 1061 429 q 1057 418 1058 420 q 1052 401 1053 404 q 1047 393 1051 397 q 1044 370 1047 378 q 1042 346 1040 362 q 1029 320 1031 328 q 1025 307 1028 312 q 1023 292 1025 292 q 1019 289 1020 292 q 1013 276 1019 281 q 1010 264 1008 271 q 1001 248 1005 252 q 994 237 997 243 q 986 223 987 228 q 981 216 985 218 q 972 206 977 210 q 964 195 968 202 q 954 178 955 182 q 951 171 954 174 q 937 161 945 164 q 932 152 937 155 q 928 141 928 149 q 911 123 918 136 q 891 109 895 113 q 877 94 880 96 q 869 91 873 91 q 860 77 867 81 q 850 64 853 72 q 837 56 844 60 q 823 46 830 52 q 806 39 808 39 q 790 31 796 33 q 777 22 784 28 q 762 20 765 22 q 751 16 758 18 q 727 8 732 9 q 715 4 722 7 q 697 -2 701 -3 q 689 -4 693 -1 q 680 -9 685 -8 q 677 -15 675 -11 q 652 -14 666 -14 q 628 -20 637 -15 q 612 -19 620 -22 q 600 -23 604 -16 q 583 -26 589 -23 q 570 -27 576 -30 q 542 -35 557 -34 q 511 -38 526 -37 q 494 -41 499 -39 q 487 -43 490 -43 q 475 -41 480 -42 q 464 -43 469 -39 q 452 -43 457 -41 q 441 -46 446 -45 q 427 -45 427 -45 q 423 -47 426 -46 q 407 -46 407 -45 q 401 -46 407 -47 q 395 -50 397 -47 q 388 -54 392 -53 q 373 -54 380 -53 q 362 -49 366 -54 q 349 -47 354 -47 q 336 -49 343 -46 q 319 -45 320 -47 q 315 -43 319 -43 q 296 -44 297 -43 q 293 -45 294 -45 q 290 -44 292 -45 q 283 -41 289 -43 q 266 -41 271 -41 q 256 -42 260 -42 q 233 -45 236 -42 q 227 -53 231 -49 q 205 -50 212 -56 q 193 -39 199 -45 q 170 -45 172 -39 q 161 -53 168 -50 q 140 -53 151 -54 q 123 -46 130 -52 q 111 -52 111 -50 q 110 -53 111 -53 q 95 -53 95 -54 q 94 -52 95 -52 q 80 -39 81 -39 q 77 -35 79 -38 q 96 -10 83 -16 q 129 -7 110 -4 q 168 -4 159 -14 q 180 -6 172 -7 q 194 -4 189 -5 q 193 7 193 3 q 194 18 194 11 q 191 38 190 33 q 191 47 191 43 q 189 57 190 53 q 186 66 187 61 q 186 80 187 79 q 184 84 184 81 q 184 103 186 99 q 183 110 183 107 q 183 130 184 126 q 182 136 182 133 q 182 142 180 138 q 183 151 183 145 q 177 166 179 161 q 175 175 175 171 q 176 213 176 202 q 176 225 175 222 q 178 231 178 228 q 176 244 178 237 q 175 258 175 251 q 176 276 175 266 q 176 296 176 286 q 177 311 175 307 q 179 321 179 315 q 178 328 179 324 q 178 339 178 332 q 176 372 176 361 q 173 386 172 384 q 174 391 174 388 q 173 408 175 399 q 171 427 171 416 q 171 437 172 435 q 170 442 170 439 q 170 451 170 446 q 171 463 171 456 l 170 473 m 458 475 q 441 477 445 477 q 433 476 437 476 q 419 477 426 476 q 406 479 412 479 q 397 478 401 479 q 391 477 393 477 q 377 478 384 477 q 363 479 370 479 q 366 462 363 469 q 369 448 369 454 q 369 433 370 441 q 368 419 368 426 q 368 402 369 406 q 368 396 368 399 q 370 384 369 384 q 370 381 370 384 q 371 363 369 368 q 373 355 373 358 q 374 330 374 335 q 370 317 373 324 q 373 310 373 315 q 374 300 373 305 l 374 271 q 374 262 373 267 q 373 254 376 256 q 379 227 376 236 q 380 208 382 217 q 383 200 382 205 q 385 191 384 195 q 387 172 385 178 q 391 164 388 167 q 391 149 388 157 q 393 132 393 140 q 393 119 393 125 q 396 106 393 113 q 396 86 399 94 q 396 73 393 79 q 400 58 401 58 q 400 57 399 58 q 403 30 400 43 q 407 5 406 16 q 406 -4 407 0 q 408 -12 406 -8 q 424 -13 416 -11 q 441 -14 431 -15 q 456 -12 456 -12 q 458 -11 456 -11 q 472 -9 468 -11 q 483 -8 476 -8 q 500 -8 499 -9 q 509 -5 502 -7 q 527 -3 522 -4 q 536 0 532 -1 q 547 1 541 1 q 557 3 552 1 q 571 3 564 4 q 585 4 578 3 q 591 8 590 5 q 598 12 593 11 q 608 13 602 14 q 617 14 613 12 q 633 17 629 18 q 639 18 636 16 q 654 29 651 27 q 659 34 656 31 q 680 39 677 37 q 690 42 684 42 q 701 53 694 49 q 713 64 708 57 q 724 74 722 71 q 727 81 726 77 q 745 94 742 92 q 751 99 749 96 q 758 109 755 109 q 761 111 760 109 q 767 121 765 121 q 768 125 769 122 q 791 146 783 141 q 793 157 791 152 q 798 164 796 161 q 804 172 803 170 q 806 178 804 175 q 814 195 812 189 q 817 204 817 199 q 818 212 817 209 l 823 231 q 831 254 829 248 q 836 283 833 275 q 845 297 838 290 q 845 315 844 312 q 848 321 846 317 q 850 335 848 334 q 852 339 852 336 l 852 359 q 857 376 856 373 q 859 380 857 380 q 858 391 857 388 q 859 396 859 393 q 861 410 860 407 q 863 416 861 412 q 863 433 864 431 q 861 438 861 435 q 863 446 861 442 q 864 453 864 450 q 862 468 864 460 q 865 483 860 476 q 863 491 861 486 q 865 502 865 496 q 864 515 865 509 q 867 526 863 522 q 863 536 861 532 q 865 545 865 541 q 861 566 864 556 q 864 585 857 575 q 861 600 861 589 q 859 616 859 610 q 858 633 859 631 q 856 639 857 636 q 855 655 854 647 q 853 673 856 663 q 848 693 848 690 q 847 700 846 696 q 848 708 848 704 q 843 718 845 716 q 841 722 841 719 q 831 750 833 739 q 827 762 829 757 q 822 773 825 768 q 817 789 818 783 q 811 798 815 795 q 802 810 803 807 q 798 812 802 814 q 792 831 795 823 q 785 848 787 846 q 772 865 774 856 q 764 873 768 868 q 757 880 761 878 q 749 887 753 884 q 741 894 745 890 q 732 907 734 906 q 730 909 731 907 q 722 919 726 914 q 712 926 718 924 q 703 933 705 932 q 700 936 701 935 l 685 944 q 677 951 682 948 q 670 960 673 954 q 656 964 661 959 q 646 972 652 970 q 629 976 635 977 q 617 975 624 975 q 600 975 602 977 q 595 974 598 974 q 581 982 583 979 q 574 987 578 985 q 555 989 557 987 q 551 990 553 990 q 538 990 538 989 q 536 991 538 991 q 521 993 522 993 q 505 995 506 996 q 498 996 505 994 q 473 997 479 998 q 461 997 468 996 q 453 998 457 997 q 445 1000 449 1000 q 422 1000 426 998 q 411 1002 418 1002 q 391 1002 400 1002 q 373 1004 381 1001 q 373 992 376 996 q 373 979 370 989 q 368 973 370 977 q 365 966 366 970 q 362 929 359 941 q 359 903 365 917 q 362 886 363 887 q 361 882 361 884 q 365 873 366 879 q 363 861 363 868 q 363 848 363 854 q 365 836 363 842 q 366 817 368 821 q 365 811 365 814 q 366 795 365 796 q 368 791 368 793 q 364 757 362 774 q 366 720 366 739 q 366 699 366 709 q 365 680 366 688 q 363 659 362 663 q 365 650 365 655 q 365 637 363 642 q 362 631 366 633 q 366 616 368 625 q 363 601 363 608 q 368 576 368 582 q 366 564 365 566 q 366 559 366 562 q 367 550 368 553 q 365 541 366 547 q 366 522 365 526 q 368 514 366 518 q 408 513 393 514 q 438 518 422 511 q 458 523 453 521 q 467 526 464 525 q 477 525 472 526 q 486 524 481 524 q 490 501 496 507 q 479 488 483 495 q 465 478 469 479 q 458 475 461 477 z "},"":{"ha":681,"x_min":27,"x_max":640,"o":"m 559 948 q 575 940 566 941 q 577 917 578 922 q 572 907 576 911 q 566 905 570 905 q 557 905 563 906 q 552 901 555 903 q 545 895 549 898 q 536 893 538 898 q 528 890 533 888 q 510 877 515 879 q 499 871 505 875 q 486 859 490 860 q 480 853 481 857 q 498 836 492 837 q 509 818 503 822 q 515 806 514 808 q 521 803 517 804 q 528 788 528 792 q 533 780 529 784 l 543 764 q 556 747 553 753 q 562 737 560 738 q 566 735 564 736 q 575 715 572 722 q 582 704 578 709 q 589 689 585 693 q 591 681 587 684 q 597 675 594 678 q 604 652 604 659 q 610 643 604 646 q 618 624 613 627 q 621 596 620 604 q 625 583 621 589 q 627 556 628 563 q 634 515 628 530 q 635 484 640 499 q 636 464 639 472 q 637 451 637 454 q 636 444 636 448 q 636 429 637 429 q 635 427 635 429 q 634 420 632 423 q 631 411 636 416 q 631 398 632 401 q 631 391 631 395 q 629 378 631 380 q 627 373 628 376 q 628 363 627 369 q 624 355 629 358 q 625 344 627 351 q 627 331 623 336 q 621 317 620 327 q 614 305 621 308 q 614 292 617 301 q 606 279 612 282 q 605 267 606 267 q 602 263 604 266 q 601 252 602 259 q 594 241 600 244 q 586 225 597 231 q 578 203 581 210 q 571 190 575 195 q 568 178 570 178 q 563 175 566 178 q 554 157 555 161 q 551 149 553 152 q 537 133 540 134 q 532 129 534 132 q 520 109 522 114 q 514 102 518 104 q 509 96 513 99 q 505 90 506 94 q 494 83 498 90 q 483 77 491 77 q 472 66 480 69 q 463 62 469 64 q 454 58 457 61 q 444 47 446 50 q 439 42 442 45 l 422 31 q 410 24 411 26 q 406 20 408 22 q 385 13 388 14 q 377 11 381 12 q 368 7 372 9 q 361 3 365 5 q 354 0 358 1 q 346 -4 350 -1 q 326 -8 332 -5 q 308 -11 319 -11 q 287 -6 293 -4 q 277 -1 281 -8 q 255 1 258 -1 q 237 0 241 -1 q 229 -1 232 1 q 220 4 227 3 q 205 7 213 5 q 193 8 194 9 q 190 8 193 7 q 182 12 186 9 q 175 18 179 15 q 159 26 163 23 q 149 27 156 30 q 140 39 146 34 q 126 45 133 45 q 113 58 115 56 q 103 64 110 61 q 84 85 96 81 q 75 105 77 100 q 69 113 73 110 q 65 126 68 123 q 64 134 62 129 q 52 151 57 148 q 50 161 47 155 q 43 178 45 176 q 42 182 42 179 q 39 196 41 194 q 35 201 37 198 q 36 213 38 212 q 33 217 34 214 q 33 229 35 224 q 33 241 30 235 q 29 268 31 262 q 34 281 27 274 q 35 316 39 301 q 43 345 31 331 q 42 354 41 350 q 41 362 43 358 q 45 373 46 365 q 50 384 45 381 q 49 398 46 397 q 53 401 52 399 q 58 425 58 419 q 62 438 58 430 q 71 455 69 452 q 75 464 73 458 q 84 479 85 475 q 100 496 94 486 q 114 514 106 507 q 140 540 126 537 q 160 553 153 543 q 185 566 176 564 q 199 578 194 568 q 210 581 206 578 q 221 583 214 583 q 245 593 237 589 q 263 595 252 597 q 278 605 275 600 q 287 607 283 604 q 293 613 290 610 q 305 611 300 610 q 316 613 311 612 q 336 610 326 606 q 357 604 346 613 q 377 598 372 604 q 395 595 393 598 q 399 590 396 593 q 408 588 406 591 q 418 583 411 585 q 429 576 426 579 q 438 572 433 574 q 450 569 444 570 q 460 564 456 568 q 460 588 461 581 q 454 601 460 595 q 451 617 452 614 q 448 623 450 620 q 446 633 449 629 q 444 643 444 636 l 435 656 q 429 675 430 673 q 427 681 429 678 q 420 694 420 686 q 410 707 419 703 q 407 718 410 713 q 403 728 404 722 q 399 734 400 731 q 395 742 397 738 q 387 753 388 747 q 380 760 385 758 q 369 774 380 766 q 360 770 363 774 q 353 764 357 766 q 340 759 346 762 q 326 754 334 755 q 310 744 312 746 q 304 743 308 742 q 296 734 297 736 q 293 731 296 732 q 279 722 279 724 q 267 714 270 718 q 256 711 263 711 q 243 701 247 705 q 235 694 240 697 q 221 685 225 685 q 214 682 217 682 q 205 681 212 681 q 196 684 198 682 q 187 688 194 685 q 186 696 189 692 q 184 704 183 700 q 188 711 186 708 q 191 719 190 715 q 199 722 197 719 q 209 724 202 726 q 222 731 218 728 q 229 736 225 734 q 241 741 235 739 q 250 749 247 742 q 262 754 256 749 q 274 760 267 760 q 296 772 282 770 q 304 785 302 776 q 323 798 316 796 q 328 807 330 799 q 336 808 334 806 q 345 814 339 811 q 338 828 339 829 q 335 827 338 827 q 334 836 335 833 q 332 845 334 840 q 317 852 317 850 q 315 856 316 854 q 302 865 305 863 q 301 872 300 868 q 281 886 289 882 q 273 901 273 890 q 258 907 262 903 q 245 914 254 911 q 236 920 240 920 q 227 924 232 921 q 216 929 222 926 q 203 935 210 932 q 193 939 197 937 q 180 943 189 941 q 172 944 176 944 q 164 945 167 944 q 146 948 151 947 q 140 948 142 949 q 133 943 136 945 q 125 940 130 940 q 110 928 114 932 q 99 922 106 925 q 87 924 94 925 q 79 926 81 924 q 71 940 71 937 q 76 958 75 956 q 79 962 77 959 q 94 971 90 964 q 111 978 109 975 q 127 981 127 982 q 129 979 127 979 q 140 986 136 986 q 146 986 144 986 q 161 989 159 987 q 167 989 164 990 q 182 991 174 996 q 197 985 190 987 q 210 983 210 985 q 213 982 210 982 q 222 982 220 983 q 228 979 225 981 q 246 975 235 978 q 267 970 258 972 l 289 964 q 302 956 294 962 q 320 952 309 951 q 332 944 324 945 q 346 936 340 943 q 368 930 354 933 q 391 922 382 928 q 410 909 407 913 q 418 902 414 905 q 429 891 427 892 q 436 886 433 887 q 445 883 439 884 q 464 890 457 876 q 481 900 477 898 q 484 905 484 902 q 492 907 488 905 q 498 911 495 909 q 507 918 506 917 q 513 918 509 920 q 526 928 518 925 q 538 937 533 930 q 555 942 552 943 q 559 948 557 941 m 481 441 q 479 461 480 460 q 480 465 477 463 q 477 476 476 469 q 473 488 477 483 q 474 498 476 495 q 471 503 472 500 q 458 514 469 509 q 434 529 442 525 q 418 537 426 533 q 409 541 414 540 q 399 544 404 541 q 380 556 384 556 q 370 559 376 556 q 354 560 355 559 q 350 562 353 562 q 336 562 343 564 q 324 564 328 560 q 294 564 311 560 q 279 560 286 562 q 263 556 271 559 q 245 548 247 552 q 224 542 228 544 q 218 537 221 540 q 210 534 214 534 q 201 530 206 533 q 191 524 195 528 q 179 518 186 519 q 168 509 170 511 q 161 507 165 507 q 150 495 152 496 q 144 494 148 494 q 136 483 140 487 q 129 471 132 479 q 114 453 117 461 q 99 428 103 438 q 91 411 95 418 q 83 388 94 399 q 83 370 88 380 q 76 350 79 359 q 76 340 75 345 q 75 331 77 335 q 74 321 77 328 q 68 308 71 313 q 68 292 68 296 q 65 283 69 288 q 66 264 65 269 q 65 258 68 259 l 71 239 q 73 221 68 229 q 77 200 76 205 q 80 191 77 195 q 82 177 80 179 q 81 172 84 175 q 92 161 88 165 q 102 142 98 152 q 110 123 106 133 q 119 111 119 113 q 119 109 118 110 q 130 95 129 98 q 134 91 132 92 q 145 80 144 81 q 156 69 151 75 q 165 66 160 66 q 175 64 171 66 q 191 55 189 56 q 198 52 194 54 q 211 47 206 49 q 221 42 216 45 q 236 42 228 42 q 251 39 244 42 q 259 36 255 38 q 269 34 263 34 q 279 34 274 33 q 292 33 285 35 q 311 43 308 39 q 320 46 313 47 q 336 45 334 45 q 346 43 339 46 q 352 53 349 50 q 359 58 355 56 q 374 73 368 69 q 384 80 380 77 q 388 89 382 84 q 395 100 393 94 q 407 118 407 114 q 418 132 414 125 q 427 151 422 140 q 444 180 437 168 q 452 203 452 195 q 458 213 452 210 q 462 243 460 231 q 471 271 464 256 q 471 291 472 285 q 475 301 471 297 q 477 335 476 323 q 480 359 477 347 q 484 390 484 381 q 488 410 484 399 q 482 424 483 420 q 484 427 481 427 l 481 441 z "},"":{"ha":972,"x_min":7,"x_max":967,"o":"m 460 591 q 441 585 445 587 q 435 582 438 583 q 422 577 429 579 q 408 572 415 575 q 382 559 389 562 q 369 555 376 557 q 357 543 357 545 q 358 538 358 541 q 359 530 357 534 q 355 522 361 525 q 359 509 358 518 q 355 496 359 500 q 357 486 358 491 q 358 476 357 481 q 359 469 359 473 q 358 460 358 465 q 360 448 359 454 q 357 435 361 442 q 361 420 358 429 q 357 410 363 412 q 362 404 359 407 q 366 397 365 401 q 366 390 366 393 q 365 382 365 387 q 368 366 369 369 q 368 359 368 362 q 371 342 370 345 q 374 334 372 339 q 376 326 374 331 q 378 317 378 321 q 376 293 373 301 q 377 279 380 285 q 380 269 380 275 q 381 254 380 263 q 382 235 384 237 q 381 229 381 232 q 380 202 378 216 q 378 182 382 189 q 380 173 381 178 q 380 163 380 168 q 382 152 380 157 q 380 140 384 146 q 385 123 385 132 q 387 108 387 110 q 389 103 388 106 q 391 94 391 99 q 395 81 392 88 q 399 71 396 77 q 406 61 401 64 q 416 56 414 57 q 425 54 418 56 q 435 53 433 53 q 445 56 438 53 q 456 54 450 53 q 467 53 461 54 q 481 50 481 50 q 483 49 481 49 q 507 52 502 53 q 518 49 511 50 l 537 47 q 558 46 552 46 q 572 47 564 46 q 586 45 581 47 q 598 47 591 43 q 618 43 609 41 q 639 41 628 45 q 648 47 644 43 q 659 53 652 50 q 684 54 678 53 q 696 57 689 54 q 704 62 700 60 q 712 66 708 64 q 724 72 722 72 q 730 75 727 72 q 742 88 734 77 q 751 96 751 94 q 754 99 751 98 q 770 113 766 111 q 777 119 774 115 q 793 136 788 132 q 800 149 798 141 q 812 164 810 163 q 815 171 815 165 q 823 178 821 174 q 827 186 825 182 q 832 191 830 189 q 837 198 834 194 q 845 211 844 209 q 849 218 846 213 q 854 233 850 227 q 857 241 857 237 q 859 251 857 244 q 864 268 863 266 q 867 273 865 270 q 869 288 871 286 q 868 292 868 289 q 871 309 872 302 q 876 317 871 315 q 876 332 876 327 q 878 352 878 347 q 879 368 879 357 q 890 378 886 372 q 901 389 894 385 l 917 389 q 922 376 920 384 q 922 358 924 369 q 918 338 917 343 q 918 331 918 334 q 915 323 917 327 q 911 313 913 319 q 912 300 910 307 q 911 288 914 294 q 907 269 909 274 q 903 262 906 264 q 906 247 907 255 q 906 231 905 239 q 909 217 906 224 q 911 203 911 210 q 911 186 913 194 q 917 172 910 179 q 918 154 916 156 q 921 149 920 152 q 922 140 922 144 q 922 133 921 136 q 927 115 928 117 q 926 110 926 113 q 932 90 932 98 q 936 76 932 83 q 940 58 937 62 q 945 47 943 54 q 950 31 948 41 q 959 15 952 22 q 965 -3 963 0 q 966 -15 967 -5 q 960 -27 962 -27 q 959 -30 959 -27 q 947 -37 954 -35 q 939 -39 941 -39 q 932 -35 935 -38 q 924 -33 930 -33 q 922 -24 925 -26 q 918 -18 920 -22 q 910 -17 914 -16 q 903 -16 906 -18 q 895 -14 899 -15 q 888 -12 891 -12 q 880 -12 884 -11 q 871 -12 875 -12 q 856 -10 864 -11 q 841 -8 848 -9 q 821 -7 827 -8 q 798 -7 810 -7 q 772 -5 785 -7 q 747 -4 758 -5 q 724 1 735 -3 q 709 -1 718 1 q 699 4 701 -4 q 676 2 681 1 q 667 5 671 3 q 647 1 656 3 q 631 7 637 0 q 619 8 623 8 q 609 9 616 8 q 596 13 600 11 q 586 11 593 15 q 578 12 583 12 q 571 15 574 12 q 557 14 559 12 q 551 15 556 15 q 540 14 544 15 q 532 12 536 14 q 507 16 514 16 q 499 23 500 16 q 483 18 492 20 q 467 20 473 16 q 455 16 460 15 q 437 18 450 16 q 420 18 420 16 q 414 19 420 19 q 407 18 411 18 q 399 15 403 18 q 374 20 388 19 q 349 23 359 20 q 328 27 340 24 q 307 23 315 30 q 286 26 293 26 q 273 24 279 26 q 258 23 266 23 q 244 23 247 24 q 239 22 241 22 q 214 21 222 22 q 198 20 206 20 q 181 19 184 20 q 174 18 178 18 q 157 14 159 14 q 137 14 145 15 q 122 11 129 14 q 101 7 106 5 q 91 8 96 8 q 81 7 85 8 q 75 7 77 7 q 50 8 54 7 q 39 7 46 9 q 30 12 31 14 q 23 9 28 9 q 12 16 18 12 q 7 27 7 20 q 11 40 7 35 q 19 49 15 45 q 32 50 23 52 q 46 47 41 47 q 54 49 50 46 q 64 49 58 52 q 81 47 79 46 q 88 49 84 47 q 109 50 102 49 q 123 53 121 54 q 129 53 126 52 q 146 61 138 57 q 162 68 159 65 q 172 73 165 72 q 179 84 179 81 q 182 90 179 87 q 191 103 190 103 q 194 106 193 103 q 197 125 197 122 q 198 134 198 127 q 199 155 199 151 q 198 161 198 159 q 198 180 199 176 q 197 189 197 184 q 198 197 197 193 q 199 206 199 201 q 197 218 197 216 q 198 221 198 220 q 195 234 194 228 q 197 244 197 240 q 195 253 197 248 q 194 264 194 258 q 194 290 194 281 q 194 307 194 300 q 195 334 193 327 q 195 347 195 340 q 197 359 194 353 q 194 374 194 366 q 195 388 194 381 q 196 405 197 400 q 195 415 195 410 l 195 467 l 155 450 q 142 448 142 450 q 140 442 142 445 q 131 440 134 439 q 122 438 127 441 q 114 433 118 435 q 106 427 110 430 q 87 424 96 425 q 69 420 77 423 q 64 427 68 425 q 60 433 61 429 q 58 444 57 437 q 61 453 58 450 q 83 469 73 465 q 96 468 94 472 q 127 478 111 472 q 152 481 142 484 q 173 494 159 487 q 194 500 187 502 q 194 521 195 513 q 191 538 193 529 q 191 552 193 551 q 190 555 190 553 q 191 564 190 559 q 189 575 193 570 q 193 590 191 590 q 191 618 193 608 q 193 627 191 623 q 194 636 194 632 q 192 645 193 642 q 190 652 191 648 q 189 671 190 669 q 189 677 189 674 q 191 686 193 685 q 191 692 190 688 q 192 716 194 700 q 191 747 190 732 q 191 760 193 757 q 189 766 190 762 q 188 783 187 773 q 187 803 189 792 q 186 827 186 819 q 187 842 187 834 q 186 852 187 848 q 184 861 184 857 q 186 870 184 865 q 186 879 189 875 q 181 892 182 890 q 180 899 180 895 q 179 912 179 906 q 176 925 179 918 q 172 938 172 933 q 171 948 172 943 q 161 972 167 968 q 149 982 156 977 q 141 981 145 981 q 133 982 137 982 q 122 981 127 982 q 111 979 117 979 q 85 980 94 982 q 72 982 77 978 q 65 996 66 996 q 77 1019 60 1012 q 93 1020 92 1019 q 95 1021 94 1021 q 104 1021 100 1021 q 111 1023 109 1020 q 118 1021 114 1023 q 126 1019 122 1019 q 134 1019 130 1017 q 142 1020 137 1020 q 161 1018 152 1020 q 176 1015 170 1016 q 191 1013 189 1012 q 197 1015 194 1015 q 226 1013 216 1015 q 250 1012 236 1012 q 262 1014 260 1012 q 267 1015 264 1016 q 280 1013 279 1009 q 286 1015 281 1017 q 311 1015 304 1013 q 330 1017 319 1016 q 349 1019 345 1017 q 372 1018 359 1020 q 395 1020 384 1016 q 413 1018 408 1019 q 423 1019 418 1017 q 432 1019 427 1019 q 441 1020 437 1020 q 450 1019 446 1020 q 461 1020 454 1017 q 473 1020 465 1021 q 487 1017 480 1019 q 491 995 491 1001 q 490 986 491 989 q 480 977 484 979 q 475 975 476 975 q 467 975 471 974 q 460 979 464 977 q 437 977 449 977 q 416 975 425 978 q 404 964 404 964 q 390 946 393 949 q 384 940 387 943 q 383 927 387 933 q 378 914 380 921 q 376 897 376 906 q 374 880 377 887 q 368 867 369 869 q 366 859 366 864 q 366 838 366 845 q 363 822 365 830 q 362 808 362 817 q 357 796 362 800 q 360 785 358 791 q 361 773 362 780 q 358 758 357 766 q 358 743 359 750 q 356 728 355 730 q 357 726 357 727 q 356 713 357 716 q 358 707 355 709 q 358 684 358 690 q 358 670 358 677 q 360 657 359 663 q 355 648 361 651 q 358 641 358 646 q 361 633 358 636 q 361 624 362 629 q 363 613 361 618 q 362 601 361 608 q 361 587 363 594 q 396 604 382 598 q 420 621 410 609 q 437 635 433 631 q 445 640 442 639 q 455 644 450 643 q 464 648 460 646 q 475 629 477 637 q 471 613 473 620 q 463 597 467 600 q 460 591 460 594 z "},"":{"ha":391,"x_min":-26,"x_max":397,"o":"m 377 635 q 357 629 361 631 q 351 625 354 627 q 338 621 345 623 q 326 616 332 618 q 319 612 323 614 q 312 609 315 610 q 299 602 305 604 q 286 597 293 600 q 269 589 279 594 q 248 578 259 583 q 252 544 252 566 q 252 532 251 538 q 254 524 254 526 q 252 511 252 515 q 250 502 252 507 q 252 490 254 492 q 251 487 251 488 q 253 472 254 477 q 252 464 252 467 q 258 441 256 456 q 255 416 260 426 q 258 401 256 401 q 259 400 259 401 q 255 385 262 388 q 259 374 259 381 q 259 360 259 368 q 260 345 259 353 q 263 332 260 338 q 261 306 262 315 q 258 292 260 297 q 263 275 263 285 q 264 255 263 266 q 263 229 266 237 q 262 214 263 216 q 262 210 262 213 q 263 188 266 193 q 267 180 260 183 q 260 164 258 165 q 264 160 263 163 q 266 144 267 153 q 267 127 264 134 q 261 113 256 113 q 264 110 266 114 q 267 98 264 99 q 267 91 269 96 q 265 82 264 88 q 266 73 266 76 q 270 66 267 69 q 270 58 273 62 q 276 49 273 53 q 282 38 279 45 q 296 26 296 30 q 300 23 296 23 q 323 22 313 26 q 347 16 334 18 q 359 24 358 22 q 365 30 361 27 q 374 30 370 27 q 384 33 377 33 q 396 14 396 18 q 397 3 396 9 q 393 -6 397 -1 q 389 -14 388 -11 q 373 -24 382 -19 q 355 -22 363 -28 q 327 -19 338 -22 q 304 -15 316 -16 q 290 -14 297 -14 q 279 -9 282 -15 q 264 -4 269 -9 q 248 -7 255 -5 q 231 -9 240 -9 q 222 -7 227 -8 q 213 -5 217 -7 q 195 -7 203 -5 q 180 -3 186 -9 q 170 -5 175 -4 q 161 -3 164 -5 q 154 -6 159 -5 q 146 -9 149 -7 q 119 -5 134 -3 q 94 -14 104 -8 q 81 -14 87 -14 q 69 -15 76 -14 q 56 -20 58 -20 q 52 -19 54 -19 q 35 -22 39 -23 q 23 -23 30 -20 q 13 -28 19 -24 q 0 -30 7 -31 q -9 -24 -5 -27 q -16 -19 -12 -22 q -18 -11 -18 -15 q -20 -4 -18 -7 q -13 3 -18 0 q -4 9 -8 5 q 16 9 7 7 q 34 14 24 12 q 43 14 39 15 q 53 15 47 14 q 70 21 64 20 q 83 24 76 22 q 100 39 96 38 q 107 43 104 41 q 112 52 111 47 q 118 60 113 57 q 120 71 117 66 q 123 81 123 76 q 123 101 125 92 q 126 118 122 110 q 127 130 129 126 q 129 138 126 133 q 131 145 129 141 q 136 152 133 149 q 134 161 133 156 q 136 170 136 165 q 134 178 136 175 q 133 187 133 182 q 134 195 133 191 q 136 206 136 199 q 134 216 136 212 q 133 225 133 221 q 136 245 133 232 q 133 260 132 258 q 134 266 134 263 q 133 286 134 281 q 132 294 132 290 q 133 307 134 305 q 132 312 132 309 q 132 339 133 328 q 132 361 132 350 q 129 374 130 368 q 127 385 127 380 q 127 402 129 397 q 125 412 125 407 q 127 429 126 429 q 127 431 127 430 q 125 450 126 448 q 122 483 121 471 l 122 506 q 97 503 110 507 q 71 491 84 498 q 60 490 60 492 q 57 484 60 487 q 48 482 52 481 q 39 480 45 483 q 31 475 35 477 q 22 471 26 473 q 3 467 12 468 q -14 464 -5 467 q -18 470 -15 468 q -24 476 -22 472 q -25 486 -26 479 q -22 496 -24 494 q 0 512 -9 509 q 12 511 9 515 q 44 522 28 515 q 68 525 60 528 q 89 537 75 530 q 110 543 103 544 l 121 556 q 119 569 121 564 q 118 578 118 574 q 121 592 119 585 q 122 606 122 600 q 123 625 121 617 q 123 646 122 640 q 122 658 123 651 q 122 677 119 669 q 123 699 122 694 q 123 705 123 703 q 124 718 125 712 q 125 731 123 723 q 125 741 126 736 q 129 749 125 746 q 130 770 126 766 q 125 814 127 799 q 127 845 122 830 q 125 879 125 860 q 126 890 125 886 q 125 901 127 895 q 126 911 127 905 q 126 926 125 917 q 124 943 123 940 q 125 951 125 947 q 121 962 123 960 q 121 968 118 964 q 98 967 111 970 q 77 959 85 964 q 67 960 72 962 q 58 956 62 959 q 34 957 47 959 q 12 963 20 955 q -8 971 -5 964 q 4 996 -14 997 q 34 990 22 996 q 43 993 38 991 q 50 997 47 994 q 71 994 65 994 q 80 996 76 994 q 92 1000 87 997 q 102 1000 96 1002 q 127 1008 117 1005 q 142 1006 138 1010 q 149 1010 146 1009 q 157 1015 152 1012 q 169 1019 165 1019 q 175 1020 172 1019 q 182 1024 179 1021 q 191 1027 186 1027 q 208 1038 201 1036 q 224 1053 221 1051 q 229 1057 227 1054 q 255 1040 251 1054 q 256 1019 255 1023 q 258 1010 256 1016 q 256 1000 258 1005 q 254 987 254 994 q 252 971 254 978 q 252 944 250 958 q 252 935 252 939 q 250 925 252 930 q 252 913 252 920 q 252 898 251 906 q 253 879 252 890 q 250 861 254 868 q 252 852 251 857 q 248 842 252 846 q 248 825 250 829 q 247 818 247 822 q 249 804 250 808 q 248 798 248 800 q 250 789 248 793 q 247 780 251 784 q 250 772 250 777 q 251 764 250 768 q 249 743 250 749 q 251 734 248 736 q 249 720 247 722 q 251 715 251 718 q 248 694 248 697 q 248 658 252 674 q 248 635 248 642 q 250 620 248 628 q 266 625 258 620 q 281 632 274 629 q 313 647 300 642 q 338 663 327 652 q 349 674 347 673 q 354 678 350 674 q 361 684 358 682 q 370 688 366 686 q 380 692 374 689 q 393 671 395 681 q 388 655 391 662 q 380 640 384 643 q 377 635 377 637 z "},"":{"ha":829,"x_min":62,"x_max":769,"o":"m 586 825 q 583 814 583 821 q 585 803 583 807 q 563 792 567 795 q 556 787 559 789 q 551 769 555 776 q 551 754 548 762 q 567 736 564 738 q 578 733 572 734 q 586 728 583 732 q 600 726 600 727 q 604 724 601 726 q 621 724 614 722 q 636 731 628 726 q 654 749 648 738 q 658 758 656 753 q 663 766 659 764 q 671 795 670 785 q 670 817 671 806 q 666 830 665 829 q 667 833 667 831 q 654 858 659 850 q 644 871 650 865 q 631 892 637 883 q 616 907 625 901 q 608 917 613 914 q 601 926 604 920 q 588 936 593 929 q 575 945 583 943 q 558 959 563 958 q 547 963 553 960 q 531 972 538 967 q 513 981 524 977 q 488 989 496 990 q 473 991 480 989 q 458 1001 458 998 q 450 1000 454 1001 q 442 1001 446 1000 q 431 1004 433 1005 q 426 1004 429 1004 q 402 1008 407 1009 q 392 1008 397 1008 l 373 1008 q 366 1008 370 1008 q 358 1009 361 1009 q 342 1009 347 1006 q 326 1004 335 1006 q 309 998 316 1002 q 293 997 300 997 q 274 991 278 993 q 266 987 270 989 q 258 983 260 986 q 250 979 255 979 q 232 963 232 971 q 218 951 225 959 q 214 941 216 948 q 206 932 212 935 q 197 913 205 921 q 192 890 194 902 q 184 871 190 879 q 184 848 186 860 q 178 826 183 837 q 179 810 179 811 q 186 790 182 799 q 190 768 190 781 q 200 754 197 755 q 201 747 203 753 q 216 734 209 742 q 226 722 227 724 q 227 719 225 720 q 236 713 231 715 q 244 704 241 711 q 262 694 255 704 q 279 688 271 694 q 294 675 288 682 q 307 672 304 677 q 321 669 311 667 q 333 661 332 662 q 336 659 334 659 q 363 647 353 650 q 380 639 376 643 q 397 632 392 635 q 408 627 401 629 q 427 621 422 620 q 442 614 438 614 q 450 610 446 613 q 473 597 461 604 q 502 587 486 590 q 514 585 513 585 q 518 585 515 586 q 524 581 521 583 q 530 575 528 578 q 543 568 534 571 q 556 560 552 566 q 574 553 574 553 q 579 548 576 552 q 589 545 582 544 q 608 530 602 534 q 618 524 613 526 q 633 513 631 515 q 639 511 635 510 q 650 502 646 503 q 659 499 654 500 q 669 488 667 491 q 677 487 671 486 q 682 474 681 475 q 685 471 684 473 q 690 465 688 468 q 696 460 693 463 q 708 439 704 445 q 713 433 711 437 q 713 425 716 429 q 728 412 727 414 q 731 408 728 410 q 741 391 734 392 q 741 375 738 382 q 746 361 743 368 q 751 348 749 354 q 753 334 754 342 q 758 319 755 324 q 762 308 761 313 q 763 299 764 304 q 762 290 762 294 q 766 273 766 274 q 765 271 765 273 q 766 249 769 256 q 765 237 762 241 q 762 222 762 227 q 764 216 761 218 q 760 202 760 206 q 761 195 761 198 q 755 178 755 182 q 751 171 755 174 q 749 158 749 160 q 749 153 750 156 q 742 138 747 145 q 726 111 734 115 q 719 94 719 106 q 713 77 713 90 q 704 67 707 73 q 697 56 701 61 q 684 51 690 53 q 677 41 678 49 q 657 26 662 31 q 650 14 652 20 q 625 -3 633 3 q 606 -14 617 -9 q 585 -25 591 -22 q 571 -31 578 -28 q 549 -35 562 -34 q 528 -39 537 -35 q 508 -43 513 -41 q 498 -47 503 -45 q 477 -50 481 -47 q 469 -53 473 -52 q 454 -54 463 -54 q 441 -54 446 -54 q 425 -54 429 -53 q 419 -57 422 -56 q 404 -58 407 -57 q 399 -61 401 -60 q 382 -60 391 -58 q 363 -58 374 -61 q 338 -54 345 -53 q 326 -53 332 -54 q 298 -45 307 -43 q 282 -45 290 -46 q 275 -43 279 -43 q 266 -41 270 -42 q 254 -38 255 -39 q 251 -37 254 -37 q 239 -35 244 -35 q 228 -34 233 -35 q 220 -33 225 -34 q 212 -30 216 -31 q 195 -24 202 -27 q 180 -18 187 -22 q 170 -12 172 -12 q 167 -11 168 -12 q 159 -3 161 -4 q 153 1 156 -1 q 136 7 140 5 q 127 11 133 9 q 120 18 123 14 q 111 24 117 22 q 107 33 110 30 q 102 38 104 35 l 94 54 q 83 66 85 65 q 80 69 81 66 q 75 83 76 81 q 73 85 73 84 q 69 99 68 98 q 71 103 71 100 q 66 130 68 123 q 62 142 64 136 q 62 151 62 146 q 64 160 62 156 q 66 176 66 176 q 66 188 66 183 q 72 198 66 193 q 79 226 77 217 q 88 237 81 235 q 96 254 92 251 q 99 267 99 258 q 113 277 113 277 q 124 286 123 285 q 125 288 125 286 q 141 294 138 293 q 144 300 144 296 q 161 307 153 302 q 179 311 168 311 q 184 313 182 313 q 194 315 187 313 q 207 320 202 320 q 216 320 212 320 q 239 322 235 323 q 251 320 244 321 q 272 316 262 317 q 293 312 282 315 q 302 304 296 305 q 311 296 309 302 q 323 289 319 293 q 334 279 328 285 q 337 269 335 270 q 340 264 339 267 q 348 243 346 248 q 347 233 350 239 q 349 215 349 220 q 349 206 350 210 q 345 184 345 193 q 338 176 342 179 q 334 165 334 172 q 323 159 328 163 q 317 148 317 156 q 304 136 308 146 q 283 130 290 136 q 263 123 277 123 q 258 119 262 121 q 250 115 254 117 q 241 115 244 114 q 232 117 239 115 q 223 118 229 118 q 216 119 217 118 q 194 140 198 132 q 184 153 190 148 q 192 177 187 172 q 198 189 197 182 q 215 183 209 189 q 229 175 221 178 q 230 167 232 171 q 232 159 228 163 q 258 160 245 151 q 264 162 259 161 q 273 165 270 163 q 283 172 278 168 q 293 176 288 175 q 302 190 294 186 q 305 204 305 197 q 311 216 305 212 q 309 223 308 218 q 308 231 309 228 q 298 253 302 248 q 293 264 294 258 q 270 275 281 266 q 258 277 260 275 q 248 281 255 279 q 239 281 244 282 q 227 281 233 281 q 203 279 209 283 q 185 274 189 275 q 179 271 182 273 q 161 264 160 264 q 146 254 148 255 q 142 251 144 252 q 125 229 127 239 q 109 217 115 220 q 102 193 109 203 q 99 168 100 176 q 99 149 98 159 q 101 136 102 136 q 100 134 100 136 q 104 113 100 118 q 106 102 109 109 q 112 92 109 96 q 114 79 115 88 q 125 66 119 68 q 134 60 132 64 q 152 42 148 46 q 163 35 156 38 q 175 20 172 27 q 194 18 186 23 q 209 8 202 12 q 223 6 218 9 q 233 0 228 3 q 245 0 240 1 q 254 -1 250 -1 q 268 -3 264 -1 q 277 -5 271 -5 q 301 -9 294 -8 q 313 -15 308 -11 q 341 -15 327 -12 q 363 -23 355 -18 q 378 -20 370 -20 q 391 -23 385 -20 q 410 -20 406 -19 q 419 -20 414 -20 q 431 -19 426 -20 q 445 -18 435 -18 q 460 -16 458 -16 q 479 -9 473 -9 q 490 -8 484 -9 q 505 -4 503 -4 q 525 1 518 -3 q 540 3 533 -1 q 557 7 553 8 q 563 8 560 7 q 582 16 578 12 q 590 18 586 19 q 597 24 593 22 q 606 30 602 26 q 618 39 613 34 q 628 50 623 45 q 635 54 632 53 q 642 58 637 56 q 644 68 643 62 q 648 76 646 73 q 656 85 654 83 q 661 92 658 87 q 666 103 667 102 q 667 106 665 104 q 677 117 677 115 q 680 121 677 118 q 683 130 682 123 q 685 142 684 136 q 688 155 686 149 q 690 167 690 160 q 688 176 690 172 q 688 187 685 180 q 683 212 685 205 q 681 227 681 220 q 675 240 677 237 q 673 247 673 243 q 667 253 669 250 q 662 262 666 256 q 656 273 658 271 q 651 278 654 275 q 643 294 644 293 q 629 308 632 302 q 621 314 624 311 q 612 321 617 317 q 597 331 600 331 q 593 332 595 331 q 579 342 585 339 q 569 349 570 347 q 566 353 568 350 q 551 357 555 358 q 544 358 547 355 q 531 368 534 365 q 524 373 528 370 l 505 385 q 486 392 491 388 q 475 396 481 396 q 460 403 465 403 q 445 410 446 410 q 441 410 444 411 q 410 415 422 414 q 395 423 399 416 q 383 427 388 423 q 372 435 378 431 q 365 439 369 438 q 358 442 361 439 q 349 446 353 446 q 342 446 345 445 q 324 456 328 452 q 311 461 317 458 q 298 467 305 464 q 283 472 290 472 q 266 483 269 473 q 258 483 260 481 q 251 484 256 484 q 230 494 236 491 q 217 500 224 498 q 209 506 212 503 q 199 513 206 509 q 189 522 190 519 q 184 525 187 524 q 173 534 174 534 q 171 534 172 533 q 155 551 160 543 q 140 566 149 557 q 127 577 129 576 q 122 583 125 578 q 112 600 114 593 q 104 613 110 608 q 94 633 96 625 q 84 646 91 640 q 77 665 81 661 q 77 677 80 671 q 73 688 75 682 q 72 704 73 701 q 73 709 71 707 q 68 726 71 723 q 65 734 65 730 q 67 749 65 739 q 69 765 69 758 q 72 786 71 783 q 75 793 73 789 q 83 818 80 810 q 96 846 91 840 q 100 863 100 852 q 104 869 103 865 q 111 873 106 872 q 122 898 113 887 q 126 909 123 907 q 127 916 129 910 q 138 930 137 928 q 140 935 140 932 q 168 966 159 949 q 178 975 176 972 q 180 981 180 978 q 202 995 197 993 q 210 1001 208 997 q 224 1006 222 1004 q 229 1009 227 1008 q 243 1016 241 1016 q 260 1022 258 1020 q 266 1025 263 1024 q 287 1029 277 1027 q 308 1032 297 1031 q 337 1038 328 1039 q 350 1042 346 1038 q 366 1042 363 1040 q 372 1043 369 1043 q 393 1044 388 1042 q 404 1044 397 1046 q 429 1042 420 1039 q 438 1040 434 1039 q 446 1038 442 1040 q 459 1033 456 1032 q 465 1032 463 1034 q 477 1029 475 1028 q 481 1028 479 1029 q 528 1010 513 1024 q 538 1008 533 1009 q 544 1002 543 1008 q 558 998 557 1000 q 562 993 559 996 q 598 972 594 985 q 612 966 609 967 q 613 963 614 966 q 622 956 623 958 q 624 952 621 954 q 634 942 635 943 q 635 940 633 941 q 644 932 640 936 q 650 922 647 928 q 663 915 661 917 q 667 910 665 913 q 680 890 675 894 q 686 880 684 886 q 694 867 692 872 q 699 859 696 863 q 701 842 699 842 q 704 838 703 841 q 704 823 705 825 q 703 818 703 821 q 700 779 707 793 q 701 765 700 765 q 701 762 701 765 q 696 753 700 757 q 692 741 692 749 q 680 724 682 727 q 675 720 678 722 q 662 708 666 708 q 655 705 658 708 q 637 689 643 693 q 618 686 631 685 q 600 686 604 688 q 590 688 595 685 q 578 691 581 692 q 571 692 575 690 q 558 696 560 697 q 553 697 556 694 q 539 705 544 705 q 532 708 534 705 q 521 728 518 723 q 512 766 511 754 q 518 788 513 779 q 517 796 515 791 q 522 804 519 802 q 532 815 530 815 q 537 818 534 815 q 551 826 549 825 q 556 829 553 827 q 574 833 567 834 l 586 825 m 412 1122 q 409 1129 410 1124 q 404 1135 408 1134 q 400 1146 401 1143 q 395 1149 399 1149 q 385 1166 389 1161 q 377 1177 380 1171 q 364 1183 363 1180 q 362 1187 365 1185 q 349 1199 354 1195 q 339 1208 345 1203 q 328 1221 330 1219 q 323 1225 326 1222 q 310 1234 313 1230 q 301 1240 307 1237 q 285 1252 290 1249 q 269 1289 264 1271 l 277 1302 q 294 1305 292 1308 q 304 1301 297 1303 q 313 1286 313 1284 q 324 1270 323 1274 q 336 1261 335 1263 q 339 1260 336 1259 q 351 1247 349 1248 q 354 1244 353 1246 q 362 1239 358 1241 q 368 1230 366 1237 q 380 1223 376 1229 q 391 1215 384 1218 q 412 1200 397 1203 q 424 1190 422 1190 q 427 1188 426 1191 q 441 1203 438 1198 q 448 1213 444 1207 q 454 1222 452 1219 q 467 1233 464 1230 q 478 1247 476 1245 q 480 1253 480 1249 q 492 1266 488 1261 q 499 1278 496 1271 q 509 1291 507 1287 q 513 1298 511 1295 q 545 1302 532 1312 q 547 1294 545 1297 q 549 1286 549 1291 q 547 1278 549 1282 q 545 1267 544 1274 q 532 1257 533 1256 q 530 1256 532 1257 q 517 1239 522 1242 q 511 1227 513 1236 q 497 1221 500 1222 q 495 1213 494 1219 q 488 1208 490 1213 q 481 1200 486 1204 q 473 1188 473 1190 q 472 1185 473 1187 q 459 1171 467 1179 q 446 1153 452 1162 q 445 1145 446 1147 q 444 1137 444 1142 q 435 1128 435 1130 q 433 1124 434 1126 q 412 1122 423 1120 z "},"":{"ha":534,"x_min":34,"x_max":486,"o":"m 406 585 q 411 606 411 598 q 414 618 411 614 q 413 637 411 632 q 419 646 415 643 q 435 652 426 652 q 452 644 444 651 q 452 635 450 640 q 453 627 453 631 q 448 606 448 612 q 449 597 449 601 q 445 587 448 591 q 444 576 442 583 q 433 544 444 556 q 433 532 437 538 q 431 521 430 526 q 436 515 434 515 q 445 514 438 515 q 439 489 442 494 q 433 477 437 484 q 424 475 427 477 q 416 473 420 473 q 406 479 410 473 q 396 490 401 486 q 397 512 397 505 q 397 532 397 519 q 391 544 393 541 q 385 552 388 547 q 376 569 381 566 q 373 579 372 572 q 363 590 365 586 q 358 595 361 594 q 339 612 347 608 q 324 621 326 620 q 320 624 323 621 q 309 632 311 631 q 308 636 308 633 q 299 635 302 633 q 290 639 296 637 q 270 640 279 635 q 250 642 260 644 q 233 642 237 643 q 224 644 228 643 q 216 646 220 646 q 201 642 205 642 q 195 642 198 643 q 188 637 191 640 q 178 636 184 633 q 161 625 167 628 q 149 612 155 620 q 133 601 144 604 q 123 586 130 593 q 118 571 117 579 q 104 559 110 563 q 103 549 106 552 q 100 540 100 545 q 109 520 106 524 q 114 510 113 517 q 132 488 125 494 q 146 476 138 483 q 163 467 160 468 q 168 463 165 465 q 178 456 174 458 q 184 452 182 454 q 202 446 198 446 q 209 445 206 446 q 224 439 224 439 q 233 435 228 438 q 244 433 237 431 q 251 419 250 425 q 269 418 262 423 q 285 414 277 414 q 298 406 296 407 q 307 406 300 406 q 321 396 321 399 q 349 386 340 392 q 365 380 357 380 q 375 371 369 373 q 389 366 381 369 q 395 363 392 365 q 403 359 399 362 q 418 346 418 347 q 429 341 426 346 q 439 335 431 336 q 452 320 441 326 q 458 304 454 309 q 465 292 463 300 q 475 273 472 275 q 479 269 477 271 q 479 255 477 255 q 480 252 480 255 q 479 240 480 245 q 477 228 479 235 q 485 210 484 213 q 483 203 486 208 q 483 195 484 199 q 484 189 481 191 q 478 175 480 178 q 477 167 476 172 q 476 138 479 144 q 473 117 477 125 q 471 103 468 110 q 456 81 458 87 q 447 62 450 69 q 437 53 444 56 q 429 40 434 45 q 418 30 423 35 q 404 16 407 18 q 399 11 401 14 q 385 3 385 5 q 381 0 384 1 q 353 -9 362 -5 q 338 -16 345 -12 q 307 -20 313 -16 q 293 -27 300 -24 q 281 -25 282 -23 q 275 -27 279 -27 q 256 -28 260 -27 q 251 -34 252 -28 q 227 -27 239 -31 q 203 -20 216 -23 l 187 -16 q 180 -18 183 -16 q 171 -16 176 -19 q 157 -12 165 -14 q 140 -8 149 -11 q 123 -1 123 -1 q 110 5 110 5 q 107 7 110 4 q 92 23 95 20 q 85 33 88 26 q 73 43 73 42 q 72 46 72 43 q 60 60 60 56 q 60 69 61 65 q 52 82 52 80 q 54 84 52 84 q 51 97 52 91 q 47 110 50 103 q 49 123 50 119 q 47 132 47 127 q 50 139 49 134 q 53 148 52 144 q 57 167 54 164 q 60 172 60 170 l 72 187 q 92 206 83 193 q 111 216 109 214 q 115 217 113 217 q 130 218 127 217 q 137 221 133 220 q 153 219 145 221 q 167 216 160 217 q 199 206 189 213 q 221 193 210 199 q 222 180 221 184 q 224 165 222 175 q 224 153 224 159 q 224 140 225 146 q 220 127 221 127 q 217 125 220 127 q 206 114 209 117 q 190 101 194 102 q 183 98 186 100 q 172 98 175 100 q 165 95 168 95 q 158 96 163 98 q 151 98 153 95 q 141 104 144 100 q 132 109 138 109 q 123 121 122 121 q 123 123 125 122 q 127 134 126 127 q 134 144 129 141 q 172 136 157 137 q 181 152 179 148 q 183 159 183 156 q 175 175 179 174 q 163 179 164 178 q 159 182 161 180 q 149 181 151 183 q 140 179 146 179 q 111 172 118 179 q 94 159 104 164 q 89 140 90 151 q 84 122 88 129 q 85 102 83 104 q 91 98 88 100 q 98 79 95 85 q 104 69 100 73 q 113 56 110 57 q 113 49 115 56 q 123 43 119 49 q 130 34 126 37 q 142 31 136 31 q 156 27 149 30 q 165 20 159 23 q 178 19 171 16 q 184 16 180 16 q 191 12 189 15 q 203 11 198 9 q 212 8 209 12 q 229 7 224 9 q 241 5 235 5 q 252 5 251 7 q 256 4 254 4 q 269 5 264 5 q 275 7 273 4 q 290 10 286 8 q 296 8 293 12 q 310 15 302 14 q 326 19 317 16 q 344 28 336 24 q 355 37 351 31 q 370 41 365 37 q 381 47 374 45 q 384 60 382 61 q 388 61 385 60 q 392 75 391 68 q 397 85 393 81 q 397 98 395 92 q 399 111 399 104 q 397 126 399 118 q 397 142 396 134 q 391 148 392 144 q 387 155 389 152 q 379 170 378 168 q 378 172 380 171 q 363 184 365 183 q 359 187 362 184 q 353 198 355 198 q 353 201 351 198 q 345 206 346 201 q 336 212 343 212 q 331 220 334 216 q 321 225 328 224 q 307 235 311 231 q 294 239 304 240 q 289 245 293 244 q 283 252 285 247 q 274 256 278 255 q 267 263 270 258 q 257 264 260 262 q 251 269 254 266 q 237 278 237 271 q 222 282 227 278 q 207 286 212 281 q 191 293 202 292 q 172 304 178 304 q 163 308 165 304 q 133 317 146 317 q 125 325 130 323 q 117 331 121 327 q 109 336 114 334 q 102 346 103 339 q 90 350 91 350 q 85 351 88 350 q 79 359 81 354 q 71 365 77 365 q 65 375 68 370 q 58 382 62 380 q 58 391 60 388 q 53 397 56 393 q 43 415 43 412 q 41 427 41 420 q 37 437 42 433 q 37 455 39 445 q 35 476 34 465 q 42 492 41 488 q 39 498 43 495 q 44 515 42 509 q 46 532 46 521 q 57 544 54 543 q 57 551 56 549 q 58 559 58 553 q 67 572 69 571 q 66 575 65 572 q 72 589 73 587 q 71 594 71 590 q 84 601 79 602 q 95 614 95 613 q 96 616 95 614 q 107 629 102 624 q 123 643 121 642 q 130 644 126 644 q 138 651 133 648 q 152 658 144 654 q 172 663 165 670 q 194 673 189 670 q 208 680 199 677 q 224 679 214 678 q 240 680 233 680 q 262 675 251 678 q 283 677 273 673 q 300 670 297 673 q 305 667 302 667 q 323 663 317 663 q 340 646 335 654 q 356 639 350 643 q 369 628 362 635 q 392 606 384 612 q 397 593 393 598 q 406 585 401 589 m 274 761 q 271 768 271 764 q 266 774 270 773 q 262 785 263 783 q 256 788 260 788 q 246 805 251 800 q 239 817 241 810 q 226 822 225 819 q 224 826 227 825 q 211 838 216 834 q 201 848 206 842 q 189 860 191 859 q 184 864 187 861 q 172 873 175 869 q 163 879 168 876 q 146 891 152 888 q 130 928 126 910 l 138 941 q 156 945 153 947 q 165 940 159 943 q 175 925 175 924 q 186 909 184 913 q 197 900 197 902 q 201 899 198 898 q 212 886 210 887 q 216 883 214 886 q 224 878 220 880 q 229 869 228 876 q 241 863 237 868 q 252 854 245 857 q 274 840 259 842 q 286 829 283 829 q 289 827 288 830 q 302 842 300 837 q 309 852 305 846 q 316 861 313 859 q 328 872 326 869 q 340 886 338 884 q 342 892 342 888 q 354 905 350 901 q 361 917 358 910 q 371 930 369 926 q 374 937 373 935 q 407 941 393 951 q 409 933 407 936 q 411 925 411 930 q 408 917 411 921 q 407 906 406 913 q 394 896 395 895 q 392 895 393 897 q 379 878 384 882 q 373 867 374 875 q 359 860 362 861 q 357 852 355 859 q 349 848 351 852 q 343 840 347 844 q 335 827 335 829 q 334 825 335 826 q 321 810 328 818 q 308 792 313 802 q 307 784 308 787 q 305 776 305 781 q 296 767 297 769 q 294 764 296 765 q 274 761 285 760 z "},"":{"ha":755,"x_min":-187,"x_max":964,"o":"m 964 994 q 941 984 945 987 q 930 977 936 981 q 913 978 921 983 q 898 979 905 972 q 888 975 894 977 q 880 971 883 974 q 869 972 873 974 q 860 967 865 970 l 845 962 q 817 950 826 952 q 800 945 808 948 q 788 932 789 935 q 784 933 787 930 q 768 920 770 921 q 764 916 766 918 q 738 879 742 903 q 725 861 732 865 q 715 848 718 857 q 699 834 704 845 q 685 818 694 823 q 682 811 684 814 q 677 804 680 808 q 673 798 675 802 q 665 792 670 793 q 663 785 667 788 q 656 777 659 781 q 644 753 648 757 q 637 742 639 750 q 627 730 629 731 q 625 724 624 730 q 617 716 618 722 q 609 711 616 711 q 600 696 598 697 q 600 692 601 694 q 587 675 589 681 q 579 669 586 670 q 568 652 578 656 q 559 639 560 644 q 552 633 559 633 q 547 622 551 624 q 540 617 543 620 q 532 600 533 605 q 530 593 532 595 q 519 576 524 579 q 517 571 514 574 q 510 560 509 562 q 511 556 511 559 q 499 543 502 548 q 490 533 496 536 q 481 525 484 530 q 472 503 475 507 q 467 494 469 498 q 467 486 468 490 q 464 477 465 481 q 463 467 464 472 q 461 457 461 463 q 460 439 460 449 q 467 426 461 429 q 466 401 464 411 q 463 385 468 392 q 465 371 467 372 q 464 369 464 370 q 465 356 464 365 q 463 345 467 347 q 464 332 467 332 q 461 330 461 332 q 463 322 461 326 q 467 313 465 319 q 467 302 468 308 q 469 293 465 297 q 469 275 468 283 q 468 258 469 266 q 468 235 467 240 q 467 224 465 229 q 469 213 469 220 q 467 203 469 209 q 468 193 465 197 q 469 182 471 190 q 473 170 468 174 q 472 162 471 165 q 475 153 473 159 q 474 144 475 152 q 479 136 473 137 q 477 118 475 126 q 480 99 480 110 q 479 88 479 90 q 481 84 480 87 q 486 68 483 72 q 486 61 488 65 q 494 48 488 54 q 505 37 499 42 q 517 34 511 35 q 526 30 522 33 q 542 33 541 35 q 545 31 543 31 q 557 35 556 35 q 560 34 559 34 q 595 37 575 37 q 631 39 614 37 q 650 47 643 53 q 662 37 656 41 q 674 18 674 24 q 671 5 674 8 q 661 -5 667 1 q 644 -4 651 -5 q 625 -4 636 -3 q 610 -5 613 -4 q 605 -4 608 -5 q 591 -4 591 -3 q 587 -5 590 -5 q 574 -7 582 -7 q 563 -7 567 -7 q 551 -7 555 -5 q 543 -9 547 -9 q 524 -12 529 -9 q 503 -11 514 -9 q 480 -12 491 -12 q 460 -14 464 -12 q 453 -15 456 -15 q 432 -14 442 -15 q 411 -15 422 -14 q 399 -16 406 -15 q 388 -16 393 -18 q 373 -15 374 -14 q 370 -16 372 -16 q 355 -15 358 -15 q 346 -14 351 -15 q 334 -12 335 -11 q 330 -12 332 -12 q 317 -11 326 -11 q 304 -8 309 -11 q 294 -10 298 -11 q 283 -9 289 -9 q 268 -11 277 -8 q 252 -8 259 -14 q 216 -13 232 -9 q 184 -19 199 -16 q 174 -17 175 -15 q 170 -19 172 -19 q 155 -20 159 -18 q 144 -24 151 -22 q 115 -28 125 -26 q 95 -26 106 -30 q 90 -12 92 -14 q 84 -8 87 -11 q 87 2 85 1 q 91 5 88 3 q 107 16 103 14 q 114 18 111 18 q 131 18 125 16 q 144 22 137 20 q 167 25 163 20 q 175 24 171 30 q 196 30 189 27 q 210 33 203 33 q 233 39 228 34 q 245 47 239 45 q 252 57 248 53 q 259 64 256 61 q 268 74 264 71 q 274 84 271 77 q 277 101 277 99 q 278 104 278 103 q 276 118 278 111 q 275 133 274 125 q 277 143 278 141 q 275 148 275 145 q 276 155 275 151 q 277 163 277 159 q 275 178 274 174 q 274 184 275 183 l 271 231 q 274 239 273 235 q 275 247 275 243 q 274 269 273 263 q 274 282 275 275 q 281 317 281 305 q 279 342 281 330 q 277 368 278 355 q 278 392 275 381 q 281 410 282 407 q 281 416 281 414 q 279 433 279 431 q 277 437 278 434 q 267 461 270 457 q 257 471 256 469 q 256 473 258 472 q 246 490 250 484 q 240 498 243 495 q 235 513 235 510 q 227 524 227 522 q 225 529 227 526 q 211 551 214 543 q 201 567 208 560 q 196 573 198 570 q 191 579 194 576 q 184 587 186 583 q 179 595 182 591 q 175 603 176 598 q 171 613 174 608 l 153 639 q 141 660 145 652 q 134 674 137 667 q 131 683 133 677 q 126 692 129 689 q 119 706 121 699 q 111 716 118 713 q 106 730 107 728 q 103 731 106 731 q 98 742 102 738 q 91 751 94 746 l 81 764 q 69 783 72 779 q 64 789 66 787 q 54 804 54 802 q 52 808 54 806 q 37 825 41 819 q 31 835 34 830 q 24 845 28 840 q 15 857 19 853 q 10 867 11 864 q 7 871 9 869 q -12 899 -4 890 q -26 920 -20 909 q -39 933 -37 926 q -51 941 -47 936 q -62 949 -54 947 q -78 964 -75 962 q -91 966 -81 967 q -98 970 -94 971 q -109 972 -102 970 q -141 983 -127 978 q -155 980 -149 982 q -168 979 -161 978 q -178 986 -176 986 q -182 987 -180 986 q -184 1001 -182 997 q -187 1009 -187 1005 q -186 1020 -187 1016 q -184 1029 -186 1024 q -176 1033 -179 1029 q -170 1038 -174 1036 q -158 1035 -167 1035 q -152 1027 -149 1035 q -136 1028 -138 1028 q -133 1027 -134 1028 q -118 1025 -118 1024 q -115 1025 -118 1027 q -99 1022 -104 1021 q -90 1017 -94 1023 q -49 1009 -64 1021 q -35 1013 -42 1013 q -20 1010 -28 1012 q -12 1011 -16 1010 q -4 1012 -8 1012 q 27 1006 18 1006 q 39 1007 34 1006 q 50 1002 45 1008 q 60 1004 56 1005 q 71 1005 64 1004 q 81 1007 75 1005 q 99 1006 88 1009 q 117 1006 115 1006 q 119 1005 118 1005 q 132 1007 126 1005 q 144 1008 137 1009 q 163 1013 159 1010 q 171 1016 167 1016 q 182 1015 182 1016 q 186 1015 183 1015 q 206 1013 199 1015 q 220 1010 213 1010 q 234 1009 229 1010 q 241 1008 239 1008 q 250 1009 245 1008 q 258 1010 255 1010 q 268 1010 264 1010 q 278 1009 271 1009 q 291 1014 288 1012 q 301 1016 294 1016 q 311 1015 307 1017 q 323 1016 316 1013 q 331 979 336 993 q 313 975 316 974 q 302 975 309 975 q 291 975 297 977 q 278 974 285 972 q 262 975 270 974 q 251 968 255 975 q 241 968 244 970 q 232 964 237 966 q 227 951 229 959 q 227 936 224 943 q 224 922 224 925 q 227 917 224 920 q 229 888 228 897 q 237 872 231 879 q 246 852 243 859 q 254 838 250 845 q 268 812 260 821 q 278 788 275 803 q 286 778 282 784 q 294 768 289 772 q 296 759 293 762 q 301 751 298 755 q 311 734 307 738 q 321 712 317 715 q 323 703 324 709 q 337 684 332 686 q 342 674 342 681 q 353 659 349 662 q 357 647 357 655 q 363 632 366 632 q 369 626 366 628 q 374 618 372 624 q 382 606 378 614 q 393 595 385 597 q 396 586 393 590 q 401 578 399 582 q 410 564 406 571 q 418 548 414 556 q 425 534 423 538 q 430 529 426 530 q 449 537 446 525 q 459 545 457 545 q 463 548 461 545 q 473 570 468 563 q 477 576 476 572 q 480 583 477 581 q 492 593 495 590 q 491 600 488 595 q 501 611 498 604 q 511 621 505 618 q 515 632 509 628 q 521 643 521 636 q 534 658 532 655 q 540 661 536 661 q 553 684 544 675 q 567 708 563 693 q 585 731 578 718 q 604 754 593 745 q 611 769 609 766 q 616 774 613 772 q 621 782 618 776 q 625 791 623 788 q 633 804 631 800 q 635 814 636 808 q 643 818 642 814 q 646 827 644 822 q 652 832 650 829 q 661 836 655 836 q 669 848 667 845 q 674 853 670 852 q 684 876 680 872 q 688 889 686 887 q 692 894 689 891 q 697 904 694 899 q 700 917 700 909 q 691 928 693 926 q 686 935 689 930 q 672 941 674 940 q 669 944 670 941 q 659 945 662 943 q 648 949 655 948 q 631 954 635 951 q 623 959 627 958 q 604 960 606 959 q 600 962 602 962 q 574 960 581 959 q 560 963 567 962 q 546 963 553 963 q 533 967 538 963 q 521 975 519 975 q 521 978 522 975 q 522 997 517 989 q 540 1006 534 1005 q 552 1006 545 1008 q 600 1002 582 1001 q 632 1001 618 1004 q 648 1004 647 1004 q 652 1002 650 1004 q 665 1004 658 1005 q 678 1004 671 1002 q 700 1007 694 1006 q 709 1008 705 1008 q 722 1008 720 1005 q 727 1009 724 1010 q 747 1008 736 1006 q 766 1008 758 1010 q 777 1013 772 1010 q 788 1015 781 1016 q 803 1014 800 1012 q 808 1016 806 1016 q 833 1016 827 1015 q 845 1017 838 1017 q 863 1017 857 1015 q 876 1020 869 1019 q 899 1019 887 1020 q 922 1020 910 1017 q 937 1024 935 1023 q 959 1012 955 1020 q 959 997 963 1004 l 964 994 m 477 1176 q 474 1166 475 1169 q 472 1160 473 1162 q 462 1141 465 1145 q 456 1133 458 1138 q 446 1132 449 1134 q 438 1130 442 1130 q 423 1142 426 1138 q 419 1152 420 1146 q 434 1176 425 1172 q 433 1183 433 1181 q 434 1191 434 1184 q 441 1199 441 1196 q 445 1203 442 1202 q 450 1220 446 1217 q 449 1226 453 1223 q 460 1240 456 1233 q 467 1257 465 1246 q 479 1282 476 1265 q 486 1294 484 1294 q 490 1297 488 1294 q 498 1325 492 1312 q 507 1326 502 1326 q 517 1328 513 1326 q 525 1338 526 1337 q 525 1341 524 1339 q 535 1345 532 1341 q 543 1351 538 1348 q 559 1350 549 1348 q 575 1345 568 1351 q 598 1345 590 1344 q 612 1344 606 1347 q 616 1318 621 1329 q 606 1308 608 1310 q 602 1303 605 1305 q 585 1293 589 1303 q 568 1282 581 1283 q 564 1275 566 1278 q 562 1267 562 1272 q 554 1263 556 1267 q 548 1260 552 1260 q 544 1252 545 1256 q 537 1246 543 1248 q 524 1225 526 1234 q 517 1221 518 1225 q 510 1217 515 1218 q 503 1206 506 1211 q 495 1199 500 1202 q 492 1190 495 1192 q 488 1181 490 1187 l 477 1176 z "},"":{"ha":556,"x_min":-65,"x_max":651,"o":"m 282 670 q 273 661 275 661 q 269 658 271 661 q 252 654 254 654 q 248 655 250 655 q 214 653 221 662 q 197 639 208 644 q 194 626 195 632 q 189 614 193 620 q 186 587 187 598 q 193 560 186 575 q 195 551 194 557 q 198 541 195 545 q 204 522 203 525 q 208 515 205 518 q 213 498 210 505 q 217 483 214 486 q 224 469 221 472 q 231 461 228 465 q 235 446 235 450 q 236 435 235 441 q 241 424 240 425 q 243 420 241 423 q 248 405 250 406 q 247 401 247 404 q 259 382 254 389 q 262 366 264 376 q 271 347 267 349 q 278 323 275 331 q 281 316 279 319 q 286 309 283 313 q 289 297 288 298 q 292 293 290 296 q 298 269 300 278 q 315 239 307 243 q 321 223 320 225 q 326 220 323 221 q 335 218 335 210 q 340 231 335 227 q 349 252 340 244 q 349 267 350 260 q 351 279 349 273 q 357 294 351 283 q 358 311 359 302 q 361 320 361 313 q 359 330 362 327 q 365 350 363 346 q 368 361 366 354 q 369 370 369 366 q 370 381 369 374 l 377 403 q 385 431 384 425 q 389 446 387 441 q 395 467 396 463 q 396 475 395 472 q 403 498 400 484 q 408 508 406 503 q 411 518 411 513 l 418 536 q 424 547 422 541 q 429 560 426 553 q 437 576 438 575 q 438 579 437 576 q 440 607 439 600 q 438 621 441 614 q 427 634 427 632 q 425 639 427 636 q 406 642 414 640 q 391 650 397 644 q 381 661 384 659 q 374 665 378 662 q 374 686 369 681 q 387 693 380 692 q 394 692 391 694 q 403 690 397 690 q 416 690 414 692 q 420 689 418 689 q 439 690 437 688 q 453 691 446 692 q 467 692 460 690 q 479 692 476 693 q 486 690 483 690 q 493 691 488 690 q 500 692 498 692 q 530 692 515 693 q 560 693 545 692 q 578 693 576 694 q 583 692 581 692 q 606 688 604 688 q 614 688 610 686 q 623 690 618 689 q 638 690 635 690 q 646 689 642 689 l 651 674 q 621 654 648 647 q 597 648 602 644 q 586 655 591 651 q 574 656 575 658 q 571 655 574 655 q 555 653 562 656 q 543 652 549 650 q 531 643 532 644 q 528 639 530 642 q 519 631 522 635 q 511 627 517 628 q 503 610 503 612 q 502 605 502 608 q 489 590 490 594 q 484 586 488 586 q 480 578 484 579 q 477 570 476 576 l 468 552 q 458 534 461 544 q 449 517 456 524 q 447 509 448 513 q 448 500 446 506 q 439 488 441 490 q 437 481 438 486 q 431 461 437 469 q 429 445 425 453 q 420 426 420 430 q 416 419 420 422 q 415 406 418 411 q 410 399 412 401 q 410 385 411 387 q 408 381 408 384 q 409 374 408 378 q 410 365 410 369 q 408 357 410 362 q 406 349 407 353 q 403 334 404 335 q 401 331 401 334 q 399 315 399 313 q 392 288 397 296 q 391 275 395 281 q 385 263 388 269 q 381 245 384 247 q 378 241 378 244 q 378 224 380 235 q 372 201 373 206 q 366 194 370 197 q 365 177 366 179 q 362 172 363 175 q 358 156 359 156 q 355 138 357 142 q 349 130 353 133 q 349 112 350 121 q 342 100 349 103 q 338 77 340 85 q 331 64 336 68 q 323 31 334 46 q 322 22 324 26 q 317 15 320 19 q 314 0 315 3 q 311 -8 313 -3 q 308 -16 308 -14 q 305 -23 308 -18 q 299 -41 304 -35 q 292 -54 294 -47 q 289 -81 294 -68 q 283 -103 285 -100 q 279 -110 281 -106 q 273 -129 273 -123 q 267 -136 273 -134 q 264 -151 264 -149 q 262 -153 264 -153 q 256 -165 259 -160 q 251 -178 254 -171 q 243 -193 243 -191 q 235 -206 237 -203 q 231 -209 233 -209 q 212 -233 224 -227 q 203 -241 209 -239 q 197 -251 198 -244 q 176 -274 183 -259 q 166 -279 170 -274 q 157 -288 163 -285 q 151 -290 155 -290 q 142 -293 148 -290 q 137 -299 140 -296 q 127 -304 134 -302 q 121 -304 125 -305 q 113 -304 117 -302 q 98 -311 106 -307 q 80 -312 91 -315 q 57 -319 64 -317 q 42 -320 50 -321 q 22 -314 28 -313 q 9 -312 16 -315 q -8 -302 -4 -302 q -15 -300 -12 -301 q -24 -290 -20 -296 q -34 -281 -27 -283 q -38 -271 -34 -274 q -45 -263 -42 -269 q -52 -232 -50 -239 q -57 -217 -54 -225 q -59 -199 -58 -205 q -56 -193 -60 -194 q -57 -181 -58 -186 q -53 -171 -56 -176 q -41 -155 -49 -163 q -33 -151 -38 -152 q -24 -142 -27 -149 l 3 -140 q 16 -139 7 -140 q 33 -140 26 -138 q 49 -151 46 -149 q 53 -155 52 -152 q 68 -163 64 -156 q 80 -175 72 -170 q 81 -184 76 -180 q 90 -194 87 -189 q 90 -201 91 -197 q 92 -209 90 -206 q 90 -224 90 -216 q 88 -239 90 -232 q 75 -246 81 -243 q 66 -256 69 -250 q 56 -258 58 -254 q 49 -263 54 -262 q 41 -261 45 -263 q 33 -262 38 -259 q 14 -248 26 -254 q 11 -241 14 -243 q 11 -233 8 -239 q 26 -223 24 -225 q 31 -221 28 -221 q 40 -221 35 -220 q 49 -220 45 -222 q 46 -198 50 -209 q 35 -180 42 -187 q 26 -180 31 -183 q 16 -178 22 -178 q 9 -178 14 -178 q 1 -179 4 -179 q -20 -193 -15 -182 q -19 -213 -26 -203 q -19 -233 -22 -220 q -14 -242 -15 -237 q -9 -251 -12 -247 q -5 -259 -4 -256 q -3 -264 -5 -262 q 14 -275 11 -273 q 22 -281 18 -278 q 38 -286 31 -279 q 49 -286 43 -285 q 57 -285 54 -288 q 78 -280 73 -283 q 92 -278 83 -277 q 107 -271 98 -273 q 123 -266 117 -270 q 138 -252 130 -259 q 153 -237 146 -245 q 168 -222 163 -231 q 178 -215 172 -218 q 184 -203 183 -212 q 207 -172 195 -182 q 221 -142 218 -161 q 230 -124 229 -127 q 232 -118 231 -121 q 241 -98 237 -102 q 245 -87 244 -94 q 248 -76 245 -81 q 254 -57 251 -65 q 255 -43 258 -49 q 250 -37 254 -39 q 243 -33 247 -35 q 244 -12 248 -15 q 245 5 247 4 q 243 9 244 7 q 241 27 239 24 q 233 40 237 34 q 232 53 229 46 q 220 71 224 66 q 217 77 217 73 q 214 85 217 81 q 218 94 216 91 q 221 99 220 96 q 217 117 218 115 q 208 142 212 134 q 201 153 205 149 q 194 175 195 172 q 186 198 189 194 q 184 212 184 202 q 176 227 180 220 q 170 244 172 235 q 163 258 163 252 q 161 266 163 263 q 153 283 159 273 q 146 302 151 297 q 142 313 144 312 q 138 317 140 315 q 136 329 138 326 q 136 338 134 332 q 127 362 129 357 q 125 378 126 368 q 118 391 121 388 q 113 399 115 393 q 111 408 111 403 q 110 416 111 412 q 105 429 104 427 q 104 433 106 431 q 100 446 99 445 q 98 449 100 448 q 95 465 94 464 q 92 476 91 473 q 91 483 92 479 q 84 493 84 491 q 83 496 84 495 q 75 517 75 511 q 73 528 76 522 q 68 541 68 538 q 66 551 68 544 q 56 571 57 564 q 49 581 54 578 q 48 588 50 586 q 46 595 46 590 q 27 623 35 616 q 16 640 19 629 q -17 643 -5 640 q -37 652 -28 646 q -57 656 -49 650 q -62 681 -65 663 q -45 689 -50 690 q -38 688 -41 688 q 14 688 -9 684 q 32 686 23 686 q 47 685 41 686 q 64 688 64 688 q 76 688 66 686 q 90 690 85 690 q 116 691 110 690 q 129 692 122 692 q 136 690 133 692 q 144 689 140 689 q 157 690 157 689 q 159 690 157 690 q 171 690 167 689 q 180 692 175 692 q 193 692 190 690 q 198 693 195 693 q 213 694 208 692 q 221 696 216 696 q 231 697 227 696 q 236 700 233 699 q 245 701 239 701 q 256 698 248 700 q 267 694 263 696 q 276 685 273 692 q 282 670 279 678 m 339 898 q 336 888 336 891 q 334 882 335 884 q 323 863 327 867 q 317 854 320 860 q 307 854 311 856 q 300 852 304 852 q 285 864 288 860 q 281 873 282 868 q 296 898 286 894 q 295 905 294 903 q 296 913 296 906 q 303 921 302 918 q 307 925 304 924 q 311 942 308 939 q 311 948 315 945 q 322 962 317 955 q 328 979 327 968 q 340 1004 338 987 q 348 1016 346 1016 q 351 1019 350 1016 q 359 1047 354 1034 q 369 1048 363 1048 q 378 1050 374 1048 q 387 1060 388 1059 q 387 1063 385 1061 q 397 1067 393 1063 q 404 1073 400 1070 q 420 1072 411 1070 q 437 1067 430 1073 q 460 1067 452 1066 q 473 1066 468 1069 q 477 1040 483 1051 q 468 1029 469 1032 q 464 1025 467 1027 q 446 1015 450 1025 q 430 1004 442 1005 q 425 997 427 1000 q 423 989 423 994 q 416 985 418 989 q 410 982 414 982 q 406 974 407 978 q 399 968 404 970 q 385 947 388 956 q 378 943 380 947 q 372 939 377 940 q 365 928 368 933 q 357 921 362 924 q 354 911 357 914 q 350 903 351 909 l 339 898 z "},"":{"ha":947,"x_min":-64,"x_max":954,"o":"m 954 505 q 950 490 949 499 q 944 476 951 480 q 946 463 951 471 q 945 449 941 456 l 937 420 q 931 405 930 406 q 930 401 932 404 q 924 390 924 391 q 922 387 924 389 q 917 376 917 378 q 916 372 917 374 q 904 355 907 361 q 898 342 901 349 q 883 335 884 339 q 879 328 882 331 q 867 319 871 323 q 860 311 863 315 q 847 304 852 308 q 834 297 842 300 q 811 277 817 285 q 798 270 804 277 q 782 260 785 259 q 776 258 779 260 q 757 248 762 250 q 747 241 751 245 q 734 239 741 243 q 722 233 728 235 q 713 231 718 231 q 705 231 709 232 q 693 224 694 224 q 690 225 692 225 q 680 220 684 220 q 673 217 675 220 q 661 219 666 221 q 648 217 655 217 q 632 214 637 217 q 620 217 627 212 q 603 212 613 213 q 586 205 593 212 q 570 204 578 205 q 551 201 562 203 q 536 200 543 199 q 524 201 530 201 q 514 198 518 199 q 506 197 510 197 q 491 196 499 195 q 473 195 483 197 q 456 195 460 194 q 446 198 452 197 q 435 199 441 199 q 425 198 430 198 q 413 199 418 198 q 401 199 408 201 q 391 188 391 189 q 392 184 392 187 q 393 170 391 174 q 395 160 395 167 q 394 140 395 142 q 392 134 393 137 q 394 122 395 130 q 396 110 393 114 q 397 81 397 94 q 396 63 395 66 q 399 57 397 60 q 410 31 404 37 q 420 19 415 26 q 429 18 425 20 q 439 18 434 16 q 451 16 448 18 q 458 12 454 14 q 478 9 475 9 q 484 8 481 8 q 497 10 491 8 q 509 8 503 12 q 524 11 514 12 q 543 12 534 9 q 565 18 562 15 q 575 23 568 22 q 578 16 576 19 q 581 8 579 12 q 583 -9 583 -3 q 563 -27 578 -24 q 548 -26 553 -30 q 533 -20 543 -22 q 518 -24 519 -23 q 514 -26 517 -26 q 490 -25 498 -23 q 471 -24 481 -27 q 456 -22 457 -22 q 452 -23 454 -23 q 427 -24 435 -22 q 412 -24 419 -26 q 388 -18 399 -24 q 374 -20 380 -19 q 366 -23 369 -20 q 359 -21 362 -23 q 351 -19 355 -19 q 331 -19 335 -20 q 323 -18 327 -18 q 307 -19 309 -20 q 298 -18 304 -18 l 283 -18 q 250 -19 260 -16 q 231 -20 240 -22 q 201 -17 213 -16 q 184 -16 190 -18 q 163 -18 171 -18 q 148 -22 155 -19 q 133 -31 141 -23 q 119 -39 119 -37 q 117 -41 118 -41 q 98 -42 100 -45 q 83 -47 92 -47 q 66 -52 73 -47 q 60 -50 64 -49 q 52 -52 57 -52 q 24 -54 31 -54 q 9 -54 11 -53 q 5 -54 7 -56 q -3 -52 0 -54 q -11 -47 -7 -49 q -39 -49 -23 -45 q -52 -43 -45 -45 q -62 -34 -60 -41 q -61 -26 -64 -28 q -60 -16 -58 -23 q -54 -12 -57 -14 q -47 -7 -50 -9 q -24 -7 -37 -9 q -1 -3 -12 -4 q 9 -1 4 -1 q 20 -1 15 -1 q 40 0 31 0 q 60 3 49 0 q 76 5 73 5 q 81 4 79 4 q 93 5 92 5 q 96 4 94 4 q 117 9 114 9 q 125 11 119 8 q 146 25 144 20 q 156 30 149 30 q 168 44 165 39 q 176 52 171 49 q 180 67 176 60 q 186 83 183 75 q 189 96 187 95 q 190 99 190 96 q 195 128 193 121 q 199 142 198 136 q 201 164 199 160 q 203 171 203 168 q 201 181 203 176 q 201 191 199 186 q 203 199 201 195 q 205 208 205 202 q 205 225 205 221 q 206 233 206 229 q 205 243 206 237 q 206 255 205 248 q 205 273 208 270 q 203 281 203 277 q 205 304 206 298 q 203 316 205 309 q 203 328 201 327 q 205 332 205 330 l 205 349 q 205 364 206 357 q 205 380 205 372 q 206 400 205 396 q 205 407 208 404 q 208 436 209 422 q 208 465 206 450 q 208 479 209 477 q 208 484 208 481 q 210 503 210 495 l 208 544 q 206 560 209 557 l 206 579 q 203 620 201 605 q 199 648 206 635 q 203 669 202 663 q 201 681 203 674 q 201 694 203 693 q 201 697 199 694 q 201 715 203 708 q 205 730 198 722 q 201 745 201 734 q 203 768 201 755 q 203 792 206 780 q 199 817 198 811 q 201 829 201 822 q 204 849 203 840 q 205 871 205 859 q 204 882 203 880 q 205 886 205 883 q 203 897 205 890 q 201 906 201 903 q 202 915 201 910 q 203 924 203 920 q 197 936 201 930 q 195 948 194 941 q 191 958 194 955 q 187 966 187 960 q 177 970 180 966 q 167 978 174 975 q 152 977 155 979 q 127 982 134 979 q 114 987 121 985 q 92 984 103 983 q 71 982 81 985 q 55 978 56 979 q 53 977 54 977 q 42 977 45 978 q 35 979 39 977 q 14 982 18 983 q 5 983 9 981 q -18 981 -12 982 q -31 979 -24 979 q -41 991 -38 981 q -41 1008 -42 1005 q -35 1009 -39 1010 q -3 1015 -16 1017 q 18 1019 9 1013 q 26 1018 22 1016 q 35 1020 31 1020 q 45 1018 41 1017 q 52 1019 49 1019 q 71 1021 66 1021 q 81 1021 76 1020 q 97 1023 92 1024 q 104 1024 102 1023 q 113 1027 109 1025 q 121 1028 117 1028 q 127 1028 123 1029 q 136 1027 132 1027 q 158 1028 155 1029 q 167 1027 161 1027 q 182 1028 179 1029 q 189 1027 186 1027 l 210 1027 q 224 1029 222 1029 q 228 1028 225 1028 q 243 1029 239 1028 q 250 1031 247 1031 q 268 1029 264 1028 q 274 1031 271 1031 q 281 1029 278 1031 q 289 1028 285 1028 q 318 1025 304 1025 q 346 1023 332 1025 q 371 1024 358 1021 q 393 1028 384 1027 q 401 1027 396 1028 q 408 1024 406 1025 q 428 1022 425 1023 q 439 1021 431 1021 q 462 1026 453 1025 q 473 1021 471 1027 q 494 1024 480 1027 q 521 1021 507 1021 q 539 1019 536 1021 q 547 1016 543 1017 q 572 1017 566 1017 q 585 1019 579 1017 q 602 1016 591 1019 q 617 1010 612 1013 q 621 998 618 1004 q 620 986 623 993 q 612 979 618 981 q 602 974 605 978 q 581 976 595 977 q 562 981 567 975 q 549 979 551 978 q 544 981 547 981 q 534 976 538 979 q 524 971 529 972 q 512 971 515 971 q 506 970 509 971 q 488 968 491 970 q 481 962 484 966 q 468 955 468 956 q 465 956 468 954 q 452 941 461 945 q 447 933 449 937 q 441 926 445 929 q 429 909 439 916 q 424 893 426 897 q 419 887 422 890 q 408 875 410 878 q 403 869 406 872 q 402 856 404 857 q 399 850 400 854 q 399 825 397 831 q 427 822 422 822 q 437 824 431 822 q 448 826 442 826 q 469 825 458 827 q 490 830 479 823 q 513 826 500 827 q 533 827 525 825 q 547 826 540 829 q 560 825 553 823 q 583 825 581 825 q 606 825 594 823 q 628 826 617 827 q 652 817 647 821 q 667 817 656 814 q 700 809 686 812 q 720 798 713 806 q 732 797 727 800 q 742 791 736 793 q 753 788 753 789 q 757 785 754 787 q 774 778 772 780 q 779 776 776 776 q 793 770 792 772 q 796 766 793 768 l 810 758 q 826 747 825 750 q 831 745 827 745 q 850 731 846 735 q 861 727 854 727 q 876 707 867 715 q 892 690 884 700 l 903 678 q 907 671 905 673 q 907 662 910 669 q 920 645 917 647 q 925 640 922 643 q 927 629 924 633 q 933 618 930 625 q 951 541 947 587 q 951 523 952 532 q 954 505 951 514 m 741 477 q 739 518 742 500 q 738 545 739 538 l 732 566 q 726 583 726 579 q 727 593 727 587 q 720 604 722 597 q 715 616 718 610 q 709 629 711 628 q 707 633 707 631 q 703 640 704 636 q 701 650 701 643 q 691 661 692 661 q 689 662 690 661 q 684 675 684 674 q 682 678 684 677 q 676 688 680 684 q 670 699 673 692 q 660 704 663 700 q 654 712 656 708 q 641 718 644 713 q 633 726 637 723 q 618 733 620 731 q 612 732 616 735 q 607 739 610 738 q 601 745 604 741 q 589 751 590 749 q 586 753 589 753 q 578 756 582 755 q 571 761 574 757 q 555 762 560 758 q 540 765 551 766 q 524 776 526 776 q 511 779 517 774 q 499 784 506 783 q 478 783 488 785 q 461 788 468 781 q 454 786 458 787 q 446 783 450 785 l 393 785 q 392 769 392 773 q 393 744 389 758 q 389 722 396 730 q 391 706 391 715 q 388 690 392 697 q 393 668 391 680 q 393 646 395 656 q 396 623 392 627 q 396 613 395 617 q 396 604 397 609 q 395 589 393 590 q 393 586 396 587 q 395 571 396 576 q 397 560 395 566 q 394 514 395 532 q 391 477 393 496 q 393 454 396 469 l 393 396 q 391 370 391 389 q 391 338 391 351 q 391 323 389 323 q 392 321 392 323 q 392 302 391 307 q 393 294 393 297 q 394 271 395 283 q 393 247 393 259 q 397 239 395 239 q 406 237 400 239 q 415 235 411 236 q 425 237 419 235 q 441 235 441 232 q 446 236 442 237 q 453 233 449 233 q 461 233 457 233 q 493 236 477 235 q 519 235 509 237 q 534 238 532 236 q 543 243 537 240 q 583 246 567 240 q 616 259 600 252 q 628 264 623 262 q 637 270 633 267 q 647 278 646 275 q 650 282 648 281 q 658 288 656 286 q 662 292 659 290 q 671 301 673 300 q 671 305 670 302 q 684 315 684 313 q 688 321 686 319 q 694 326 690 324 q 701 338 697 332 q 708 350 705 343 q 716 372 715 368 q 720 382 718 376 q 727 401 727 399 q 728 410 728 406 q 728 419 727 415 q 732 433 732 430 q 731 438 731 435 q 736 452 735 450 q 738 456 738 453 q 739 467 739 461 q 741 477 738 472 z "},"":{"ha":681,"x_min":-49,"x_max":625,"o":"m 346 633 q 317 625 326 627 q 304 616 308 623 q 296 613 300 614 q 289 610 293 612 q 283 599 289 601 q 277 590 278 597 q 262 574 267 578 q 258 563 258 571 q 244 547 245 551 q 239 541 243 544 q 237 528 241 534 q 229 518 233 521 q 229 507 232 511 q 224 496 225 503 q 227 473 227 480 q 229 461 227 467 q 230 433 228 441 q 232 418 232 425 l 229 403 q 229 391 231 395 q 228 384 228 387 q 229 351 231 359 q 227 331 228 342 q 226 296 225 313 q 225 263 227 278 q 229 253 229 258 q 228 245 228 248 q 229 231 228 236 q 229 221 229 225 q 227 206 227 210 q 229 192 227 198 q 232 179 232 186 q 231 170 232 174 q 229 160 231 165 q 227 130 229 138 q 225 114 225 121 q 231 88 228 94 q 236 75 235 83 q 244 70 241 72 q 252 65 247 68 q 261 55 260 57 q 263 52 262 53 q 290 35 283 42 q 308 26 296 28 q 318 18 311 20 q 332 14 326 16 q 355 8 343 11 q 378 7 366 5 q 391 14 388 14 q 397 18 395 15 q 419 27 410 18 q 421 35 420 30 q 425 43 422 39 q 437 63 435 60 q 441 71 438 66 q 447 87 448 83 q 449 96 446 91 q 454 111 453 110 q 456 115 456 113 q 456 123 457 119 q 457 132 456 127 q 462 147 463 142 q 463 155 461 152 q 468 163 469 159 q 467 174 467 167 q 469 181 468 176 q 471 190 471 186 q 471 198 472 194 q 471 208 469 202 q 473 222 476 221 q 472 225 471 222 q 473 239 475 240 q 472 241 472 239 q 475 256 476 248 q 473 271 473 264 q 474 283 475 281 q 473 288 473 285 q 475 304 476 302 q 475 309 475 307 q 477 325 476 323 q 479 330 479 327 q 479 345 480 342 q 479 351 479 349 q 480 368 481 365 q 477 374 479 372 q 477 393 479 389 q 476 400 476 396 q 476 418 476 415 q 476 436 475 427 q 476 454 477 445 q 474 468 476 461 q 473 481 472 475 q 471 488 472 484 q 467 495 469 491 q 466 514 468 510 q 463 522 464 518 q 462 534 461 529 q 461 547 463 540 q 458 559 457 557 q 457 564 458 562 q 448 584 448 579 q 446 591 449 589 q 435 602 437 601 q 431 606 434 604 q 422 616 427 614 q 412 620 418 617 q 399 631 403 632 q 396 633 395 629 q 388 632 392 633 q 381 635 384 631 q 365 633 374 632 q 349 636 355 635 l 346 633 m 222 620 q 222 607 225 616 q 220 591 220 598 q 222 578 224 582 q 225 575 220 575 l 233 591 q 239 596 237 593 q 245 601 241 600 q 250 610 247 608 q 254 618 252 613 q 264 627 260 621 q 273 637 267 632 q 280 642 275 640 q 286 648 285 643 q 301 655 297 652 q 308 661 305 658 q 332 668 323 666 q 351 671 340 670 q 361 673 358 671 q 372 677 365 674 q 391 682 388 681 q 401 682 395 682 q 416 686 408 685 q 430 688 423 686 q 446 682 446 684 q 448 681 446 681 l 467 678 q 484 671 480 670 q 495 669 488 671 q 507 661 505 661 q 513 661 510 662 q 529 645 525 647 q 534 637 533 643 q 550 621 544 631 q 567 604 556 610 q 574 587 571 590 q 581 582 578 585 q 587 570 586 571 q 589 567 589 570 q 592 553 591 552 q 594 551 593 553 q 604 524 601 533 q 604 505 606 514 q 610 491 610 495 q 609 484 609 487 q 616 465 614 468 q 617 460 617 461 q 617 451 616 454 q 618 444 618 448 q 621 416 623 429 q 625 397 620 404 q 623 385 623 393 q 618 373 624 376 q 622 356 623 362 q 620 345 621 350 q 619 335 620 339 q 620 327 618 331 q 621 311 621 312 q 620 308 620 311 q 616 290 618 293 q 618 278 618 285 q 616 269 617 271 q 614 258 614 264 q 613 244 614 251 q 609 236 612 240 q 606 228 606 232 q 600 209 604 212 q 600 199 597 206 q 590 181 594 189 q 583 164 586 174 q 578 151 581 157 q 575 136 575 144 q 564 121 568 129 q 555 104 559 113 q 543 88 548 96 q 536 69 538 80 q 518 51 522 57 q 511 39 514 45 q 494 26 499 34 q 471 13 476 16 q 460 8 467 9 q 451 1 452 3 q 449 -4 450 -1 q 425 -20 430 -12 q 408 -30 419 -27 q 402 -33 406 -33 q 395 -37 399 -34 q 376 -38 381 -38 q 366 -41 370 -38 q 361 -35 363 -38 q 354 -30 358 -33 q 336 -22 339 -24 q 328 -18 332 -19 q 322 -16 326 -16 q 313 -15 319 -16 q 298 -7 301 -9 q 292 -4 296 -5 q 279 -3 282 -4 q 271 0 275 -1 q 264 7 269 4 q 252 11 260 11 q 238 28 240 23 q 229 37 236 34 q 227 19 224 28 q 231 3 231 9 q 229 -5 231 0 q 228 -12 228 -9 q 228 -26 228 -19 q 225 -35 228 -33 q 229 -52 228 -50 q 229 -57 229 -54 q 229 -64 231 -60 q 228 -72 228 -68 q 228 -80 227 -76 q 228 -90 229 -84 q 226 -111 225 -104 q 229 -122 227 -118 q 228 -130 228 -126 q 225 -137 228 -134 q 228 -153 228 -145 q 225 -168 228 -161 q 228 -178 228 -175 q 228 -190 228 -182 q 231 -205 232 -199 q 232 -212 229 -210 q 231 -238 233 -231 q 232 -252 229 -245 q 243 -269 233 -260 q 263 -279 252 -278 q 272 -280 267 -281 q 282 -279 277 -279 q 293 -281 288 -279 q 302 -278 298 -282 q 313 -279 311 -281 q 317 -277 315 -278 q 333 -277 326 -279 q 343 -270 340 -274 q 356 -284 355 -279 q 362 -290 357 -289 q 356 -300 358 -297 q 359 -305 354 -302 q 341 -325 349 -324 q 327 -328 334 -326 q 309 -324 319 -327 q 292 -328 298 -321 q 284 -327 288 -324 q 277 -328 281 -330 q 263 -325 270 -328 q 250 -321 256 -321 l 239 -311 q 220 -313 222 -311 q 216 -316 218 -316 q 203 -313 209 -315 q 190 -313 197 -312 q 172 -320 175 -317 q 155 -317 161 -320 q 138 -322 142 -321 q 133 -320 133 -323 q 123 -323 129 -324 q 114 -321 118 -321 q 92 -328 96 -327 q 79 -330 81 -328 q 73 -331 76 -331 q 31 -345 50 -332 q 7 -338 12 -342 q -3 -332 3 -335 q 2 -314 -1 -316 q 7 -304 5 -312 q 15 -301 11 -302 q 23 -302 19 -300 q 35 -299 30 -300 q 45 -296 39 -298 q 56 -290 53 -289 q 61 -289 58 -290 q 76 -273 72 -282 q 91 -256 80 -263 q 92 -241 87 -250 q 95 -227 98 -233 q 98 -216 99 -224 q 102 -206 98 -209 q 99 -192 100 -195 q 99 -186 98 -189 q 102 -172 100 -179 q 100 -159 104 -165 q 103 -142 104 -146 q 106 -140 102 -138 q 101 -118 100 -123 q 102 -110 102 -113 q 100 -92 102 -102 q 103 -75 99 -83 q 101 -41 102 -56 q 103 -8 100 -27 q 104 18 106 8 q 107 35 102 27 q 103 73 104 58 q 103 102 102 87 q 104 116 103 109 q 104 130 104 123 q 102 142 102 141 q 103 146 103 144 q 103 163 104 159 q 107 170 102 167 q 103 191 104 186 q 103 203 102 197 q 104 219 102 216 q 103 225 106 222 q 105 258 104 248 q 103 275 106 269 q 104 288 106 286 q 102 293 103 290 q 103 308 104 305 q 102 313 102 311 q 103 328 103 320 q 103 343 103 336 q 104 358 106 354 q 103 366 103 362 q 105 389 103 378 q 106 411 107 400 q 105 423 103 420 q 103 427 107 426 q 103 435 103 429 q 104 450 103 442 q 106 465 106 458 q 107 472 107 471 q 106 481 107 473 q 104 498 104 488 q 102 515 103 507 q 100 524 100 522 l 103 540 q 104 548 104 544 q 103 556 103 552 q 99 576 100 570 q 103 587 98 583 q 100 595 100 590 q 98 604 100 601 q 99 654 99 625 q 99 665 100 662 q 99 673 98 669 q 96 702 95 692 q 96 720 98 712 q 97 743 98 735 q 94 755 96 750 q 98 779 95 770 q 102 798 102 787 q 98 820 96 815 q 99 830 99 825 q 96 837 98 834 q 92 844 95 840 q 91 859 92 852 q 94 872 90 867 q 90 884 88 883 q 91 888 92 886 q 87 899 90 895 q 88 909 85 902 q 80 921 83 914 q 77 932 77 928 q 72 942 75 937 q 66 952 69 947 q 48 951 50 951 q 39 952 46 952 q 13 949 27 951 q -16 951 -1 948 q -31 958 -26 951 q -45 967 -45 959 q -49 978 -45 975 q -41 987 -43 987 q -38 989 -39 987 q -27 990 -33 991 q -16 989 -22 989 q 0 988 -9 987 q 16 985 9 989 q 58 989 43 989 q 84 983 73 989 q 98 985 91 985 q 109 983 106 986 q 118 986 113 986 q 129 986 123 986 q 146 989 142 990 q 156 989 151 989 q 175 989 171 990 q 183 989 179 987 q 197 991 194 991 q 205 991 201 990 q 227 994 221 996 q 239 994 232 993 q 269 997 262 1000 q 286 990 277 994 q 294 986 290 987 q 300 982 297 985 q 294 967 297 970 q 281 958 282 958 q 273 956 279 958 q 259 952 263 951 q 252 952 255 954 q 233 918 233 944 q 227 898 229 903 q 224 886 225 892 q 220 871 220 871 q 221 868 221 871 q 218 846 221 852 l 218 831 q 218 814 218 825 q 217 792 217 803 q 220 772 217 781 q 220 754 222 764 q 222 722 220 738 q 218 699 224 707 q 220 684 220 684 q 224 667 222 674 q 225 652 225 659 q 223 633 224 642 q 222 620 222 625 z "},"":{"ha":968,"x_min":9,"x_max":920,"o":"m 905 361 q 887 331 894 342 q 884 321 884 327 q 883 311 884 315 q 880 296 879 301 q 875 292 880 292 q 869 267 872 275 q 865 252 868 258 q 860 240 863 247 q 857 233 857 236 q 853 227 856 229 q 848 212 850 216 q 844 206 846 209 q 844 196 846 199 q 838 187 841 193 q 840 175 837 180 q 841 163 842 170 q 836 144 834 145 q 838 140 837 142 q 840 115 836 129 q 841 92 844 102 q 850 68 848 81 q 857 46 852 56 q 868 30 860 33 q 874 14 873 18 q 878 8 875 11 q 873 -7 873 -1 q 853 -14 857 -14 q 844 -15 849 -15 q 836 -12 840 -14 q 829 -9 833 -11 q 816 -9 817 -9 q 812 -8 815 -8 q 796 -7 796 -7 q 795 -8 796 -8 q 777 -5 777 -7 q 759 -4 761 -4 q 750 -3 757 -4 q 732 -1 734 -3 q 728 1 731 1 q 720 0 726 1 q 711 -1 715 -1 q 696 -1 701 1 q 686 -7 690 -3 q 677 -11 682 -11 q 667 -9 671 -12 q 656 -5 662 -5 q 642 3 647 3 q 631 3 637 3 q 610 3 620 1 q 593 4 600 4 q 576 3 578 4 q 572 1 575 1 q 557 2 560 1 q 547 3 553 3 q 526 3 530 1 q 515 3 522 4 q 505 1 509 0 q 498 -1 502 1 q 483 3 483 3 q 454 1 464 -1 q 435 -1 445 3 q 410 -1 418 -3 q 395 -1 401 0 q 379 -3 380 -4 q 377 -3 378 -3 q 353 -5 363 -7 q 331 -4 343 -3 q 311 -5 320 -4 q 296 -9 302 -5 q 275 -11 286 -8 q 252 -15 263 -14 q 220 -24 233 -33 q 210 -20 214 -22 q 198 -18 206 -18 q 186 -20 190 -16 q 174 -23 182 -24 q 158 -26 160 -24 q 151 -30 156 -27 q 143 -29 148 -30 q 133 -31 138 -28 q 114 -33 122 -33 q 100 -34 106 -33 q 93 -35 96 -34 q 85 -38 90 -37 q 71 -39 72 -38 q 66 -41 69 -41 q 59 -42 64 -42 q 50 -43 54 -42 q 32 -44 39 -45 q 16 -38 24 -43 q 20 -9 9 -16 q 24 7 22 3 q 34 15 27 12 q 33 30 33 18 q 47 37 43 33 q 59 53 56 50 q 62 61 62 56 q 73 73 69 65 q 84 88 77 80 q 95 103 92 102 q 99 109 98 104 q 108 119 106 111 q 117 129 110 126 q 122 141 122 136 q 127 146 122 146 q 138 169 136 163 q 142 182 140 175 q 153 198 152 189 q 166 215 161 205 q 180 231 171 225 q 186 245 186 241 q 191 250 186 250 q 202 275 197 269 q 210 293 208 282 q 216 301 214 296 q 222 312 218 307 q 231 329 231 326 q 236 331 231 332 q 241 347 240 346 q 244 350 241 349 q 256 373 254 366 q 266 387 259 380 q 273 399 270 395 q 282 407 277 404 q 283 416 281 412 q 288 423 286 419 q 298 445 292 434 q 302 450 301 448 q 307 458 304 453 q 334 507 320 486 q 344 526 339 517 q 355 544 349 536 q 358 553 354 551 q 361 562 362 555 q 373 577 373 575 q 378 579 373 579 q 380 587 377 585 q 384 594 382 590 q 391 609 385 598 q 397 623 396 621 q 401 627 399 624 q 410 644 407 637 q 415 653 412 650 q 420 662 418 656 q 431 681 427 674 q 441 690 434 688 q 446 704 442 700 q 452 716 450 708 q 458 724 460 723 q 458 730 457 726 q 466 742 467 741 q 467 745 465 743 q 481 764 477 760 q 486 774 484 768 q 492 781 488 777 q 500 787 495 785 q 505 798 505 796 q 506 802 505 800 q 513 813 513 810 q 517 819 514 817 q 533 838 529 837 q 544 857 543 853 q 552 863 545 860 q 559 875 557 872 q 563 882 562 878 q 572 897 571 891 q 578 905 574 902 q 587 923 586 917 q 595 935 589 929 q 604 946 604 947 q 606 948 605 945 q 613 964 614 956 q 606 967 610 968 q 598 966 602 966 q 587 970 593 971 q 574 968 581 970 q 559 972 560 972 q 540 970 549 972 q 524 974 530 968 q 505 974 507 972 q 500 977 503 975 q 486 977 494 978 q 471 977 477 977 q 458 977 464 977 q 446 978 453 978 q 419 978 427 977 q 404 979 411 979 q 386 977 396 979 q 366 974 376 975 q 342 968 347 970 q 330 963 336 966 q 310 956 315 959 q 300 949 305 952 q 288 945 290 947 q 283 943 286 944 q 271 932 273 932 q 269 932 270 933 q 259 922 260 924 q 255 920 258 920 q 249 906 250 906 q 244 903 248 906 q 239 896 241 901 q 232 891 236 891 q 229 884 231 887 q 224 878 227 880 q 220 870 221 875 q 214 864 218 865 q 207 847 209 849 q 203 842 205 845 q 201 833 201 837 q 198 827 202 830 q 197 817 201 821 q 197 807 194 814 q 188 791 190 793 q 183 784 186 788 q 182 772 182 776 q 182 760 182 769 q 172 742 175 742 q 170 714 170 724 q 168 694 171 704 q 165 686 167 689 q 161 677 163 682 q 161 666 160 671 q 161 655 161 661 q 155 647 159 650 q 149 642 152 644 q 149 629 149 635 q 144 616 148 623 q 134 616 137 618 q 126 612 130 613 q 116 615 121 614 q 109 618 111 616 q 105 633 104 632 q 106 635 106 633 q 111 646 109 644 q 114 652 113 648 q 116 661 114 659 q 115 669 118 663 q 121 677 121 671 q 127 684 121 682 q 128 697 129 689 q 130 712 127 705 q 134 737 134 730 q 140 750 133 745 q 140 771 138 761 q 142 793 141 781 q 142 802 142 798 q 142 811 141 807 q 145 828 146 822 q 144 837 144 834 q 145 858 144 853 q 144 865 146 863 q 140 886 142 879 q 141 902 138 894 q 137 912 138 907 q 138 924 136 917 q 134 932 136 928 q 133 944 132 937 q 127 964 127 959 q 126 975 127 970 q 121 986 123 982 q 118 996 118 990 q 121 1005 118 1002 q 126 1012 123 1008 q 132 1025 130 1024 q 133 1028 134 1025 q 149 1025 141 1025 q 163 1019 157 1024 q 178 1019 171 1020 q 191 1017 184 1017 q 210 1019 201 1017 q 225 1016 218 1020 q 250 1016 241 1019 l 264 1015 q 283 1017 281 1016 q 292 1017 286 1017 q 338 1017 316 1017 q 378 1017 359 1016 q 405 1020 396 1021 q 422 1019 414 1019 q 437 1021 429 1019 q 452 1023 445 1023 q 467 1021 467 1020 q 471 1021 468 1021 q 484 1021 476 1021 q 499 1024 491 1021 q 510 1021 509 1021 q 514 1021 511 1020 q 528 1023 524 1023 q 536 1024 532 1024 q 556 1024 547 1027 q 565 1023 562 1024 q 575 1021 568 1021 q 591 1022 590 1024 q 593 1019 591 1020 q 612 1021 609 1020 q 618 1023 616 1023 q 642 1022 633 1021 q 655 1020 650 1023 q 671 1021 667 1021 q 699 1018 690 1017 q 718 1017 708 1019 q 735 1013 732 1010 q 741 1015 738 1015 q 750 1013 746 1015 q 760 1012 754 1012 q 782 1015 770 1012 q 804 1016 793 1019 q 821 1019 818 1020 q 826 1019 823 1019 q 833 1021 829 1019 q 844 1020 838 1023 q 852 1018 846 1017 q 861 1019 857 1019 q 873 1018 868 1019 q 886 1020 879 1017 q 899 1024 898 1025 q 902 1023 899 1023 q 913 1021 909 1024 q 920 1017 917 1017 q 919 1002 918 1008 q 917 989 920 996 q 907 984 913 986 q 895 979 902 982 q 879 966 883 968 q 872 962 875 964 l 850 940 q 841 934 845 936 q 834 929 837 932 q 818 906 819 914 q 807 898 810 905 q 798 890 804 891 q 788 875 796 883 q 766 854 776 861 q 757 842 758 844 q 751 842 755 840 q 742 818 750 823 q 734 806 734 807 q 734 802 735 804 q 722 790 726 795 q 713 783 719 785 q 703 763 707 769 q 696 751 700 757 q 687 739 689 743 q 680 731 685 734 q 659 704 674 716 q 650 684 652 689 q 644 674 647 680 q 640 663 642 669 q 636 652 637 658 q 625 638 627 640 q 623 632 623 636 q 606 612 610 617 q 600 598 601 608 q 594 593 595 597 q 589 587 593 589 q 580 566 587 574 q 568 548 572 559 q 558 535 563 540 q 555 524 553 530 q 547 520 549 522 q 541 515 544 518 q 536 500 538 509 q 528 488 534 492 q 521 471 526 477 q 513 458 515 465 q 498 430 502 439 q 488 412 495 420 q 479 395 483 403 q 469 382 475 387 q 464 369 468 374 q 457 357 460 363 q 449 343 452 346 q 442 326 445 331 q 431 305 434 308 q 423 296 425 300 q 418 293 422 292 q 415 281 418 286 q 412 270 412 277 q 404 261 407 266 q 399 251 401 256 q 391 241 395 245 q 387 231 388 237 q 374 212 378 217 q 366 203 369 208 q 358 184 361 190 q 345 170 346 172 q 339 167 343 167 q 330 144 335 155 q 320 127 321 130 q 313 108 315 113 q 308 100 311 103 q 302 92 305 96 q 298 81 300 88 q 289 71 292 79 q 279 61 286 64 q 273 47 278 52 q 267 33 269 42 q 256 22 259 24 q 273 24 270 24 q 278 23 275 23 q 288 24 282 22 q 297 30 293 27 q 311 28 305 27 q 321 31 316 30 q 334 32 326 30 q 347 34 343 34 q 366 35 359 34 q 380 35 373 35 q 395 35 387 35 q 416 35 403 35 q 428 35 426 34 q 433 37 430 37 q 447 37 444 35 q 453 38 450 38 q 462 38 457 39 q 472 37 467 37 q 489 37 480 37 q 507 38 498 37 q 534 38 521 39 q 560 37 548 37 q 581 39 576 41 q 587 38 585 38 q 603 39 600 39 q 612 38 606 38 q 667 41 642 45 q 674 39 670 41 q 682 38 678 38 q 690 43 688 39 q 700 49 693 46 q 707 60 703 56 q 716 71 712 64 q 724 79 722 77 q 728 81 727 80 q 738 96 735 94 q 749 109 742 102 q 758 125 754 122 q 764 133 761 129 q 772 149 770 146 q 783 172 781 165 q 792 180 785 178 q 795 195 793 194 q 799 199 798 197 q 808 219 807 214 q 814 227 810 224 l 819 245 q 827 266 826 263 q 831 276 831 274 q 831 282 830 278 q 838 296 841 296 q 837 298 836 296 q 845 311 844 311 q 844 312 846 312 q 850 335 846 331 q 853 349 854 339 q 861 361 860 355 q 865 370 863 366 q 870 385 868 377 q 873 399 872 392 q 883 408 880 403 q 894 410 886 412 q 907 403 905 404 q 911 396 909 401 q 912 379 918 387 q 905 361 906 372 m 538 1122 q 535 1129 536 1124 q 530 1135 534 1134 q 526 1146 528 1143 q 521 1149 525 1149 q 511 1166 515 1161 q 503 1177 506 1171 q 490 1183 490 1180 q 488 1187 491 1185 q 475 1199 480 1195 q 465 1208 471 1203 q 454 1221 456 1219 q 449 1225 452 1222 q 436 1234 439 1230 q 427 1240 433 1237 q 411 1252 416 1249 q 395 1289 391 1271 l 403 1302 q 420 1305 418 1308 q 430 1301 423 1303 q 439 1286 439 1284 q 450 1270 449 1274 q 462 1261 461 1263 q 465 1260 463 1259 q 477 1247 475 1248 q 480 1244 479 1246 q 488 1239 484 1241 q 494 1230 492 1237 q 506 1223 502 1229 q 517 1215 510 1218 q 538 1200 524 1203 q 550 1190 548 1190 q 553 1188 552 1191 q 567 1203 564 1198 q 574 1213 570 1207 q 581 1222 578 1219 q 593 1233 590 1230 q 604 1247 602 1245 q 606 1253 606 1249 q 618 1266 614 1261 q 625 1278 623 1271 q 635 1291 633 1287 q 639 1298 637 1295 q 671 1302 658 1312 q 673 1294 671 1297 q 675 1286 675 1291 q 673 1278 675 1282 q 671 1267 670 1274 q 659 1257 659 1256 q 656 1256 658 1257 q 644 1239 648 1242 q 637 1227 639 1236 q 623 1221 627 1222 q 621 1213 620 1219 q 614 1208 616 1213 q 608 1200 612 1204 q 600 1188 600 1190 q 598 1185 600 1187 q 585 1171 593 1179 q 572 1153 578 1162 q 571 1145 572 1147 q 570 1137 570 1142 q 561 1128 562 1130 q 559 1124 560 1126 q 538 1122 549 1120 z "},"":{"ha":632,"x_min":7,"x_max":627,"o":"m 54 712 q 78 688 75 700 q 91 667 81 675 q 92 650 90 656 q 107 660 107 658 q 109 663 107 662 q 118 668 114 665 q 126 674 122 671 q 136 677 130 677 q 144 682 141 678 q 170 689 167 685 q 193 690 180 693 q 216 694 206 688 q 227 692 222 692 q 236 696 231 692 q 257 691 247 693 q 281 689 267 689 q 307 686 296 688 q 330 686 317 685 q 343 686 342 688 q 347 685 345 685 q 379 684 368 686 q 401 684 391 682 q 415 684 408 684 q 426 685 422 684 q 433 688 430 686 q 441 692 437 690 q 465 688 453 697 l 502 688 q 525 688 517 688 q 538 694 533 689 q 552 693 545 690 q 566 697 559 696 q 575 691 571 694 q 586 685 579 688 q 591 669 587 675 q 587 655 594 662 q 575 642 579 644 q 572 632 571 639 q 564 625 566 629 q 556 620 563 621 q 549 609 551 613 q 547 602 548 605 q 538 590 540 591 q 534 586 536 589 q 524 574 528 575 q 521 567 521 572 l 509 557 q 505 551 506 555 q 502 544 503 547 q 486 524 490 528 q 477 514 481 519 q 471 499 472 500 q 468 496 471 498 q 466 489 468 491 q 465 480 464 487 q 453 463 453 467 q 452 454 453 460 q 443 445 441 446 q 442 441 445 444 q 429 430 430 430 q 420 413 420 415 q 416 410 419 411 q 406 384 411 395 q 399 374 400 378 q 395 369 397 370 q 387 351 389 354 q 382 342 385 347 q 373 330 374 331 q 368 317 368 324 q 362 311 368 311 q 345 283 361 293 q 328 256 340 264 q 317 237 319 244 q 308 227 315 229 q 302 210 307 216 q 297 193 298 203 q 290 186 290 193 q 283 182 290 180 q 278 164 283 171 q 267 151 273 157 q 261 129 269 136 q 254 109 254 122 q 239 92 241 96 q 233 81 236 87 q 227 72 228 75 q 221 66 225 69 q 212 44 214 52 q 205 33 210 37 q 212 28 208 27 q 220 23 217 28 q 236 27 233 27 q 241 24 239 27 q 254 28 252 27 q 258 31 255 30 q 277 32 267 33 q 294 33 286 31 q 308 35 305 35 q 313 34 311 34 q 326 35 320 34 q 338 35 331 35 q 353 35 351 35 q 357 34 354 34 q 379 34 372 31 q 393 35 387 37 q 413 35 411 31 q 419 41 415 38 q 441 50 434 49 q 451 54 448 53 q 457 57 454 54 q 472 61 471 61 q 476 62 473 61 q 490 77 488 75 q 496 79 492 79 q 499 95 499 88 q 503 102 502 98 q 507 109 505 106 q 513 119 510 114 q 518 129 515 123 q 525 146 524 146 q 529 172 533 159 q 541 214 533 201 q 541 227 538 222 q 544 237 544 231 q 552 245 551 239 q 557 254 553 251 q 557 269 555 260 q 562 288 560 278 q 570 294 568 290 q 582 296 572 297 q 596 283 589 294 q 598 263 604 273 q 591 248 591 248 q 589 245 590 248 q 591 231 587 232 q 593 227 594 231 q 589 210 593 216 q 587 193 585 205 q 582 178 581 179 q 583 175 583 176 q 584 163 586 168 q 581 152 582 157 q 585 133 586 136 q 585 123 583 130 q 581 111 578 113 q 586 104 583 110 l 586 88 q 590 71 589 77 q 598 54 597 57 q 602 49 600 52 q 620 43 609 46 q 625 20 627 24 q 625 11 623 16 q 604 1 610 1 q 595 1 598 1 q 576 3 582 4 q 567 4 571 3 q 547 2 549 4 q 541 -3 544 0 q 524 -3 532 -1 q 506 -5 515 -5 q 496 -5 500 -5 q 484 -5 491 -4 q 474 -5 479 -5 q 464 -4 469 -4 q 448 -5 456 -7 q 438 -4 441 -4 q 429 -5 433 -4 q 422 -7 425 -7 q 399 -5 404 -5 q 388 -1 393 -4 q 338 -2 361 1 q 296 1 315 -5 q 286 -1 288 -3 q 281 1 285 1 q 260 -5 267 -4 q 247 -3 254 -5 q 207 -9 218 -8 q 180 -8 195 -9 q 166 -12 170 -14 q 160 -11 163 -11 q 129 -14 137 -15 q 113 -15 121 -12 q 96 -20 99 -20 q 91 -20 94 -19 q 83 -23 87 -22 q 75 -26 80 -24 q 57 -31 69 -31 q 34 -35 38 -37 q 23 -33 30 -34 q 17 -16 18 -26 q 9 -3 16 -5 q 7 16 9 11 q 14 20 14 15 q 22 26 15 26 q 31 41 27 38 q 38 46 35 43 q 47 64 46 58 q 57 74 57 72 q 58 77 57 76 q 64 88 62 87 q 65 92 65 90 q 81 117 76 103 q 102 140 87 130 q 104 153 104 149 q 107 157 104 156 q 130 189 119 183 q 133 205 129 195 q 139 211 136 209 q 146 217 142 213 q 154 232 153 228 q 155 240 155 236 q 162 247 161 241 q 170 254 163 252 q 179 270 170 263 q 195 296 190 292 q 206 320 197 311 q 218 343 216 330 q 231 358 227 351 q 243 377 241 372 q 250 388 247 387 q 254 392 252 389 q 265 414 262 410 q 271 423 269 418 q 276 433 274 427 q 279 445 278 438 l 290 456 q 300 469 297 468 q 302 475 302 471 q 311 484 308 477 q 320 496 315 490 q 330 511 327 506 q 332 522 332 515 q 342 541 342 529 q 351 548 349 543 q 357 559 354 553 q 366 574 362 570 q 370 586 369 579 q 377 600 380 600 q 386 610 384 602 q 395 621 388 618 q 399 633 395 629 q 403 644 404 636 q 388 646 397 648 q 379 648 385 648 q 370 650 373 648 q 336 651 349 652 q 316 654 324 650 q 296 655 298 651 q 282 654 289 651 q 269 652 275 656 q 248 652 258 658 q 233 655 243 656 q 217 658 222 654 q 196 652 201 655 q 184 648 191 650 q 171 648 178 647 q 161 643 164 648 q 144 639 149 640 l 130 629 q 119 613 119 618 q 115 598 118 608 q 107 570 107 579 q 104 553 107 560 q 105 545 106 549 q 102 537 104 540 l 100 517 q 102 509 103 513 q 99 502 100 506 q 98 488 98 494 q 96 477 99 483 q 96 445 96 458 q 98 419 95 431 q 92 413 96 414 q 85 408 88 412 q 52 422 61 412 q 51 456 54 439 q 53 483 47 472 q 54 502 52 492 q 57 522 56 511 q 59 535 58 533 q 62 538 60 537 q 61 549 60 544 q 65 559 62 555 q 63 576 64 575 q 62 579 62 576 q 64 587 62 583 q 64 594 65 591 q 61 609 60 608 q 62 613 62 610 q 59 624 60 623 q 58 628 58 625 q 55 635 57 631 q 54 647 53 640 q 45 667 46 662 q 42 674 45 671 q 31 688 38 682 q 23 701 23 694 q 30 715 22 708 q 49 719 38 722 l 54 712 m 343 802 q 340 809 340 804 q 335 815 339 814 q 331 826 332 823 q 326 829 330 829 q 315 846 320 841 q 308 857 311 850 q 295 863 294 860 q 293 867 296 865 q 280 879 285 875 q 270 888 275 883 q 258 901 260 899 q 254 905 256 902 q 241 913 244 910 q 232 920 237 917 q 216 932 221 929 q 199 968 195 951 l 208 982 q 225 985 222 987 q 235 981 228 983 q 244 966 244 964 q 255 949 254 954 q 267 941 266 943 q 270 940 267 939 q 281 927 279 928 q 285 924 283 926 q 293 919 289 921 q 298 910 297 917 q 311 903 307 909 q 321 895 315 898 q 343 880 328 883 q 355 870 353 869 q 358 868 357 871 q 372 883 369 878 q 378 893 374 887 q 385 902 382 899 q 397 913 395 910 q 409 927 407 925 q 411 933 411 929 q 423 946 419 941 q 430 958 427 951 q 440 971 438 967 q 444 978 442 975 q 476 982 463 991 q 478 974 476 977 q 480 966 480 971 q 477 958 480 962 q 476 947 475 954 q 463 937 464 936 q 461 936 463 937 q 448 919 453 922 q 442 907 444 916 q 428 901 431 902 q 426 892 425 899 q 418 888 420 892 q 412 880 416 884 q 404 868 404 869 q 403 865 404 867 q 390 850 397 859 q 377 833 382 842 q 376 825 377 827 q 374 817 374 822 q 366 808 366 810 q 363 804 365 806 q 343 802 354 800 z "},"":{"ha":918,"x_min":-27,"x_max":890,"o":"m 236 1010 q 239 991 233 1000 q 248 977 244 983 q 246 968 248 970 q 247 959 244 966 q 235 947 237 947 q 233 945 233 947 q 234 934 235 935 q 233 930 233 933 q 232 918 233 918 q 231 914 231 917 q 228 880 228 898 q 227 848 228 863 q 227 840 225 844 q 224 831 228 836 q 227 810 227 823 q 225 785 227 796 q 227 776 225 780 q 228 768 228 772 q 226 751 228 760 q 228 735 224 743 q 226 722 225 723 q 228 718 227 720 q 227 709 228 713 q 224 701 225 705 q 223 682 225 688 q 221 674 221 677 q 225 648 227 654 q 225 635 224 642 q 224 620 225 624 q 223 614 222 616 q 224 605 224 612 q 222 588 222 589 q 221 585 221 587 q 224 555 225 566 q 225 537 222 544 q 227 530 225 533 q 227 519 228 526 q 229 511 225 515 q 232 502 233 506 q 250 491 248 496 q 256 483 252 486 q 247 462 251 465 q 240 453 243 458 q 227 451 235 450 q 217 449 220 452 q 182 451 194 450 q 152 449 170 452 q 121 444 133 446 q 98 445 110 442 q 92 469 88 464 q 98 480 95 475 q 111 488 110 488 q 113 488 113 487 q 111 503 115 499 q 122 522 115 518 q 121 543 121 538 q 122 553 121 547 q 126 587 127 578 q 127 606 125 595 q 127 627 126 623 q 130 639 129 632 q 130 655 129 651 q 130 663 130 659 q 132 681 130 678 q 133 686 133 684 q 131 702 130 694 q 126 716 132 709 q 127 727 127 723 q 129 736 126 731 q 126 755 125 750 q 122 762 127 761 q 125 778 123 777 q 125 780 126 779 q 122 806 122 798 q 121 825 122 815 q 119 842 119 836 q 118 850 119 848 q 100 844 100 849 q 85 842 94 842 q 72 834 76 841 q 54 834 56 836 q 50 833 53 833 q 28 835 41 833 q 4 837 15 837 q -4 836 0 837 q -11 836 -8 836 q -20 842 -16 838 q -27 848 -24 845 q -20 862 -23 861 q -18 865 -18 863 q 6 867 -7 868 q 26 872 19 865 q 37 871 31 869 q 47 875 42 873 q 57 877 53 876 q 64 880 61 878 q 80 883 73 880 q 92 890 87 886 q 102 898 96 894 q 114 903 107 902 q 130 911 121 910 q 147 932 144 926 q 155 944 151 937 q 168 958 167 956 q 172 963 170 960 q 186 976 179 970 q 198 990 193 982 q 213 1011 201 1004 q 236 1010 225 1019 m 743 964 q 762 959 757 968 q 765 943 766 949 q 757 929 765 936 q 743 916 749 922 q 724 897 730 903 q 713 887 719 891 q 704 878 704 879 q 701 876 704 876 q 693 864 697 869 q 684 854 689 859 q 673 836 675 840 q 665 831 671 831 q 659 820 658 822 q 659 815 661 818 q 641 791 646 799 q 631 776 636 784 q 616 757 620 761 q 609 747 613 753 q 598 733 600 738 q 594 726 597 728 q 585 709 586 712 q 581 708 583 707 q 574 693 578 696 q 568 688 571 690 q 562 674 563 678 q 555 670 560 670 q 548 656 551 656 q 542 648 543 652 q 537 644 541 644 q 531 631 536 635 q 526 618 526 628 q 515 602 519 612 q 505 585 510 593 q 492 569 498 576 q 481 552 486 562 q 470 535 473 538 q 464 528 467 532 q 456 514 458 519 q 445 502 453 507 q 439 490 442 494 q 430 481 437 486 q 422 464 427 472 q 412 447 414 450 q 410 441 411 444 l 397 422 q 372 389 384 397 q 368 378 372 382 q 361 369 363 373 q 351 349 355 353 q 345 342 347 346 q 334 325 335 330 q 328 316 332 320 q 321 301 327 308 q 312 288 316 294 q 304 275 308 281 q 297 259 300 269 q 281 239 283 243 q 273 227 275 231 q 266 221 270 224 q 254 208 264 213 q 247 193 247 195 q 244 189 247 191 q 234 179 236 179 q 232 178 232 179 q 222 157 225 161 q 193 127 202 137 q 176 102 183 117 q 163 91 163 91 q 151 66 155 71 q 144 53 146 54 q 137 52 141 52 q 127 33 130 41 q 117 28 121 31 q 106 24 113 24 q 88 46 91 27 q 89 54 88 49 q 91 62 90 60 q 103 73 95 71 q 107 80 104 77 q 110 90 110 83 q 121 98 121 96 q 123 103 121 100 q 134 120 132 115 q 142 126 136 125 q 191 183 164 159 q 195 190 191 189 q 198 197 198 191 q 209 207 208 206 q 212 209 210 208 q 218 218 216 217 q 218 222 220 220 q 233 240 227 235 q 244 255 240 245 q 256 271 251 269 q 262 281 262 274 q 270 288 267 288 q 274 292 273 289 q 279 308 278 307 q 283 312 281 309 q 292 327 292 326 q 293 330 292 328 q 299 340 298 336 q 302 346 300 343 q 312 358 311 357 q 316 358 313 359 q 319 366 319 363 q 324 372 319 369 q 332 390 327 385 q 338 403 336 395 q 343 408 342 404 q 347 415 345 412 q 357 431 357 429 q 358 437 358 433 q 373 456 368 453 q 380 468 378 460 q 391 478 389 479 q 392 479 392 477 q 396 494 395 490 q 400 506 397 499 q 410 513 410 511 q 412 518 410 515 q 422 532 420 528 q 426 540 423 537 q 440 559 438 553 q 449 568 442 566 q 455 579 453 576 q 460 583 457 582 q 481 616 465 605 q 496 640 483 629 q 507 658 506 654 q 509 669 507 662 q 517 675 514 671 q 526 682 521 680 q 543 710 532 699 q 557 741 553 722 q 570 755 570 751 q 575 758 571 758 q 590 776 576 769 q 601 802 597 788 q 616 814 613 812 q 617 821 618 815 q 628 831 624 831 q 629 838 632 831 q 640 852 637 852 q 643 853 642 852 q 652 869 651 869 q 660 881 658 879 q 665 883 662 883 q 677 897 675 892 q 682 905 680 901 q 695 916 694 913 q 700 917 696 918 q 703 924 701 922 q 707 930 705 926 q 715 937 712 933 q 726 944 719 941 q 743 964 735 960 m 890 463 q 888 447 887 450 q 890 439 890 444 q 888 422 890 431 q 884 407 887 414 q 886 395 886 404 q 883 380 886 387 q 875 362 875 368 q 871 354 875 357 q 864 336 865 340 q 857 330 863 331 q 853 316 854 321 q 845 309 852 311 q 836 296 842 301 q 821 280 825 285 q 811 273 817 275 q 802 260 804 264 q 792 255 799 256 q 764 230 774 240 q 743 213 754 220 q 736 204 741 208 q 730 194 732 201 q 716 184 720 189 q 700 172 704 175 q 692 165 696 168 q 684 157 686 157 q 678 153 681 156 q 655 127 663 133 q 644 107 647 122 q 659 107 651 104 q 671 113 666 110 q 694 111 682 110 q 713 106 707 113 q 730 102 731 106 q 731 99 728 99 q 752 97 742 96 q 774 96 762 98 q 787 94 781 95 q 800 92 793 92 q 817 97 810 94 q 833 99 823 100 q 829 114 829 111 q 826 119 829 117 q 830 155 830 141 q 854 149 848 155 q 865 144 860 142 q 871 130 872 130 q 869 126 869 129 q 868 104 865 110 q 863 92 865 98 q 857 80 860 87 q 840 64 848 68 q 823 58 833 60 q 811 57 817 57 q 800 53 806 57 q 789 53 789 54 q 785 50 788 52 q 766 50 774 49 q 751 57 757 52 q 741 57 747 54 q 732 62 735 60 q 702 66 718 61 q 671 69 686 72 l 646 62 q 637 56 640 60 q 627 50 633 53 q 614 38 618 38 q 600 33 604 33 q 593 33 595 33 q 578 47 579 45 q 577 63 578 62 q 576 66 576 64 q 583 78 582 77 q 586 81 585 79 q 589 92 589 87 q 591 100 589 96 q 600 117 598 113 q 605 126 602 121 q 610 135 606 129 q 613 146 613 141 q 626 161 624 159 q 628 167 628 163 q 639 180 635 172 q 650 193 643 189 q 660 213 651 208 q 671 229 669 218 q 684 241 682 240 q 686 245 685 243 q 695 254 692 252 q 701 258 699 255 q 711 271 708 269 q 716 281 713 274 q 736 299 730 294 q 746 313 743 304 q 758 324 754 324 q 765 342 758 338 q 770 361 770 355 q 772 370 770 366 q 773 379 772 374 q 777 385 774 384 q 778 409 779 400 q 777 426 777 418 q 781 445 779 437 q 784 463 784 453 q 779 479 780 477 q 777 481 777 480 q 776 492 776 487 q 772 499 776 496 q 741 537 761 530 q 732 546 738 543 q 720 555 727 549 q 702 551 709 555 q 688 544 694 547 q 654 521 665 532 q 633 499 644 510 q 631 490 633 492 q 625 486 628 488 q 618 470 623 477 q 613 453 614 463 q 614 439 614 442 q 613 430 613 435 q 617 416 614 418 q 616 412 620 414 q 623 407 618 410 q 631 399 628 404 q 642 393 637 397 q 656 388 647 389 q 684 392 675 385 q 690 397 688 395 q 697 401 692 400 q 701 413 699 408 q 703 429 704 418 q 694 442 694 441 q 690 444 693 444 q 671 452 677 448 q 669 467 666 457 q 681 477 671 475 q 688 481 684 480 q 694 486 692 483 q 713 473 701 477 q 732 461 724 469 q 732 449 730 454 q 738 438 735 444 q 735 428 735 431 q 736 419 735 425 q 736 401 738 403 q 731 397 734 400 q 728 382 731 385 q 720 374 724 378 q 707 362 705 362 q 682 353 692 357 q 659 346 673 349 q 645 351 652 349 q 629 353 637 354 q 598 377 609 372 q 582 395 587 382 q 577 414 579 412 q 575 416 575 415 q 576 436 574 427 q 575 454 578 445 q 579 475 582 461 q 589 495 585 486 q 598 514 593 505 q 606 518 604 514 q 612 525 608 522 q 617 531 614 529 q 621 538 620 533 q 634 547 632 545 q 639 553 636 549 q 651 564 647 562 q 661 570 655 567 q 677 578 674 578 q 684 581 681 578 q 722 589 709 586 q 750 585 735 591 q 777 581 766 583 q 793 572 787 579 q 830 560 815 562 q 836 552 833 556 q 848 548 840 548 q 856 536 852 541 q 863 524 860 530 q 873 507 871 509 q 878 481 876 490 q 883 465 880 472 l 890 463 z "},"":{"ha":906,"x_min":26,"x_max":850,"o":"m 123 19 q 104 35 106 30 q 99 43 102 39 q 106 60 103 58 q 111 62 109 61 q 119 74 114 69 q 130 84 125 79 q 140 95 136 90 q 152 104 145 100 q 159 117 159 115 q 160 122 159 119 l 176 136 q 182 144 180 141 q 186 151 183 148 q 194 158 190 156 q 201 167 198 160 q 208 173 205 170 q 216 179 210 176 q 222 191 221 186 q 229 198 224 197 q 240 213 231 210 q 248 226 248 225 q 247 229 247 227 q 263 247 258 243 q 274 261 273 258 q 278 264 275 264 q 285 275 281 271 q 292 283 289 279 q 302 297 301 296 q 305 301 302 298 q 316 313 315 311 q 323 316 317 315 q 339 343 332 334 q 353 363 346 353 q 370 391 365 380 q 376 401 376 397 q 380 407 377 404 q 391 418 389 415 q 396 425 393 420 q 404 440 403 438 q 407 445 406 442 q 416 456 411 452 q 425 468 420 461 q 431 476 429 476 q 435 479 433 476 q 443 490 441 488 q 448 496 445 492 q 456 510 450 502 q 463 520 463 517 q 464 526 463 524 q 472 536 472 533 q 475 537 472 538 q 477 543 476 540 q 479 552 479 547 q 494 570 488 566 q 500 582 499 574 q 519 602 511 595 q 529 623 526 609 q 539 633 536 627 q 551 643 543 640 q 555 656 553 656 q 559 659 557 656 q 570 675 570 674 q 572 678 570 675 q 591 703 583 699 q 601 719 598 708 q 611 727 610 719 q 621 734 612 735 q 628 749 625 746 q 635 754 631 751 q 639 763 636 760 q 644 770 642 766 q 663 792 658 791 q 673 805 673 802 q 677 807 674 808 q 690 825 686 821 q 697 834 693 830 q 709 848 705 844 q 720 856 713 853 q 734 873 730 865 q 749 886 739 882 q 762 907 757 899 q 772 918 772 917 q 774 918 772 920 q 781 932 783 930 q 783 935 779 935 q 795 948 791 948 q 802 964 800 962 q 804 971 804 966 q 818 977 810 975 q 833 974 826 979 q 838 958 838 960 q 838 951 838 955 q 829 938 836 943 q 822 922 823 933 q 811 913 815 914 q 804 907 807 911 q 792 885 798 892 q 777 872 787 878 q 767 858 770 859 q 765 852 764 857 q 758 847 760 850 q 750 842 755 844 q 734 819 736 829 q 719 806 731 810 q 713 797 718 799 q 705 792 709 795 q 698 777 700 780 q 692 774 696 774 q 678 758 682 762 q 672 749 674 750 q 667 745 670 747 q 658 732 659 732 q 655 730 656 731 q 647 712 648 715 q 637 703 637 705 q 633 700 637 700 q 626 688 627 690 q 620 688 625 686 q 617 675 620 677 q 612 670 614 674 q 602 657 602 658 q 601 655 602 656 q 589 637 593 646 q 576 625 585 629 q 567 608 568 612 q 563 601 566 604 q 556 590 560 594 q 548 581 552 586 q 540 566 540 567 q 537 563 540 566 q 521 540 529 551 q 507 517 513 529 q 493 500 499 503 q 486 486 487 496 q 475 471 477 471 q 471 468 473 471 q 458 448 464 454 q 449 434 449 437 q 448 429 449 431 q 432 412 434 415 q 427 408 430 410 q 421 397 425 401 q 414 387 418 392 q 409 380 411 384 q 404 370 407 376 q 393 351 400 361 q 382 338 382 339 q 380 334 382 336 q 368 321 370 323 q 365 317 366 320 q 357 304 358 307 q 354 300 355 302 q 349 292 351 293 q 345 288 346 290 q 340 279 340 282 q 336 274 339 277 q 321 258 327 266 q 314 250 317 254 q 309 240 311 247 q 302 235 305 239 q 296 229 300 232 q 283 210 286 214 q 275 196 274 198 q 273 191 275 194 q 262 180 262 180 q 259 176 262 179 q 248 164 252 168 q 241 153 243 160 q 224 130 232 138 q 205 113 217 119 q 200 104 203 107 q 194 98 197 100 q 186 88 186 91 q 184 84 186 85 q 174 71 176 76 q 169 64 171 68 q 163 60 167 61 q 155 48 157 52 q 148 42 153 45 q 134 24 140 26 q 123 19 129 22 m 255 974 q 256 966 258 968 q 252 958 254 963 q 253 943 255 951 q 255 932 251 936 q 252 920 252 929 q 255 905 252 911 q 250 876 248 884 q 252 856 252 867 q 252 844 251 848 q 252 837 252 841 q 252 814 252 826 q 251 791 252 803 q 246 762 248 770 q 244 747 244 754 q 244 730 245 734 q 241 722 243 727 q 242 710 243 711 q 241 707 241 709 q 241 682 240 690 q 240 665 243 674 q 243 652 244 655 q 241 644 241 648 q 243 631 244 633 q 241 627 241 629 q 242 601 240 613 q 244 578 244 589 q 243 571 244 575 q 243 563 243 567 q 244 541 243 547 q 245 528 245 534 q 245 515 245 521 q 243 502 245 509 q 249 472 248 484 q 245 454 250 460 q 264 455 258 452 q 282 460 271 458 q 291 455 286 457 q 300 450 296 453 q 307 427 301 433 q 292 414 294 415 q 286 410 289 412 q 275 410 281 412 q 263 410 269 408 q 248 411 251 414 q 243 408 245 408 q 235 411 240 411 q 227 412 229 411 q 214 409 220 411 q 199 407 209 407 q 176 404 179 403 q 133 395 161 395 q 120 387 121 387 q 117 387 119 388 q 98 383 100 385 q 94 382 96 381 q 82 373 87 376 q 69 377 77 370 q 58 399 57 385 q 68 411 68 408 q 71 415 68 414 q 88 420 79 420 q 94 427 92 423 q 100 430 95 430 q 107 456 103 445 q 109 481 111 467 q 113 493 111 486 q 111 507 114 500 q 115 522 115 514 q 114 537 114 529 q 114 551 115 548 q 113 556 113 553 q 113 574 114 570 q 114 585 111 578 q 117 614 115 604 q 117 631 119 627 q 118 637 115 635 q 120 656 119 652 q 121 663 121 661 q 120 673 121 669 q 123 680 119 677 q 121 691 122 685 q 123 700 119 697 q 121 711 121 705 q 122 722 122 716 q 119 739 118 735 q 119 746 119 743 q 119 779 117 761 q 121 817 122 798 q 117 834 117 830 q 114 844 117 838 q 90 854 98 854 q 77 854 83 853 q 64 853 71 856 q 52 856 53 857 q 47 854 50 854 q 41 859 45 857 q 31 860 38 860 q 28 869 31 865 q 27 880 26 873 q 42 889 41 886 q 46 894 43 892 q 57 892 53 895 q 66 887 61 888 q 77 890 73 887 q 85 895 81 892 q 94 896 91 898 q 103 895 98 894 q 121 896 115 899 q 134 894 126 892 q 159 903 155 899 q 167 909 163 906 q 187 920 184 910 q 195 923 193 921 q 205 926 198 925 q 209 945 209 936 q 210 970 209 955 q 214 977 210 975 q 216 985 218 978 q 224 987 220 986 q 231 990 228 987 q 247 983 248 982 q 248 979 245 983 l 255 974 m 792 594 q 791 579 789 579 q 792 578 792 579 q 789 561 788 564 q 789 555 789 557 q 785 534 784 538 q 783 529 787 530 q 783 515 784 518 q 780 511 783 513 q 782 503 784 507 q 780 494 780 499 q 777 473 777 479 q 779 436 779 452 q 772 414 779 420 q 772 390 774 395 q 769 382 769 385 q 771 373 770 380 q 770 361 772 366 q 772 338 770 342 q 768 331 774 334 q 770 291 769 308 q 772 259 772 274 q 770 233 770 243 q 772 217 769 224 q 802 219 795 216 q 817 225 810 222 q 826 222 823 225 q 833 222 829 220 q 842 215 837 218 q 850 208 848 212 q 844 182 850 189 q 819 175 837 175 q 804 184 815 179 q 786 180 791 182 q 773 179 781 178 q 770 164 770 172 q 773 149 769 156 q 772 134 770 142 q 774 122 774 126 q 777 111 776 113 q 780 104 779 109 q 783 90 784 91 q 783 85 783 88 q 787 71 787 76 q 818 47 810 54 q 819 36 821 45 q 825 26 817 27 q 800 10 808 14 q 783 12 792 7 q 770 10 776 11 q 757 11 764 9 q 748 7 751 9 q 738 7 745 5 q 729 -1 731 -1 q 724 0 727 -1 q 713 -7 718 -3 q 701 -9 709 -11 l 673 -16 q 660 4 658 0 q 665 15 662 8 q 673 18 670 16 q 680 23 677 20 q 680 37 680 34 q 684 42 681 39 q 681 59 682 49 q 681 79 680 69 q 682 88 681 83 q 682 98 682 94 q 682 118 684 110 q 684 132 680 126 q 681 141 682 137 q 678 152 680 145 q 680 165 678 159 q 680 178 682 171 q 665 178 673 179 q 648 179 656 176 q 635 180 637 180 q 631 179 633 179 q 615 179 624 178 q 597 179 606 180 q 578 178 582 178 q 568 179 574 179 q 559 178 563 179 q 548 176 555 176 q 533 176 541 175 q 518 172 525 176 q 503 172 506 174 q 495 171 499 171 q 479 177 480 178 q 476 178 479 176 q 473 196 473 191 q 475 209 472 201 q 488 217 483 214 q 503 225 499 222 q 515 236 513 235 q 515 241 517 237 q 530 251 529 248 q 533 252 530 254 q 538 262 536 258 q 547 270 541 267 q 557 281 555 279 q 562 285 559 283 q 578 307 571 298 q 590 326 585 315 q 597 334 597 328 q 605 342 598 339 q 621 367 614 362 q 628 385 628 372 q 642 406 636 399 q 650 423 647 412 q 665 448 659 434 q 682 469 671 461 q 697 503 693 487 q 711 532 701 519 q 710 541 708 536 q 709 548 712 545 q 720 566 716 556 q 728 586 723 576 q 741 589 735 587 q 753 589 746 591 q 765 605 762 601 q 782 603 776 606 q 792 594 788 600 m 681 397 q 674 385 675 387 q 671 381 673 382 q 666 370 667 373 q 663 363 665 366 q 652 347 654 350 q 647 340 651 343 q 633 315 637 319 q 627 302 628 311 q 608 283 614 289 q 597 271 602 278 q 587 258 591 266 q 577 245 576 245 q 575 244 578 245 q 562 228 566 229 q 557 221 557 227 q 564 220 560 218 q 572 221 568 221 q 587 220 587 218 q 599 218 598 218 q 602 217 600 217 q 615 220 609 217 q 628 222 621 222 q 641 220 639 220 q 644 221 643 221 q 656 220 651 221 q 667 217 661 218 q 677 218 673 217 q 686 217 682 220 q 687 229 689 224 q 689 244 685 235 q 686 271 686 264 q 688 285 685 278 q 687 316 688 304 q 686 340 686 328 q 689 361 688 351 q 688 382 690 372 q 690 395 689 392 q 689 401 690 399 l 681 397 z "},"":{"ha":425,"x_min":0,"x_max":411,"o":"m 316 960 q 318 951 315 958 q 320 940 321 945 q 315 932 317 936 q 312 926 313 929 q 311 916 313 920 q 311 907 308 911 q 302 891 305 891 q 300 888 300 891 q 298 868 297 873 q 293 860 298 863 q 293 841 301 849 q 290 825 288 826 q 292 821 293 825 q 288 808 289 808 q 288 806 288 807 q 289 789 290 791 q 288 785 288 788 q 286 768 285 769 q 289 764 288 766 q 286 735 288 743 q 286 715 285 727 q 281 700 279 704 q 283 692 282 696 q 284 677 281 684 q 288 662 288 670 q 288 644 289 646 q 286 637 286 642 q 287 624 286 624 q 288 623 288 624 q 287 613 286 618 q 288 602 288 608 q 288 589 286 590 q 288 585 289 587 q 288 569 286 574 q 288 557 289 564 q 287 541 285 544 q 289 534 289 538 q 289 514 286 521 q 285 502 292 507 q 289 487 288 488 q 290 483 290 486 q 290 467 293 468 q 289 463 288 467 q 293 448 294 448 q 292 446 292 448 q 295 431 296 431 q 293 427 294 430 q 300 413 301 414 q 302 410 300 412 q 314 402 307 406 q 328 393 321 399 q 338 392 334 393 q 347 392 342 391 q 361 393 357 395 q 368 392 365 392 q 376 393 372 392 q 384 393 381 393 q 393 392 388 393 q 406 392 399 391 q 408 375 408 378 q 411 366 408 372 q 404 356 408 359 q 395 347 399 353 q 363 349 374 350 q 349 342 351 343 q 346 340 347 340 q 334 342 336 343 q 330 342 332 342 q 302 347 311 349 q 282 347 293 345 q 266 347 266 346 q 263 349 266 349 q 245 347 248 346 q 237 349 241 349 q 220 347 224 349 q 210 346 217 346 q 199 347 205 346 q 186 347 193 347 q 170 347 178 349 q 156 347 163 346 q 140 349 141 350 q 136 347 138 347 q 123 346 125 347 q 121 345 122 345 q 109 345 114 345 q 99 345 104 346 q 87 342 88 342 q 83 343 85 343 l 60 340 q 51 340 56 340 q 43 342 46 340 q 27 353 30 350 q 24 361 24 357 q 28 372 24 368 q 34 381 31 376 q 45 382 41 380 q 57 385 50 385 q 71 385 64 387 q 84 385 77 384 q 97 389 96 388 q 99 389 98 389 q 114 393 109 389 q 126 396 119 396 q 135 404 133 403 q 138 406 137 404 q 147 420 148 419 q 146 425 146 422 q 150 441 149 441 q 152 444 151 441 q 153 457 151 454 q 153 465 156 460 q 155 477 157 476 q 151 481 153 479 q 151 494 151 488 q 151 506 152 499 q 150 527 151 517 q 152 547 149 537 q 152 562 152 560 q 154 576 152 574 q 153 581 156 578 q 156 609 151 595 q 153 632 153 623 q 153 650 153 642 q 153 667 152 662 q 155 674 153 671 q 154 682 155 677 q 155 689 153 686 q 156 696 155 693 q 156 704 157 699 q 157 722 159 716 q 156 732 156 727 q 155 743 155 738 q 156 753 156 749 q 156 768 155 765 q 157 774 157 772 q 148 795 153 792 q 129 802 136 802 q 115 800 122 803 q 98 797 103 796 q 88 796 94 798 q 71 795 72 796 q 68 793 71 793 q 56 794 62 793 q 43 793 50 795 q 22 791 26 792 q 11 793 18 791 q 1 806 1 804 q 0 810 1 807 q 6 820 3 817 q 12 827 9 823 q 20 829 16 829 q 27 826 24 830 q 43 829 39 829 q 50 827 47 830 q 65 831 57 830 q 81 833 73 831 q 101 837 98 837 q 106 842 104 837 q 121 846 117 841 q 136 849 125 850 q 150 853 141 853 q 161 859 159 853 q 172 860 168 859 q 180 863 175 861 q 197 876 191 871 q 214 883 212 883 q 220 886 217 883 q 236 897 232 894 q 245 905 240 901 q 254 911 252 907 q 259 916 255 914 q 270 937 270 929 q 277 953 275 944 q 289 963 279 962 q 303 965 297 967 q 316 960 309 963 z "},"":{"ha":978,"x_min":39,"x_max":922,"o":"m 163 43 q 162 57 161 50 q 164 71 163 64 q 178 81 176 79 q 180 88 179 84 q 190 102 191 100 q 194 103 189 103 q 205 117 199 110 q 218 129 210 125 q 221 137 218 134 q 227 142 224 140 q 231 149 229 145 q 237 153 233 153 l 252 174 q 267 191 264 189 q 273 198 270 193 q 281 205 281 203 q 283 213 282 208 q 304 232 296 228 q 310 242 305 240 q 315 252 315 244 q 332 270 326 260 q 349 286 339 279 q 357 307 353 301 q 366 316 361 312 q 374 332 372 330 q 378 336 376 334 q 390 351 388 350 q 392 358 392 353 q 410 379 407 372 q 420 389 414 387 q 425 401 423 399 q 429 406 426 403 q 439 422 438 419 q 441 427 439 425 q 447 436 448 434 q 448 441 446 438 q 456 456 453 454 q 460 463 460 457 q 482 490 473 479 q 500 513 491 502 q 508 527 506 524 q 513 533 510 530 q 519 545 515 538 q 525 557 522 551 q 534 565 532 559 q 543 572 536 571 q 546 583 543 579 q 555 589 549 586 q 562 602 560 602 q 574 618 570 614 q 587 635 586 631 q 594 642 589 640 q 600 652 595 648 q 606 658 604 655 q 616 672 614 671 q 617 677 618 673 q 637 699 631 696 q 650 707 643 701 q 657 722 655 719 q 663 726 659 724 q 669 736 669 732 q 674 739 670 739 q 687 760 681 755 q 696 772 693 764 q 716 798 712 793 q 730 808 720 803 q 747 827 736 822 q 758 841 755 834 q 768 849 761 848 q 777 863 773 861 q 785 868 780 865 q 798 888 796 879 q 810 901 800 898 q 814 911 811 907 q 818 922 818 914 q 833 938 831 935 q 841 943 836 941 q 844 949 841 948 q 848 956 846 951 q 861 961 854 959 q 876 959 868 963 q 880 949 879 955 q 883 940 882 944 q 873 926 875 929 q 867 925 872 922 q 864 917 867 920 q 859 911 861 914 q 842 888 848 891 q 836 878 837 886 q 826 867 829 872 q 821 859 823 861 q 813 850 817 854 q 806 846 810 845 q 799 835 804 838 q 791 825 793 831 q 779 814 784 815 q 774 810 774 814 q 759 793 765 803 q 746 772 753 783 q 732 754 739 762 q 716 736 724 746 q 699 716 707 719 q 690 703 692 713 q 676 688 677 690 q 673 684 675 686 q 659 671 659 671 q 656 667 659 670 q 643 650 654 654 q 633 633 633 636 q 629 627 632 629 q 618 616 624 617 q 609 602 616 608 q 594 581 602 589 q 576 564 586 572 q 567 544 568 553 q 555 526 560 529 q 548 515 551 522 q 534 500 536 505 q 530 490 533 496 q 524 482 528 486 q 521 472 521 479 q 513 463 515 469 q 505 454 511 457 q 500 444 505 448 q 495 433 496 441 q 475 412 481 418 q 467 395 471 401 q 456 382 463 388 q 446 361 448 363 q 441 354 444 358 q 430 338 430 342 q 423 336 430 335 q 418 324 418 326 q 418 321 419 323 q 414 315 416 317 q 411 308 411 312 q 398 292 403 296 q 391 283 393 289 q 378 267 388 269 q 367 250 370 252 q 361 244 363 247 q 352 229 353 231 q 349 227 351 228 q 343 218 346 222 q 335 212 340 214 q 328 199 334 203 q 320 190 323 195 q 311 179 315 184 q 304 167 307 174 q 289 154 293 159 q 281 144 285 149 q 273 136 277 140 q 263 129 270 132 q 252 109 256 111 q 247 99 247 107 q 238 94 240 98 q 233 83 236 90 q 223 73 227 77 q 217 64 220 68 q 208 49 213 57 q 183 31 195 35 q 173 34 176 30 q 163 43 170 38 m 258 1004 q 274 1003 271 1004 q 278 1001 277 1002 q 296 1002 294 1004 q 300 1000 297 1001 q 313 993 309 994 q 321 989 316 991 q 334 978 332 979 q 340 975 336 977 q 351 963 343 971 q 363 946 362 949 q 368 943 363 943 q 370 934 365 939 q 373 924 374 929 q 376 913 373 917 q 380 907 378 910 q 380 892 381 895 q 380 887 380 890 q 382 873 382 878 q 381 864 381 868 q 382 857 381 861 q 382 849 382 852 q 376 830 377 834 q 372 819 374 826 q 359 792 363 799 q 350 776 355 785 q 341 762 342 764 q 339 760 340 761 q 332 753 338 757 q 324 747 327 749 q 304 743 308 742 q 297 743 300 743 q 320 729 312 734 q 336 722 328 724 q 354 701 343 709 q 370 681 365 693 q 380 676 378 681 q 387 670 381 671 q 389 659 385 662 q 391 648 393 655 q 396 628 397 629 q 403 619 400 625 q 408 609 406 613 q 408 589 408 595 q 410 576 407 583 q 405 547 407 559 q 400 528 403 536 q 394 519 393 521 q 389 517 395 517 q 385 503 385 505 q 382 502 385 500 q 379 494 382 495 q 372 487 376 492 q 359 477 366 480 q 350 468 353 475 q 334 462 338 465 q 326 456 331 458 q 313 453 319 453 q 304 448 307 453 q 284 443 288 444 q 278 439 281 442 q 261 439 263 438 q 258 438 259 439 q 246 434 250 435 q 237 431 243 433 q 229 429 233 430 q 217 430 224 427 q 182 426 193 427 q 160 426 171 425 q 127 437 138 429 q 110 448 113 446 q 104 449 107 449 q 94 458 96 457 q 85 460 91 460 q 73 471 73 468 q 68 471 73 473 q 65 480 69 477 q 60 490 61 483 q 54 499 57 495 q 47 506 52 503 q 42 541 45 522 q 52 570 39 559 q 52 577 50 575 q 54 585 54 579 q 70 615 62 606 q 92 627 77 624 q 101 633 95 632 q 111 637 107 633 q 147 634 130 637 q 180 625 164 631 q 194 616 193 617 q 199 614 195 614 q 206 591 206 595 q 209 574 208 576 q 210 570 210 572 q 208 561 209 566 q 206 553 208 556 q 198 547 203 549 q 194 537 193 544 l 182 528 q 170 526 171 526 q 167 528 168 526 q 159 534 164 529 q 153 541 155 538 l 153 556 q 160 571 165 571 q 156 575 155 571 q 159 585 167 583 q 149 591 152 586 q 135 591 137 590 q 130 594 133 593 q 120 596 125 597 q 110 595 115 595 q 94 578 96 585 q 83 570 91 571 q 81 558 83 563 q 79 547 79 553 q 85 521 85 525 q 91 515 88 518 q 96 510 94 513 q 105 500 104 499 q 107 499 106 500 q 124 483 119 484 q 132 479 129 481 q 145 475 140 477 q 160 471 151 473 q 176 468 172 467 q 182 464 180 469 q 201 468 191 468 q 230 473 217 471 q 255 481 243 476 q 264 492 260 487 q 275 500 269 498 q 279 508 274 507 q 283 517 285 509 q 296 538 294 530 q 304 553 298 547 q 304 564 301 559 q 304 574 307 568 q 309 593 311 579 q 313 616 308 608 q 311 625 313 620 q 311 633 308 629 q 297 663 302 644 q 290 673 293 669 q 281 681 286 678 q 274 694 281 690 q 264 707 267 699 q 247 711 252 707 q 231 711 237 708 q 204 707 210 709 q 190 707 198 705 q 181 713 182 711 q 178 719 180 716 q 162 720 163 720 q 159 719 161 719 q 144 718 148 719 q 138 716 141 716 q 127 718 132 716 q 115 722 122 720 q 113 729 113 724 q 111 736 114 734 q 118 754 118 743 q 144 762 137 764 q 159 761 152 760 q 178 763 172 764 q 189 764 184 762 q 214 773 206 770 q 225 784 221 776 q 253 802 244 798 q 270 814 262 807 q 275 825 271 821 q 281 836 278 830 q 283 844 283 841 q 286 853 283 846 q 289 864 290 863 q 288 868 288 865 q 290 876 289 871 q 292 883 292 880 q 288 906 288 902 q 286 914 289 910 q 279 930 278 928 q 278 933 279 932 q 260 954 274 947 q 233 970 245 962 q 222 968 224 967 q 217 970 220 970 q 194 967 208 970 q 182 963 184 963 q 178 962 180 963 q 155 945 164 955 q 133 926 145 935 q 131 917 133 920 q 126 911 129 914 q 124 897 127 905 q 123 883 121 890 q 140 876 137 871 q 152 879 144 882 q 168 883 164 883 q 175 870 174 871 q 176 868 176 869 q 172 853 175 857 q 165 846 170 849 q 151 840 157 844 q 136 836 144 837 q 107 838 122 833 q 99 844 102 841 q 92 848 96 848 q 84 861 91 854 q 87 883 85 873 q 88 903 88 892 q 97 926 94 918 q 102 943 100 935 q 113 956 113 947 q 127 970 122 962 q 140 986 132 979 q 155 989 153 989 q 159 993 156 990 q 178 1006 172 1004 q 190 1009 184 1008 q 203 1008 197 1009 q 216 1010 209 1006 q 232 1012 227 1009 q 248 1012 237 1015 l 258 1004 m 834 591 q 834 575 834 575 q 836 557 834 562 q 838 551 838 553 q 837 535 836 538 q 838 529 838 532 q 839 514 838 522 q 837 496 840 506 q 843 481 841 491 q 838 465 845 471 q 839 449 842 453 q 837 441 836 445 q 831 418 830 426 q 830 406 833 411 q 832 388 830 395 q 831 374 834 381 q 829 362 827 368 q 829 351 830 357 q 827 333 829 342 q 825 315 825 324 q 823 274 827 289 q 825 256 827 266 q 826 235 823 245 q 832 229 827 231 q 841 227 837 228 q 858 225 857 224 q 861 227 859 227 q 882 224 872 224 q 895 224 892 225 q 903 227 901 225 q 911 229 906 229 q 920 207 921 213 q 917 193 920 201 q 909 188 913 190 q 901 184 905 186 q 869 188 884 189 q 845 194 853 187 q 833 171 834 178 q 838 157 833 164 q 839 135 841 140 q 838 125 837 130 q 844 110 844 117 q 845 92 842 98 q 845 79 848 85 q 854 62 853 71 q 867 58 865 60 q 871 53 868 56 q 882 51 876 54 q 895 47 887 47 q 903 47 901 47 q 910 45 906 47 q 919 34 920 37 q 922 30 918 31 q 918 16 920 23 q 911 5 916 9 q 893 2 895 4 q 888 -1 891 0 q 875 -1 878 -1 q 868 -3 872 -1 q 858 -5 860 -7 q 853 -5 856 -4 q 840 -5 845 -8 q 830 -7 834 -3 q 819 -5 826 -3 q 804 -7 811 -7 q 761 -7 781 -11 q 745 -5 747 -4 q 739 -8 742 -7 q 722 -10 724 -11 q 718 -9 719 -9 l 700 -12 q 679 -12 684 -9 q 669 -12 674 -14 q 661 3 661 3 q 662 7 662 4 q 662 19 663 18 q 663 23 661 20 q 678 28 675 27 q 682 26 681 28 q 694 31 689 28 q 705 37 700 34 q 720 42 719 38 q 730 43 722 46 q 732 60 730 56 q 734 69 734 64 q 733 81 731 81 q 735 85 735 81 q 734 105 732 102 q 735 113 735 109 q 733 123 735 118 q 731 136 731 129 q 731 159 734 151 q 731 179 728 167 q 716 191 724 194 q 703 188 704 187 q 699 189 701 189 q 683 187 684 189 q 681 187 682 186 q 663 186 665 187 q 661 184 662 184 q 649 184 655 183 q 639 179 643 184 q 622 182 623 184 q 618 179 621 180 q 608 180 610 182 q 604 179 605 179 q 578 177 585 179 q 566 175 572 175 q 548 174 557 174 q 532 170 538 175 q 526 176 526 171 q 518 180 525 180 q 516 191 518 187 q 513 198 514 194 q 521 211 518 203 q 534 218 524 218 q 541 227 537 225 q 547 236 544 229 q 560 245 557 245 q 562 250 563 245 q 569 254 566 251 q 575 259 572 256 q 580 267 578 263 q 583 274 582 270 q 591 286 591 283 q 593 290 590 289 q 602 302 601 302 q 602 308 604 302 q 610 317 609 309 q 618 323 612 324 q 629 345 621 338 q 647 358 636 353 q 652 372 652 366 q 658 374 652 377 q 670 389 661 388 q 673 401 667 396 q 682 410 680 406 q 694 430 688 425 q 703 445 700 435 q 713 463 712 457 q 722 469 715 468 q 729 483 727 481 q 730 488 731 484 q 733 507 738 502 q 728 517 728 513 q 745 534 742 532 q 753 541 747 537 q 764 549 758 544 q 776 559 769 555 q 786 570 783 568 q 793 575 789 572 q 796 584 792 582 q 802 593 800 586 q 818 597 808 597 q 834 591 827 598 m 734 426 q 727 416 727 420 q 720 412 727 411 q 705 388 718 397 q 693 369 696 374 q 686 359 688 362 q 678 357 684 355 q 676 348 677 353 q 673 340 675 343 q 663 328 663 328 q 655 316 655 317 q 654 312 655 315 q 646 305 647 308 q 643 300 646 302 q 633 282 632 285 q 623 271 625 271 q 620 269 621 271 q 612 255 610 256 q 612 251 613 254 q 605 241 608 245 q 600 235 602 237 q 591 227 595 231 q 587 218 586 224 q 604 220 601 220 q 610 218 608 220 q 625 220 617 221 q 639 221 632 220 q 659 227 658 225 q 665 225 661 228 q 681 228 671 229 q 699 232 689 232 q 712 233 711 235 q 718 233 713 232 q 728 249 727 239 q 722 270 728 259 q 724 278 726 274 q 727 285 722 282 q 730 311 730 301 q 730 331 730 320 q 732 342 732 342 q 731 346 731 343 q 732 355 731 351 q 735 363 734 358 q 736 376 734 372 q 741 382 738 380 q 741 408 743 399 q 739 425 738 416 l 734 426 z "},"":{"ha":437,"x_min":35,"x_max":396,"o":"m 309 674 q 315 667 311 669 q 317 658 320 666 q 340 648 331 648 q 353 636 345 640 q 355 628 353 631 q 359 621 357 625 q 368 606 359 612 q 372 587 373 589 q 370 583 370 586 q 378 566 377 568 q 380 557 378 563 q 382 548 381 553 q 384 540 384 543 q 384 526 382 529 q 385 521 385 524 q 385 510 385 515 q 384 499 385 505 q 380 485 380 488 q 381 479 381 481 q 378 469 377 471 q 377 464 378 467 q 365 439 362 446 q 359 430 359 437 q 355 419 358 423 q 345 406 347 407 q 343 401 343 404 q 336 396 340 399 q 330 391 332 393 q 320 377 320 378 q 317 373 320 376 q 298 363 302 366 q 289 357 290 357 q 285 357 288 358 q 268 351 271 351 q 263 349 264 350 q 244 345 247 347 q 237 346 241 343 q 224 340 228 339 q 217 339 221 342 q 200 333 209 334 q 183 339 191 332 q 165 342 172 339 q 148 346 159 346 q 125 356 130 357 q 114 358 119 355 q 102 366 104 365 q 102 370 100 366 q 83 385 88 382 q 73 392 77 388 q 64 407 66 406 q 60 414 62 408 q 51 437 53 431 q 50 452 49 442 q 44 467 46 456 q 50 480 42 477 q 49 497 47 491 q 49 514 50 503 q 54 530 56 528 q 52 534 53 532 q 57 543 53 540 q 62 552 61 545 q 73 559 68 556 q 80 570 77 563 q 90 571 87 568 q 98 575 94 574 q 107 576 100 576 q 118 575 114 575 q 127 575 125 576 q 133 574 130 574 q 157 571 149 575 q 172 566 164 567 q 184 557 183 559 q 189 552 186 555 q 194 545 191 548 q 199 537 197 543 q 205 523 205 525 q 208 511 206 521 l 208 495 q 199 481 199 486 q 186 472 195 476 q 174 468 175 469 q 170 465 172 467 q 160 465 165 464 q 148 464 155 465 q 137 487 137 472 q 155 505 146 505 q 165 513 164 506 q 146 533 152 529 q 127 535 136 534 q 113 540 119 536 q 98 530 106 533 q 92 515 91 528 q 80 498 83 511 q 78 484 79 490 q 80 472 77 479 q 83 458 84 463 q 84 452 83 454 q 90 440 87 445 q 94 429 94 435 q 100 420 96 423 q 106 410 104 416 q 119 401 115 401 q 121 396 122 401 q 137 389 136 388 q 142 391 138 391 q 161 382 156 381 q 170 381 165 382 q 187 374 180 378 q 208 383 205 381 q 214 387 210 385 q 232 396 228 392 q 247 414 247 408 q 254 419 252 415 q 263 423 255 423 q 267 444 263 441 q 273 453 270 448 q 272 462 273 457 q 274 471 271 467 q 279 487 279 481 q 282 499 278 492 q 278 516 277 506 q 274 532 279 526 q 273 555 277 543 q 269 578 269 568 q 256 592 263 586 q 243 606 248 598 q 235 611 239 609 q 228 616 231 613 q 210 621 213 617 q 199 621 208 624 q 193 637 194 633 q 194 644 191 642 q 182 643 187 643 q 170 642 176 643 q 152 642 160 639 q 140 644 145 643 q 133 647 136 644 q 130 656 130 651 q 127 667 130 661 q 136 675 133 670 q 142 685 140 681 q 163 682 159 688 q 180 685 179 684 q 183 686 180 686 q 211 685 203 685 q 225 688 218 685 q 230 695 229 690 q 233 704 231 700 q 241 720 243 718 q 240 726 240 722 q 245 750 245 738 q 248 776 245 762 q 246 793 245 784 q 247 810 247 803 q 241 829 244 823 q 235 842 237 836 q 225 863 229 859 q 222 873 221 868 q 214 882 218 878 q 208 892 210 886 q 203 898 205 895 q 198 905 202 901 q 192 910 194 907 q 187 916 190 913 q 170 918 176 918 q 156 917 163 917 q 149 918 152 917 q 140 917 146 918 q 126 910 134 916 q 105 904 107 907 q 98 901 103 901 q 89 888 95 892 q 79 876 83 883 q 74 861 75 861 q 72 859 73 861 q 72 838 71 842 q 76 833 73 834 q 81 818 75 821 q 98 814 98 815 q 116 820 114 818 q 121 825 118 822 q 131 824 126 822 q 141 825 136 826 q 152 819 148 823 q 159 811 156 815 q 152 793 157 804 q 145 791 149 793 q 137 787 141 789 q 130 787 134 785 q 122 783 125 788 q 111 783 113 785 q 106 779 109 780 q 95 778 100 777 q 84 776 90 779 q 65 783 69 780 q 49 794 50 791 q 43 799 47 798 q 41 819 43 810 q 41 838 39 827 q 37 859 38 853 q 37 869 35 864 q 41 880 38 875 q 43 890 43 884 q 52 900 50 901 q 54 901 53 899 q 62 909 58 906 q 66 920 65 913 q 77 926 73 922 q 91 930 81 930 q 106 944 106 940 q 121 947 118 945 q 126 951 123 948 q 136 953 133 954 q 142 958 140 952 q 168 960 164 959 q 193 962 186 963 q 208 967 201 960 q 215 967 212 966 q 222 968 218 968 q 235 966 229 967 q 245 964 240 966 q 261 961 256 960 q 269 956 266 962 q 294 951 288 954 q 308 947 301 949 q 317 945 312 945 q 324 943 321 945 q 330 937 327 940 q 336 930 334 933 q 343 926 340 928 q 350 921 346 924 l 362 902 q 371 890 370 891 q 374 887 372 888 q 379 876 374 880 q 387 867 384 872 q 388 857 385 861 q 387 849 391 852 q 391 840 389 846 q 395 830 392 834 q 394 798 396 814 q 385 776 392 783 q 378 760 382 760 q 374 750 378 751 q 373 742 370 749 q 368 734 368 738 q 365 728 368 731 l 354 712 q 347 704 351 709 q 339 694 343 699 q 327 688 330 690 q 321 681 324 685 l 309 674 z "},"":{"ha":468,"x_min":27,"x_max":441,"o":"m 134 483 q 144 481 137 477 q 157 486 151 486 q 178 476 168 486 q 201 476 190 481 q 208 469 206 473 q 216 467 210 465 q 227 454 225 456 q 241 446 243 446 q 254 435 252 438 q 258 429 255 431 q 266 427 263 429 q 274 425 269 425 q 281 416 277 419 q 290 411 286 414 q 303 401 300 401 q 305 397 307 401 q 323 389 320 389 q 331 388 327 389 q 340 386 336 387 q 353 385 345 385 q 366 387 362 384 q 373 387 370 389 q 381 391 378 389 q 387 396 384 393 q 396 423 396 410 q 396 440 396 438 q 395 445 396 442 q 389 451 392 449 q 385 460 385 453 q 369 471 382 467 q 351 463 354 465 q 345 460 347 460 q 332 465 338 460 q 320 469 327 469 q 320 483 316 483 q 324 486 324 483 q 333 500 330 500 q 339 503 336 500 q 350 511 350 513 q 353 510 350 509 q 371 513 369 514 q 377 511 373 511 q 392 510 389 510 q 401 506 397 507 q 408 502 404 505 q 422 479 419 486 q 430 467 425 472 q 441 445 430 449 q 439 428 438 433 q 441 420 441 423 q 430 404 439 411 q 429 392 433 395 q 426 381 425 389 q 411 370 412 372 q 406 368 410 368 q 384 351 391 354 q 363 346 377 347 q 348 345 349 345 q 345 346 347 346 q 336 345 339 346 q 330 346 334 345 q 314 347 315 346 q 311 349 313 349 l 293 354 q 280 362 281 361 q 278 365 279 363 q 263 373 271 368 q 252 384 256 380 q 243 395 247 388 q 231 399 235 395 q 221 404 228 403 q 202 420 206 414 q 189 427 198 426 q 184 432 187 430 q 179 439 180 434 q 161 441 168 442 q 142 444 153 441 q 134 439 137 442 q 123 435 130 437 q 110 425 121 430 q 101 412 106 418 q 92 399 96 406 q 79 365 90 376 q 64 355 64 358 q 61 349 64 351 q 45 343 56 349 q 36 349 39 346 q 27 355 33 353 q 39 396 27 385 q 43 412 41 406 q 50 420 46 418 q 60 439 58 437 q 61 448 61 442 q 71 467 68 454 q 85 483 75 479 q 96 498 91 495 q 100 509 100 500 q 113 518 109 518 q 123 532 121 530 q 123 536 125 533 q 133 543 133 541 q 136 547 133 545 q 145 561 140 553 q 153 575 151 568 q 161 582 157 578 q 168 589 164 586 q 172 600 171 595 q 175 606 172 604 q 184 620 182 620 q 187 623 186 620 q 195 636 194 633 q 199 640 197 639 q 205 655 203 652 q 209 656 206 658 q 214 671 213 670 q 218 680 218 675 q 221 685 217 684 q 226 700 227 693 q 231 708 225 707 q 234 725 229 716 q 233 739 239 734 q 235 752 237 745 q 235 766 232 760 q 231 777 232 769 q 228 793 229 785 q 226 808 225 807 q 225 812 227 810 q 222 822 224 818 q 221 834 220 826 q 211 850 213 846 q 206 856 209 853 q 201 863 203 860 q 198 869 198 865 q 187 876 187 873 q 186 879 187 878 q 170 892 170 891 q 151 898 159 895 q 134 898 144 901 q 123 890 129 895 q 114 880 118 884 q 106 869 109 873 q 98 863 103 865 q 90 842 90 846 q 85 834 91 837 q 85 815 83 821 q 81 807 87 810 l 88 793 q 112 791 99 785 q 134 802 125 798 q 141 798 138 800 q 151 795 144 796 l 156 779 q 149 766 155 770 q 137 758 142 761 q 127 756 130 755 q 118 754 125 757 q 101 752 104 751 q 95 753 98 753 q 85 753 90 754 q 73 754 80 751 q 60 761 61 761 q 51 770 52 766 q 47 774 50 773 q 48 791 47 787 q 46 802 49 796 q 47 820 47 818 q 45 823 47 822 q 47 831 47 827 q 47 841 46 836 q 53 854 49 848 q 57 867 57 860 q 66 880 66 871 q 94 910 80 902 q 100 922 98 920 q 104 924 102 924 q 111 935 109 932 q 117 939 114 937 q 132 941 130 939 q 140 941 133 943 q 165 952 157 951 q 182 956 174 954 q 207 959 199 958 q 221 960 214 960 q 233 956 227 954 q 251 956 240 959 q 264 949 264 951 q 267 948 264 948 q 278 948 277 949 q 282 947 279 947 q 300 941 298 943 q 305 937 302 939 q 331 926 317 929 q 346 911 345 917 q 354 905 347 906 q 359 894 355 899 q 366 884 363 888 q 374 872 372 875 q 378 867 376 869 q 386 840 385 848 q 389 825 387 831 q 391 811 389 815 q 392 804 392 807 q 392 793 393 798 q 392 783 391 789 q 388 755 388 765 q 382 738 388 745 q 383 729 384 732 q 381 720 382 726 q 372 704 373 712 q 366 694 368 701 q 362 682 365 688 q 350 668 354 670 q 346 659 346 666 q 333 646 338 652 q 321 637 328 640 q 307 623 313 631 q 290 609 300 616 q 279 599 281 601 q 275 594 278 597 q 264 588 266 587 q 259 587 262 589 q 248 579 251 581 q 241 578 245 578 q 231 569 233 572 q 227 563 229 566 q 212 553 216 556 q 206 545 209 551 q 191 541 197 545 q 182 532 186 537 q 176 527 179 529 q 170 521 172 525 q 157 506 159 509 q 155 500 155 503 q 142 491 151 499 l 134 483 z "},"":{"ha":214,"x_min":76,"x_max":130,"o":"m 76 617 q 80 637 81 633 q 79 643 79 640 q 80 651 79 647 q 83 659 81 655 q 83 667 83 662 q 85 674 83 671 q 82 692 81 681 q 83 716 83 704 q 82 734 83 727 q 85 749 81 742 q 85 770 85 764 q 88 783 85 776 q 90 805 90 793 q 90 831 90 817 q 89 864 90 854 q 90 884 88 873 q 88 905 91 899 q 88 918 88 914 q 85 924 88 921 q 87 935 90 929 q 83 943 85 940 q 90 956 83 951 q 83 968 83 962 q 85 983 84 974 q 95 1012 90 1004 q 106 1017 102 1015 q 117 1017 110 1019 q 127 1007 126 1008 q 130 1005 129 1006 q 125 975 127 982 q 122 958 122 968 q 119 941 119 947 q 120 928 121 932 q 119 922 119 925 l 121 906 q 122 895 121 901 q 125 883 123 888 q 123 867 122 869 q 123 864 123 865 q 123 855 123 859 q 123 846 122 852 q 125 830 125 831 q 123 820 122 827 q 125 806 125 812 q 123 793 125 799 q 121 780 121 787 q 121 761 122 765 q 118 753 119 757 q 119 742 118 747 q 119 731 119 736 q 119 719 119 724 q 117 708 118 713 q 116 688 115 693 q 114 677 117 682 q 118 646 121 662 q 118 613 115 631 q 119 595 121 600 q 118 586 117 590 q 110 577 113 583 q 104 567 107 571 q 97 566 100 566 q 88 568 94 566 q 78 582 79 582 q 77 583 77 582 q 77 608 76 602 q 76 617 79 614 m 121 381 q 122 351 121 363 q 122 324 123 339 q 124 302 121 309 q 121 289 127 294 q 123 276 123 283 q 125 262 123 269 q 123 253 125 256 q 125 247 122 250 q 121 220 121 236 q 121 208 122 208 q 119 205 119 208 q 120 191 119 193 q 121 187 121 190 q 118 175 117 176 q 119 171 119 174 q 120 158 118 160 q 121 151 122 156 q 122 132 119 137 q 122 114 119 119 q 121 100 122 100 q 121 99 121 100 q 122 76 121 80 q 123 66 123 72 q 123 60 125 64 q 122 52 122 56 q 121 34 122 38 q 121 19 119 30 q 121 9 119 16 q 121 -3 122 3 q 109 -15 115 -14 q 84 -9 98 -16 q 81 3 81 -5 q 84 14 80 11 q 84 22 84 18 q 85 34 84 27 q 90 40 88 37 q 90 50 92 43 q 88 60 85 58 q 91 65 91 62 q 89 84 90 75 q 85 103 88 94 q 87 115 85 113 q 90 121 90 118 q 87 137 90 129 q 84 156 85 145 q 86 165 84 160 q 88 174 88 170 q 87 186 85 183 q 88 191 90 189 q 86 201 88 195 q 84 212 84 206 q 88 232 83 224 q 87 250 84 245 q 90 262 90 255 q 86 276 84 271 q 84 283 88 281 q 87 300 85 297 q 84 311 88 304 q 86 340 83 328 q 84 359 90 353 q 80 388 83 378 q 88 400 77 397 q 92 416 91 416 q 94 418 92 416 q 101 426 98 425 q 107 425 104 427 q 115 411 115 415 q 125 390 126 396 q 121 381 123 384 z "}}}
